G04 #@! TF.GenerationSoftware,KiCad,Pcbnew,8.0.5*
G04 #@! TF.CreationDate,2026-08-21T04:40:23+05:30*
G04 #@! TF.ProjectId,NeuroVox v2.0,4e657572-6f56-46f7-9820-76322e302e6b,rev?*
G04 #@! TF.SameCoordinates,Original*
G04 #@! TF.FileFunction,Legend,Top*
G04 #@! TF.FilePolarity,Positive*
%FSLAX46Y46*%
G04 Gerber Fmt 4.6, Leading zero omitted, Abs format (unit mm)*
G04 Created by KiCad (PCBNEW 8.0.5) date 2026-08-21 04:40:23*
%MOMM*%
%LPD*%
G01*
G04 APERTURE LIST*
%ADD10C,0.150000*%
%ADD11C,0.120000*%
%ADD12C,0.000000*%
%ADD13C,0.100000*%
%ADD14C,0.127000*%
%ADD15C,0.200000*%
%ADD16C,0.304800*%
%ADD17C,0.250000*%
%ADD18C,0.060000*%
G04 APERTURE END LIST*
D10*
X61157142Y-5484819D02*
X60823809Y-5008628D01*
X60585714Y-5484819D02*
X60585714Y-4484819D01*
X60585714Y-4484819D02*
X60966666Y-4484819D01*
X60966666Y-4484819D02*
X61061904Y-4532438D01*
X61061904Y-4532438D02*
X61109523Y-4580057D01*
X61109523Y-4580057D02*
X61157142Y-4675295D01*
X61157142Y-4675295D02*
X61157142Y-4818152D01*
X61157142Y-4818152D02*
X61109523Y-4913390D01*
X61109523Y-4913390D02*
X61061904Y-4961009D01*
X61061904Y-4961009D02*
X60966666Y-5008628D01*
X60966666Y-5008628D02*
X60585714Y-5008628D01*
X61538095Y-4580057D02*
X61585714Y-4532438D01*
X61585714Y-4532438D02*
X61680952Y-4484819D01*
X61680952Y-4484819D02*
X61919047Y-4484819D01*
X61919047Y-4484819D02*
X62014285Y-4532438D01*
X62014285Y-4532438D02*
X62061904Y-4580057D01*
X62061904Y-4580057D02*
X62109523Y-4675295D01*
X62109523Y-4675295D02*
X62109523Y-4770533D01*
X62109523Y-4770533D02*
X62061904Y-4913390D01*
X62061904Y-4913390D02*
X61490476Y-5484819D01*
X61490476Y-5484819D02*
X62109523Y-5484819D01*
X62728571Y-4484819D02*
X62823809Y-4484819D01*
X62823809Y-4484819D02*
X62919047Y-4532438D01*
X62919047Y-4532438D02*
X62966666Y-4580057D01*
X62966666Y-4580057D02*
X63014285Y-4675295D01*
X63014285Y-4675295D02*
X63061904Y-4865771D01*
X63061904Y-4865771D02*
X63061904Y-5103866D01*
X63061904Y-5103866D02*
X63014285Y-5294342D01*
X63014285Y-5294342D02*
X62966666Y-5389580D01*
X62966666Y-5389580D02*
X62919047Y-5437200D01*
X62919047Y-5437200D02*
X62823809Y-5484819D01*
X62823809Y-5484819D02*
X62728571Y-5484819D01*
X62728571Y-5484819D02*
X62633333Y-5437200D01*
X62633333Y-5437200D02*
X62585714Y-5389580D01*
X62585714Y-5389580D02*
X62538095Y-5294342D01*
X62538095Y-5294342D02*
X62490476Y-5103866D01*
X62490476Y-5103866D02*
X62490476Y-4865771D01*
X62490476Y-4865771D02*
X62538095Y-4675295D01*
X62538095Y-4675295D02*
X62585714Y-4580057D01*
X62585714Y-4580057D02*
X62633333Y-4532438D01*
X62633333Y-4532438D02*
X62728571Y-4484819D01*
X32473333Y-24699580D02*
X32425714Y-24747200D01*
X32425714Y-24747200D02*
X32282857Y-24794819D01*
X32282857Y-24794819D02*
X32187619Y-24794819D01*
X32187619Y-24794819D02*
X32044762Y-24747200D01*
X32044762Y-24747200D02*
X31949524Y-24651961D01*
X31949524Y-24651961D02*
X31901905Y-24556723D01*
X31901905Y-24556723D02*
X31854286Y-24366247D01*
X31854286Y-24366247D02*
X31854286Y-24223390D01*
X31854286Y-24223390D02*
X31901905Y-24032914D01*
X31901905Y-24032914D02*
X31949524Y-23937676D01*
X31949524Y-23937676D02*
X32044762Y-23842438D01*
X32044762Y-23842438D02*
X32187619Y-23794819D01*
X32187619Y-23794819D02*
X32282857Y-23794819D01*
X32282857Y-23794819D02*
X32425714Y-23842438D01*
X32425714Y-23842438D02*
X32473333Y-23890057D01*
X32806667Y-23794819D02*
X33425714Y-23794819D01*
X33425714Y-23794819D02*
X33092381Y-24175771D01*
X33092381Y-24175771D02*
X33235238Y-24175771D01*
X33235238Y-24175771D02*
X33330476Y-24223390D01*
X33330476Y-24223390D02*
X33378095Y-24271009D01*
X33378095Y-24271009D02*
X33425714Y-24366247D01*
X33425714Y-24366247D02*
X33425714Y-24604342D01*
X33425714Y-24604342D02*
X33378095Y-24699580D01*
X33378095Y-24699580D02*
X33330476Y-24747200D01*
X33330476Y-24747200D02*
X33235238Y-24794819D01*
X33235238Y-24794819D02*
X32949524Y-24794819D01*
X32949524Y-24794819D02*
X32854286Y-24747200D01*
X32854286Y-24747200D02*
X32806667Y-24699580D01*
X19238095Y-12054819D02*
X19238095Y-12864342D01*
X19238095Y-12864342D02*
X19285714Y-12959580D01*
X19285714Y-12959580D02*
X19333333Y-13007200D01*
X19333333Y-13007200D02*
X19428571Y-13054819D01*
X19428571Y-13054819D02*
X19619047Y-13054819D01*
X19619047Y-13054819D02*
X19714285Y-13007200D01*
X19714285Y-13007200D02*
X19761904Y-12959580D01*
X19761904Y-12959580D02*
X19809523Y-12864342D01*
X19809523Y-12864342D02*
X19809523Y-12054819D01*
X20809523Y-13054819D02*
X20238095Y-13054819D01*
X20523809Y-13054819D02*
X20523809Y-12054819D01*
X20523809Y-12054819D02*
X20428571Y-12197676D01*
X20428571Y-12197676D02*
X20333333Y-12292914D01*
X20333333Y-12292914D02*
X20238095Y-12340533D01*
X73457142Y-3284819D02*
X73123809Y-2808628D01*
X72885714Y-3284819D02*
X72885714Y-2284819D01*
X72885714Y-2284819D02*
X73266666Y-2284819D01*
X73266666Y-2284819D02*
X73361904Y-2332438D01*
X73361904Y-2332438D02*
X73409523Y-2380057D01*
X73409523Y-2380057D02*
X73457142Y-2475295D01*
X73457142Y-2475295D02*
X73457142Y-2618152D01*
X73457142Y-2618152D02*
X73409523Y-2713390D01*
X73409523Y-2713390D02*
X73361904Y-2761009D01*
X73361904Y-2761009D02*
X73266666Y-2808628D01*
X73266666Y-2808628D02*
X72885714Y-2808628D01*
X73838095Y-2380057D02*
X73885714Y-2332438D01*
X73885714Y-2332438D02*
X73980952Y-2284819D01*
X73980952Y-2284819D02*
X74219047Y-2284819D01*
X74219047Y-2284819D02*
X74314285Y-2332438D01*
X74314285Y-2332438D02*
X74361904Y-2380057D01*
X74361904Y-2380057D02*
X74409523Y-2475295D01*
X74409523Y-2475295D02*
X74409523Y-2570533D01*
X74409523Y-2570533D02*
X74361904Y-2713390D01*
X74361904Y-2713390D02*
X73790476Y-3284819D01*
X73790476Y-3284819D02*
X74409523Y-3284819D01*
X74742857Y-2284819D02*
X75361904Y-2284819D01*
X75361904Y-2284819D02*
X75028571Y-2665771D01*
X75028571Y-2665771D02*
X75171428Y-2665771D01*
X75171428Y-2665771D02*
X75266666Y-2713390D01*
X75266666Y-2713390D02*
X75314285Y-2761009D01*
X75314285Y-2761009D02*
X75361904Y-2856247D01*
X75361904Y-2856247D02*
X75361904Y-3094342D01*
X75361904Y-3094342D02*
X75314285Y-3189580D01*
X75314285Y-3189580D02*
X75266666Y-3237200D01*
X75266666Y-3237200D02*
X75171428Y-3284819D01*
X75171428Y-3284819D02*
X74885714Y-3284819D01*
X74885714Y-3284819D02*
X74790476Y-3237200D01*
X74790476Y-3237200D02*
X74742857Y-3189580D01*
X155357142Y-43284819D02*
X155023809Y-42808628D01*
X154785714Y-43284819D02*
X154785714Y-42284819D01*
X154785714Y-42284819D02*
X155166666Y-42284819D01*
X155166666Y-42284819D02*
X155261904Y-42332438D01*
X155261904Y-42332438D02*
X155309523Y-42380057D01*
X155309523Y-42380057D02*
X155357142Y-42475295D01*
X155357142Y-42475295D02*
X155357142Y-42618152D01*
X155357142Y-42618152D02*
X155309523Y-42713390D01*
X155309523Y-42713390D02*
X155261904Y-42761009D01*
X155261904Y-42761009D02*
X155166666Y-42808628D01*
X155166666Y-42808628D02*
X154785714Y-42808628D01*
X156214285Y-42284819D02*
X156023809Y-42284819D01*
X156023809Y-42284819D02*
X155928571Y-42332438D01*
X155928571Y-42332438D02*
X155880952Y-42380057D01*
X155880952Y-42380057D02*
X155785714Y-42522914D01*
X155785714Y-42522914D02*
X155738095Y-42713390D01*
X155738095Y-42713390D02*
X155738095Y-43094342D01*
X155738095Y-43094342D02*
X155785714Y-43189580D01*
X155785714Y-43189580D02*
X155833333Y-43237200D01*
X155833333Y-43237200D02*
X155928571Y-43284819D01*
X155928571Y-43284819D02*
X156119047Y-43284819D01*
X156119047Y-43284819D02*
X156214285Y-43237200D01*
X156214285Y-43237200D02*
X156261904Y-43189580D01*
X156261904Y-43189580D02*
X156309523Y-43094342D01*
X156309523Y-43094342D02*
X156309523Y-42856247D01*
X156309523Y-42856247D02*
X156261904Y-42761009D01*
X156261904Y-42761009D02*
X156214285Y-42713390D01*
X156214285Y-42713390D02*
X156119047Y-42665771D01*
X156119047Y-42665771D02*
X155928571Y-42665771D01*
X155928571Y-42665771D02*
X155833333Y-42713390D01*
X155833333Y-42713390D02*
X155785714Y-42761009D01*
X155785714Y-42761009D02*
X155738095Y-42856247D01*
X157261904Y-43284819D02*
X156690476Y-43284819D01*
X156976190Y-43284819D02*
X156976190Y-42284819D01*
X156976190Y-42284819D02*
X156880952Y-42427676D01*
X156880952Y-42427676D02*
X156785714Y-42522914D01*
X156785714Y-42522914D02*
X156690476Y-42570533D01*
X141166666Y-41974819D02*
X141166666Y-42689104D01*
X141166666Y-42689104D02*
X141119047Y-42831961D01*
X141119047Y-42831961D02*
X141023809Y-42927200D01*
X141023809Y-42927200D02*
X140880952Y-42974819D01*
X140880952Y-42974819D02*
X140785714Y-42974819D01*
X142071428Y-41974819D02*
X141880952Y-41974819D01*
X141880952Y-41974819D02*
X141785714Y-42022438D01*
X141785714Y-42022438D02*
X141738095Y-42070057D01*
X141738095Y-42070057D02*
X141642857Y-42212914D01*
X141642857Y-42212914D02*
X141595238Y-42403390D01*
X141595238Y-42403390D02*
X141595238Y-42784342D01*
X141595238Y-42784342D02*
X141642857Y-42879580D01*
X141642857Y-42879580D02*
X141690476Y-42927200D01*
X141690476Y-42927200D02*
X141785714Y-42974819D01*
X141785714Y-42974819D02*
X141976190Y-42974819D01*
X141976190Y-42974819D02*
X142071428Y-42927200D01*
X142071428Y-42927200D02*
X142119047Y-42879580D01*
X142119047Y-42879580D02*
X142166666Y-42784342D01*
X142166666Y-42784342D02*
X142166666Y-42546247D01*
X142166666Y-42546247D02*
X142119047Y-42451009D01*
X142119047Y-42451009D02*
X142071428Y-42403390D01*
X142071428Y-42403390D02*
X141976190Y-42355771D01*
X141976190Y-42355771D02*
X141785714Y-42355771D01*
X141785714Y-42355771D02*
X141690476Y-42403390D01*
X141690476Y-42403390D02*
X141642857Y-42451009D01*
X141642857Y-42451009D02*
X141595238Y-42546247D01*
X65357142Y-5484819D02*
X65023809Y-5008628D01*
X64785714Y-5484819D02*
X64785714Y-4484819D01*
X64785714Y-4484819D02*
X65166666Y-4484819D01*
X65166666Y-4484819D02*
X65261904Y-4532438D01*
X65261904Y-4532438D02*
X65309523Y-4580057D01*
X65309523Y-4580057D02*
X65357142Y-4675295D01*
X65357142Y-4675295D02*
X65357142Y-4818152D01*
X65357142Y-4818152D02*
X65309523Y-4913390D01*
X65309523Y-4913390D02*
X65261904Y-4961009D01*
X65261904Y-4961009D02*
X65166666Y-5008628D01*
X65166666Y-5008628D02*
X64785714Y-5008628D01*
X65738095Y-4580057D02*
X65785714Y-4532438D01*
X65785714Y-4532438D02*
X65880952Y-4484819D01*
X65880952Y-4484819D02*
X66119047Y-4484819D01*
X66119047Y-4484819D02*
X66214285Y-4532438D01*
X66214285Y-4532438D02*
X66261904Y-4580057D01*
X66261904Y-4580057D02*
X66309523Y-4675295D01*
X66309523Y-4675295D02*
X66309523Y-4770533D01*
X66309523Y-4770533D02*
X66261904Y-4913390D01*
X66261904Y-4913390D02*
X65690476Y-5484819D01*
X65690476Y-5484819D02*
X66309523Y-5484819D01*
X67261904Y-5484819D02*
X66690476Y-5484819D01*
X66976190Y-5484819D02*
X66976190Y-4484819D01*
X66976190Y-4484819D02*
X66880952Y-4627676D01*
X66880952Y-4627676D02*
X66785714Y-4722914D01*
X66785714Y-4722914D02*
X66690476Y-4770533D01*
X65357142Y-8999580D02*
X65309523Y-9047200D01*
X65309523Y-9047200D02*
X65166666Y-9094819D01*
X65166666Y-9094819D02*
X65071428Y-9094819D01*
X65071428Y-9094819D02*
X64928571Y-9047200D01*
X64928571Y-9047200D02*
X64833333Y-8951961D01*
X64833333Y-8951961D02*
X64785714Y-8856723D01*
X64785714Y-8856723D02*
X64738095Y-8666247D01*
X64738095Y-8666247D02*
X64738095Y-8523390D01*
X64738095Y-8523390D02*
X64785714Y-8332914D01*
X64785714Y-8332914D02*
X64833333Y-8237676D01*
X64833333Y-8237676D02*
X64928571Y-8142438D01*
X64928571Y-8142438D02*
X65071428Y-8094819D01*
X65071428Y-8094819D02*
X65166666Y-8094819D01*
X65166666Y-8094819D02*
X65309523Y-8142438D01*
X65309523Y-8142438D02*
X65357142Y-8190057D01*
X65738095Y-8190057D02*
X65785714Y-8142438D01*
X65785714Y-8142438D02*
X65880952Y-8094819D01*
X65880952Y-8094819D02*
X66119047Y-8094819D01*
X66119047Y-8094819D02*
X66214285Y-8142438D01*
X66214285Y-8142438D02*
X66261904Y-8190057D01*
X66261904Y-8190057D02*
X66309523Y-8285295D01*
X66309523Y-8285295D02*
X66309523Y-8380533D01*
X66309523Y-8380533D02*
X66261904Y-8523390D01*
X66261904Y-8523390D02*
X65690476Y-9094819D01*
X65690476Y-9094819D02*
X66309523Y-9094819D01*
X67261904Y-9094819D02*
X66690476Y-9094819D01*
X66976190Y-9094819D02*
X66976190Y-8094819D01*
X66976190Y-8094819D02*
X66880952Y-8237676D01*
X66880952Y-8237676D02*
X66785714Y-8332914D01*
X66785714Y-8332914D02*
X66690476Y-8380533D01*
X157357142Y-5999580D02*
X157309523Y-6047200D01*
X157309523Y-6047200D02*
X157166666Y-6094819D01*
X157166666Y-6094819D02*
X157071428Y-6094819D01*
X157071428Y-6094819D02*
X156928571Y-6047200D01*
X156928571Y-6047200D02*
X156833333Y-5951961D01*
X156833333Y-5951961D02*
X156785714Y-5856723D01*
X156785714Y-5856723D02*
X156738095Y-5666247D01*
X156738095Y-5666247D02*
X156738095Y-5523390D01*
X156738095Y-5523390D02*
X156785714Y-5332914D01*
X156785714Y-5332914D02*
X156833333Y-5237676D01*
X156833333Y-5237676D02*
X156928571Y-5142438D01*
X156928571Y-5142438D02*
X157071428Y-5094819D01*
X157071428Y-5094819D02*
X157166666Y-5094819D01*
X157166666Y-5094819D02*
X157309523Y-5142438D01*
X157309523Y-5142438D02*
X157357142Y-5190057D01*
X158214285Y-5094819D02*
X158023809Y-5094819D01*
X158023809Y-5094819D02*
X157928571Y-5142438D01*
X157928571Y-5142438D02*
X157880952Y-5190057D01*
X157880952Y-5190057D02*
X157785714Y-5332914D01*
X157785714Y-5332914D02*
X157738095Y-5523390D01*
X157738095Y-5523390D02*
X157738095Y-5904342D01*
X157738095Y-5904342D02*
X157785714Y-5999580D01*
X157785714Y-5999580D02*
X157833333Y-6047200D01*
X157833333Y-6047200D02*
X157928571Y-6094819D01*
X157928571Y-6094819D02*
X158119047Y-6094819D01*
X158119047Y-6094819D02*
X158214285Y-6047200D01*
X158214285Y-6047200D02*
X158261904Y-5999580D01*
X158261904Y-5999580D02*
X158309523Y-5904342D01*
X158309523Y-5904342D02*
X158309523Y-5666247D01*
X158309523Y-5666247D02*
X158261904Y-5571009D01*
X158261904Y-5571009D02*
X158214285Y-5523390D01*
X158214285Y-5523390D02*
X158119047Y-5475771D01*
X158119047Y-5475771D02*
X157928571Y-5475771D01*
X157928571Y-5475771D02*
X157833333Y-5523390D01*
X157833333Y-5523390D02*
X157785714Y-5571009D01*
X157785714Y-5571009D02*
X157738095Y-5666247D01*
X159261904Y-6094819D02*
X158690476Y-6094819D01*
X158976190Y-6094819D02*
X158976190Y-5094819D01*
X158976190Y-5094819D02*
X158880952Y-5237676D01*
X158880952Y-5237676D02*
X158785714Y-5332914D01*
X158785714Y-5332914D02*
X158690476Y-5380533D01*
X154880952Y-47284819D02*
X154404762Y-47284819D01*
X154404762Y-47284819D02*
X154404762Y-46284819D01*
X155214286Y-46761009D02*
X155547619Y-46761009D01*
X155690476Y-47284819D02*
X155214286Y-47284819D01*
X155214286Y-47284819D02*
X155214286Y-46284819D01*
X155214286Y-46284819D02*
X155690476Y-46284819D01*
X156119048Y-47284819D02*
X156119048Y-46284819D01*
X156119048Y-46284819D02*
X156357143Y-46284819D01*
X156357143Y-46284819D02*
X156500000Y-46332438D01*
X156500000Y-46332438D02*
X156595238Y-46427676D01*
X156595238Y-46427676D02*
X156642857Y-46522914D01*
X156642857Y-46522914D02*
X156690476Y-46713390D01*
X156690476Y-46713390D02*
X156690476Y-46856247D01*
X156690476Y-46856247D02*
X156642857Y-47046723D01*
X156642857Y-47046723D02*
X156595238Y-47141961D01*
X156595238Y-47141961D02*
X156500000Y-47237200D01*
X156500000Y-47237200D02*
X156357143Y-47284819D01*
X156357143Y-47284819D02*
X156119048Y-47284819D01*
X157071429Y-46380057D02*
X157119048Y-46332438D01*
X157119048Y-46332438D02*
X157214286Y-46284819D01*
X157214286Y-46284819D02*
X157452381Y-46284819D01*
X157452381Y-46284819D02*
X157547619Y-46332438D01*
X157547619Y-46332438D02*
X157595238Y-46380057D01*
X157595238Y-46380057D02*
X157642857Y-46475295D01*
X157642857Y-46475295D02*
X157642857Y-46570533D01*
X157642857Y-46570533D02*
X157595238Y-46713390D01*
X157595238Y-46713390D02*
X157023810Y-47284819D01*
X157023810Y-47284819D02*
X157642857Y-47284819D01*
X173761905Y-42624819D02*
X173761905Y-43434342D01*
X173761905Y-43434342D02*
X173809524Y-43529580D01*
X173809524Y-43529580D02*
X173857143Y-43577200D01*
X173857143Y-43577200D02*
X173952381Y-43624819D01*
X173952381Y-43624819D02*
X174142857Y-43624819D01*
X174142857Y-43624819D02*
X174238095Y-43577200D01*
X174238095Y-43577200D02*
X174285714Y-43529580D01*
X174285714Y-43529580D02*
X174333333Y-43434342D01*
X174333333Y-43434342D02*
X174333333Y-42624819D01*
X175333333Y-43624819D02*
X174761905Y-43624819D01*
X175047619Y-43624819D02*
X175047619Y-42624819D01*
X175047619Y-42624819D02*
X174952381Y-42767676D01*
X174952381Y-42767676D02*
X174857143Y-42862914D01*
X174857143Y-42862914D02*
X174761905Y-42910533D01*
X176190476Y-42958152D02*
X176190476Y-43624819D01*
X175952381Y-42577200D02*
X175714286Y-43291485D01*
X175714286Y-43291485D02*
X176333333Y-43291485D01*
D11*
X159009524Y-38163855D02*
X159009524Y-38811474D01*
X159009524Y-38811474D02*
X159047619Y-38887664D01*
X159047619Y-38887664D02*
X159085714Y-38925760D01*
X159085714Y-38925760D02*
X159161905Y-38963855D01*
X159161905Y-38963855D02*
X159314286Y-38963855D01*
X159314286Y-38963855D02*
X159390476Y-38925760D01*
X159390476Y-38925760D02*
X159428571Y-38887664D01*
X159428571Y-38887664D02*
X159466667Y-38811474D01*
X159466667Y-38811474D02*
X159466667Y-38163855D01*
X160266666Y-38963855D02*
X159809523Y-38963855D01*
X160038095Y-38963855D02*
X160038095Y-38163855D01*
X160038095Y-38163855D02*
X159961904Y-38278140D01*
X159961904Y-38278140D02*
X159885714Y-38354331D01*
X159885714Y-38354331D02*
X159809523Y-38392426D01*
X160533333Y-38163855D02*
X161028571Y-38163855D01*
X161028571Y-38163855D02*
X160761905Y-38468617D01*
X160761905Y-38468617D02*
X160876190Y-38468617D01*
X160876190Y-38468617D02*
X160952381Y-38506712D01*
X160952381Y-38506712D02*
X160990476Y-38544807D01*
X160990476Y-38544807D02*
X161028571Y-38620998D01*
X161028571Y-38620998D02*
X161028571Y-38811474D01*
X161028571Y-38811474D02*
X160990476Y-38887664D01*
X160990476Y-38887664D02*
X160952381Y-38925760D01*
X160952381Y-38925760D02*
X160876190Y-38963855D01*
X160876190Y-38963855D02*
X160647619Y-38963855D01*
X160647619Y-38963855D02*
X160571428Y-38925760D01*
X160571428Y-38925760D02*
X160533333Y-38887664D01*
D10*
X195357142Y-36284819D02*
X195023809Y-35808628D01*
X194785714Y-36284819D02*
X194785714Y-35284819D01*
X194785714Y-35284819D02*
X195166666Y-35284819D01*
X195166666Y-35284819D02*
X195261904Y-35332438D01*
X195261904Y-35332438D02*
X195309523Y-35380057D01*
X195309523Y-35380057D02*
X195357142Y-35475295D01*
X195357142Y-35475295D02*
X195357142Y-35618152D01*
X195357142Y-35618152D02*
X195309523Y-35713390D01*
X195309523Y-35713390D02*
X195261904Y-35761009D01*
X195261904Y-35761009D02*
X195166666Y-35808628D01*
X195166666Y-35808628D02*
X194785714Y-35808628D01*
X196214285Y-35284819D02*
X196023809Y-35284819D01*
X196023809Y-35284819D02*
X195928571Y-35332438D01*
X195928571Y-35332438D02*
X195880952Y-35380057D01*
X195880952Y-35380057D02*
X195785714Y-35522914D01*
X195785714Y-35522914D02*
X195738095Y-35713390D01*
X195738095Y-35713390D02*
X195738095Y-36094342D01*
X195738095Y-36094342D02*
X195785714Y-36189580D01*
X195785714Y-36189580D02*
X195833333Y-36237200D01*
X195833333Y-36237200D02*
X195928571Y-36284819D01*
X195928571Y-36284819D02*
X196119047Y-36284819D01*
X196119047Y-36284819D02*
X196214285Y-36237200D01*
X196214285Y-36237200D02*
X196261904Y-36189580D01*
X196261904Y-36189580D02*
X196309523Y-36094342D01*
X196309523Y-36094342D02*
X196309523Y-35856247D01*
X196309523Y-35856247D02*
X196261904Y-35761009D01*
X196261904Y-35761009D02*
X196214285Y-35713390D01*
X196214285Y-35713390D02*
X196119047Y-35665771D01*
X196119047Y-35665771D02*
X195928571Y-35665771D01*
X195928571Y-35665771D02*
X195833333Y-35713390D01*
X195833333Y-35713390D02*
X195785714Y-35761009D01*
X195785714Y-35761009D02*
X195738095Y-35856247D01*
X197214285Y-35284819D02*
X196738095Y-35284819D01*
X196738095Y-35284819D02*
X196690476Y-35761009D01*
X196690476Y-35761009D02*
X196738095Y-35713390D01*
X196738095Y-35713390D02*
X196833333Y-35665771D01*
X196833333Y-35665771D02*
X197071428Y-35665771D01*
X197071428Y-35665771D02*
X197166666Y-35713390D01*
X197166666Y-35713390D02*
X197214285Y-35761009D01*
X197214285Y-35761009D02*
X197261904Y-35856247D01*
X197261904Y-35856247D02*
X197261904Y-36094342D01*
X197261904Y-36094342D02*
X197214285Y-36189580D01*
X197214285Y-36189580D02*
X197166666Y-36237200D01*
X197166666Y-36237200D02*
X197071428Y-36284819D01*
X197071428Y-36284819D02*
X196833333Y-36284819D01*
X196833333Y-36284819D02*
X196738095Y-36237200D01*
X196738095Y-36237200D02*
X196690476Y-36189580D01*
X29833333Y-23929580D02*
X29785714Y-23977200D01*
X29785714Y-23977200D02*
X29642857Y-24024819D01*
X29642857Y-24024819D02*
X29547619Y-24024819D01*
X29547619Y-24024819D02*
X29404762Y-23977200D01*
X29404762Y-23977200D02*
X29309524Y-23881961D01*
X29309524Y-23881961D02*
X29261905Y-23786723D01*
X29261905Y-23786723D02*
X29214286Y-23596247D01*
X29214286Y-23596247D02*
X29214286Y-23453390D01*
X29214286Y-23453390D02*
X29261905Y-23262914D01*
X29261905Y-23262914D02*
X29309524Y-23167676D01*
X29309524Y-23167676D02*
X29404762Y-23072438D01*
X29404762Y-23072438D02*
X29547619Y-23024819D01*
X29547619Y-23024819D02*
X29642857Y-23024819D01*
X29642857Y-23024819D02*
X29785714Y-23072438D01*
X29785714Y-23072438D02*
X29833333Y-23120057D01*
X30690476Y-23358152D02*
X30690476Y-24024819D01*
X30452381Y-22977200D02*
X30214286Y-23691485D01*
X30214286Y-23691485D02*
X30833333Y-23691485D01*
X65357142Y-20999580D02*
X65309523Y-21047200D01*
X65309523Y-21047200D02*
X65166666Y-21094819D01*
X65166666Y-21094819D02*
X65071428Y-21094819D01*
X65071428Y-21094819D02*
X64928571Y-21047200D01*
X64928571Y-21047200D02*
X64833333Y-20951961D01*
X64833333Y-20951961D02*
X64785714Y-20856723D01*
X64785714Y-20856723D02*
X64738095Y-20666247D01*
X64738095Y-20666247D02*
X64738095Y-20523390D01*
X64738095Y-20523390D02*
X64785714Y-20332914D01*
X64785714Y-20332914D02*
X64833333Y-20237676D01*
X64833333Y-20237676D02*
X64928571Y-20142438D01*
X64928571Y-20142438D02*
X65071428Y-20094819D01*
X65071428Y-20094819D02*
X65166666Y-20094819D01*
X65166666Y-20094819D02*
X65309523Y-20142438D01*
X65309523Y-20142438D02*
X65357142Y-20190057D01*
X65690476Y-20094819D02*
X66309523Y-20094819D01*
X66309523Y-20094819D02*
X65976190Y-20475771D01*
X65976190Y-20475771D02*
X66119047Y-20475771D01*
X66119047Y-20475771D02*
X66214285Y-20523390D01*
X66214285Y-20523390D02*
X66261904Y-20571009D01*
X66261904Y-20571009D02*
X66309523Y-20666247D01*
X66309523Y-20666247D02*
X66309523Y-20904342D01*
X66309523Y-20904342D02*
X66261904Y-20999580D01*
X66261904Y-20999580D02*
X66214285Y-21047200D01*
X66214285Y-21047200D02*
X66119047Y-21094819D01*
X66119047Y-21094819D02*
X65833333Y-21094819D01*
X65833333Y-21094819D02*
X65738095Y-21047200D01*
X65738095Y-21047200D02*
X65690476Y-20999580D01*
X67261904Y-21094819D02*
X66690476Y-21094819D01*
X66976190Y-21094819D02*
X66976190Y-20094819D01*
X66976190Y-20094819D02*
X66880952Y-20237676D01*
X66880952Y-20237676D02*
X66785714Y-20332914D01*
X66785714Y-20332914D02*
X66690476Y-20380533D01*
X158880952Y-47284819D02*
X158404762Y-47284819D01*
X158404762Y-47284819D02*
X158404762Y-46284819D01*
X159214286Y-46761009D02*
X159547619Y-46761009D01*
X159690476Y-47284819D02*
X159214286Y-47284819D01*
X159214286Y-47284819D02*
X159214286Y-46284819D01*
X159214286Y-46284819D02*
X159690476Y-46284819D01*
X160119048Y-47284819D02*
X160119048Y-46284819D01*
X160119048Y-46284819D02*
X160357143Y-46284819D01*
X160357143Y-46284819D02*
X160500000Y-46332438D01*
X160500000Y-46332438D02*
X160595238Y-46427676D01*
X160595238Y-46427676D02*
X160642857Y-46522914D01*
X160642857Y-46522914D02*
X160690476Y-46713390D01*
X160690476Y-46713390D02*
X160690476Y-46856247D01*
X160690476Y-46856247D02*
X160642857Y-47046723D01*
X160642857Y-47046723D02*
X160595238Y-47141961D01*
X160595238Y-47141961D02*
X160500000Y-47237200D01*
X160500000Y-47237200D02*
X160357143Y-47284819D01*
X160357143Y-47284819D02*
X160119048Y-47284819D01*
X161023810Y-46284819D02*
X161642857Y-46284819D01*
X161642857Y-46284819D02*
X161309524Y-46665771D01*
X161309524Y-46665771D02*
X161452381Y-46665771D01*
X161452381Y-46665771D02*
X161547619Y-46713390D01*
X161547619Y-46713390D02*
X161595238Y-46761009D01*
X161595238Y-46761009D02*
X161642857Y-46856247D01*
X161642857Y-46856247D02*
X161642857Y-47094342D01*
X161642857Y-47094342D02*
X161595238Y-47189580D01*
X161595238Y-47189580D02*
X161547619Y-47237200D01*
X161547619Y-47237200D02*
X161452381Y-47284819D01*
X161452381Y-47284819D02*
X161166667Y-47284819D01*
X161166667Y-47284819D02*
X161071429Y-47237200D01*
X161071429Y-47237200D02*
X161023810Y-47189580D01*
X73457142Y-27284819D02*
X73123809Y-26808628D01*
X72885714Y-27284819D02*
X72885714Y-26284819D01*
X72885714Y-26284819D02*
X73266666Y-26284819D01*
X73266666Y-26284819D02*
X73361904Y-26332438D01*
X73361904Y-26332438D02*
X73409523Y-26380057D01*
X73409523Y-26380057D02*
X73457142Y-26475295D01*
X73457142Y-26475295D02*
X73457142Y-26618152D01*
X73457142Y-26618152D02*
X73409523Y-26713390D01*
X73409523Y-26713390D02*
X73361904Y-26761009D01*
X73361904Y-26761009D02*
X73266666Y-26808628D01*
X73266666Y-26808628D02*
X72885714Y-26808628D01*
X74314285Y-26618152D02*
X74314285Y-27284819D01*
X74076190Y-26237200D02*
X73838095Y-26951485D01*
X73838095Y-26951485D02*
X74457142Y-26951485D01*
X74742857Y-26284819D02*
X75361904Y-26284819D01*
X75361904Y-26284819D02*
X75028571Y-26665771D01*
X75028571Y-26665771D02*
X75171428Y-26665771D01*
X75171428Y-26665771D02*
X75266666Y-26713390D01*
X75266666Y-26713390D02*
X75314285Y-26761009D01*
X75314285Y-26761009D02*
X75361904Y-26856247D01*
X75361904Y-26856247D02*
X75361904Y-27094342D01*
X75361904Y-27094342D02*
X75314285Y-27189580D01*
X75314285Y-27189580D02*
X75266666Y-27237200D01*
X75266666Y-27237200D02*
X75171428Y-27284819D01*
X75171428Y-27284819D02*
X74885714Y-27284819D01*
X74885714Y-27284819D02*
X74790476Y-27237200D01*
X74790476Y-27237200D02*
X74742857Y-27189580D01*
X73457142Y-39284819D02*
X73123809Y-38808628D01*
X72885714Y-39284819D02*
X72885714Y-38284819D01*
X72885714Y-38284819D02*
X73266666Y-38284819D01*
X73266666Y-38284819D02*
X73361904Y-38332438D01*
X73361904Y-38332438D02*
X73409523Y-38380057D01*
X73409523Y-38380057D02*
X73457142Y-38475295D01*
X73457142Y-38475295D02*
X73457142Y-38618152D01*
X73457142Y-38618152D02*
X73409523Y-38713390D01*
X73409523Y-38713390D02*
X73361904Y-38761009D01*
X73361904Y-38761009D02*
X73266666Y-38808628D01*
X73266666Y-38808628D02*
X72885714Y-38808628D01*
X74361904Y-38284819D02*
X73885714Y-38284819D01*
X73885714Y-38284819D02*
X73838095Y-38761009D01*
X73838095Y-38761009D02*
X73885714Y-38713390D01*
X73885714Y-38713390D02*
X73980952Y-38665771D01*
X73980952Y-38665771D02*
X74219047Y-38665771D01*
X74219047Y-38665771D02*
X74314285Y-38713390D01*
X74314285Y-38713390D02*
X74361904Y-38761009D01*
X74361904Y-38761009D02*
X74409523Y-38856247D01*
X74409523Y-38856247D02*
X74409523Y-39094342D01*
X74409523Y-39094342D02*
X74361904Y-39189580D01*
X74361904Y-39189580D02*
X74314285Y-39237200D01*
X74314285Y-39237200D02*
X74219047Y-39284819D01*
X74219047Y-39284819D02*
X73980952Y-39284819D01*
X73980952Y-39284819D02*
X73885714Y-39237200D01*
X73885714Y-39237200D02*
X73838095Y-39189580D01*
X74742857Y-38284819D02*
X75361904Y-38284819D01*
X75361904Y-38284819D02*
X75028571Y-38665771D01*
X75028571Y-38665771D02*
X75171428Y-38665771D01*
X75171428Y-38665771D02*
X75266666Y-38713390D01*
X75266666Y-38713390D02*
X75314285Y-38761009D01*
X75314285Y-38761009D02*
X75361904Y-38856247D01*
X75361904Y-38856247D02*
X75361904Y-39094342D01*
X75361904Y-39094342D02*
X75314285Y-39189580D01*
X75314285Y-39189580D02*
X75266666Y-39237200D01*
X75266666Y-39237200D02*
X75171428Y-39284819D01*
X75171428Y-39284819D02*
X74885714Y-39284819D01*
X74885714Y-39284819D02*
X74790476Y-39237200D01*
X74790476Y-39237200D02*
X74742857Y-39189580D01*
X65357142Y-44999580D02*
X65309523Y-45047200D01*
X65309523Y-45047200D02*
X65166666Y-45094819D01*
X65166666Y-45094819D02*
X65071428Y-45094819D01*
X65071428Y-45094819D02*
X64928571Y-45047200D01*
X64928571Y-45047200D02*
X64833333Y-44951961D01*
X64833333Y-44951961D02*
X64785714Y-44856723D01*
X64785714Y-44856723D02*
X64738095Y-44666247D01*
X64738095Y-44666247D02*
X64738095Y-44523390D01*
X64738095Y-44523390D02*
X64785714Y-44332914D01*
X64785714Y-44332914D02*
X64833333Y-44237676D01*
X64833333Y-44237676D02*
X64928571Y-44142438D01*
X64928571Y-44142438D02*
X65071428Y-44094819D01*
X65071428Y-44094819D02*
X65166666Y-44094819D01*
X65166666Y-44094819D02*
X65309523Y-44142438D01*
X65309523Y-44142438D02*
X65357142Y-44190057D01*
X66261904Y-44094819D02*
X65785714Y-44094819D01*
X65785714Y-44094819D02*
X65738095Y-44571009D01*
X65738095Y-44571009D02*
X65785714Y-44523390D01*
X65785714Y-44523390D02*
X65880952Y-44475771D01*
X65880952Y-44475771D02*
X66119047Y-44475771D01*
X66119047Y-44475771D02*
X66214285Y-44523390D01*
X66214285Y-44523390D02*
X66261904Y-44571009D01*
X66261904Y-44571009D02*
X66309523Y-44666247D01*
X66309523Y-44666247D02*
X66309523Y-44904342D01*
X66309523Y-44904342D02*
X66261904Y-44999580D01*
X66261904Y-44999580D02*
X66214285Y-45047200D01*
X66214285Y-45047200D02*
X66119047Y-45094819D01*
X66119047Y-45094819D02*
X65880952Y-45094819D01*
X65880952Y-45094819D02*
X65785714Y-45047200D01*
X65785714Y-45047200D02*
X65738095Y-44999580D01*
X67261904Y-45094819D02*
X66690476Y-45094819D01*
X66976190Y-45094819D02*
X66976190Y-44094819D01*
X66976190Y-44094819D02*
X66880952Y-44237676D01*
X66880952Y-44237676D02*
X66785714Y-44332914D01*
X66785714Y-44332914D02*
X66690476Y-44380533D01*
X34833333Y-29284819D02*
X34500000Y-28808628D01*
X34261905Y-29284819D02*
X34261905Y-28284819D01*
X34261905Y-28284819D02*
X34642857Y-28284819D01*
X34642857Y-28284819D02*
X34738095Y-28332438D01*
X34738095Y-28332438D02*
X34785714Y-28380057D01*
X34785714Y-28380057D02*
X34833333Y-28475295D01*
X34833333Y-28475295D02*
X34833333Y-28618152D01*
X34833333Y-28618152D02*
X34785714Y-28713390D01*
X34785714Y-28713390D02*
X34738095Y-28761009D01*
X34738095Y-28761009D02*
X34642857Y-28808628D01*
X34642857Y-28808628D02*
X34261905Y-28808628D01*
X35690476Y-28284819D02*
X35500000Y-28284819D01*
X35500000Y-28284819D02*
X35404762Y-28332438D01*
X35404762Y-28332438D02*
X35357143Y-28380057D01*
X35357143Y-28380057D02*
X35261905Y-28522914D01*
X35261905Y-28522914D02*
X35214286Y-28713390D01*
X35214286Y-28713390D02*
X35214286Y-29094342D01*
X35214286Y-29094342D02*
X35261905Y-29189580D01*
X35261905Y-29189580D02*
X35309524Y-29237200D01*
X35309524Y-29237200D02*
X35404762Y-29284819D01*
X35404762Y-29284819D02*
X35595238Y-29284819D01*
X35595238Y-29284819D02*
X35690476Y-29237200D01*
X35690476Y-29237200D02*
X35738095Y-29189580D01*
X35738095Y-29189580D02*
X35785714Y-29094342D01*
X35785714Y-29094342D02*
X35785714Y-28856247D01*
X35785714Y-28856247D02*
X35738095Y-28761009D01*
X35738095Y-28761009D02*
X35690476Y-28713390D01*
X35690476Y-28713390D02*
X35595238Y-28665771D01*
X35595238Y-28665771D02*
X35404762Y-28665771D01*
X35404762Y-28665771D02*
X35309524Y-28713390D01*
X35309524Y-28713390D02*
X35261905Y-28761009D01*
X35261905Y-28761009D02*
X35214286Y-28856247D01*
X34238095Y-22554819D02*
X34238095Y-23364342D01*
X34238095Y-23364342D02*
X34285714Y-23459580D01*
X34285714Y-23459580D02*
X34333333Y-23507200D01*
X34333333Y-23507200D02*
X34428571Y-23554819D01*
X34428571Y-23554819D02*
X34619047Y-23554819D01*
X34619047Y-23554819D02*
X34714285Y-23507200D01*
X34714285Y-23507200D02*
X34761904Y-23459580D01*
X34761904Y-23459580D02*
X34809523Y-23364342D01*
X34809523Y-23364342D02*
X34809523Y-22554819D01*
X35190476Y-22554819D02*
X35809523Y-22554819D01*
X35809523Y-22554819D02*
X35476190Y-22935771D01*
X35476190Y-22935771D02*
X35619047Y-22935771D01*
X35619047Y-22935771D02*
X35714285Y-22983390D01*
X35714285Y-22983390D02*
X35761904Y-23031009D01*
X35761904Y-23031009D02*
X35809523Y-23126247D01*
X35809523Y-23126247D02*
X35809523Y-23364342D01*
X35809523Y-23364342D02*
X35761904Y-23459580D01*
X35761904Y-23459580D02*
X35714285Y-23507200D01*
X35714285Y-23507200D02*
X35619047Y-23554819D01*
X35619047Y-23554819D02*
X35333333Y-23554819D01*
X35333333Y-23554819D02*
X35238095Y-23507200D01*
X35238095Y-23507200D02*
X35190476Y-23459580D01*
X69257142Y-3284819D02*
X68923809Y-2808628D01*
X68685714Y-3284819D02*
X68685714Y-2284819D01*
X68685714Y-2284819D02*
X69066666Y-2284819D01*
X69066666Y-2284819D02*
X69161904Y-2332438D01*
X69161904Y-2332438D02*
X69209523Y-2380057D01*
X69209523Y-2380057D02*
X69257142Y-2475295D01*
X69257142Y-2475295D02*
X69257142Y-2618152D01*
X69257142Y-2618152D02*
X69209523Y-2713390D01*
X69209523Y-2713390D02*
X69161904Y-2761009D01*
X69161904Y-2761009D02*
X69066666Y-2808628D01*
X69066666Y-2808628D02*
X68685714Y-2808628D01*
X69638095Y-2380057D02*
X69685714Y-2332438D01*
X69685714Y-2332438D02*
X69780952Y-2284819D01*
X69780952Y-2284819D02*
X70019047Y-2284819D01*
X70019047Y-2284819D02*
X70114285Y-2332438D01*
X70114285Y-2332438D02*
X70161904Y-2380057D01*
X70161904Y-2380057D02*
X70209523Y-2475295D01*
X70209523Y-2475295D02*
X70209523Y-2570533D01*
X70209523Y-2570533D02*
X70161904Y-2713390D01*
X70161904Y-2713390D02*
X69590476Y-3284819D01*
X69590476Y-3284819D02*
X70209523Y-3284819D01*
X70590476Y-2380057D02*
X70638095Y-2332438D01*
X70638095Y-2332438D02*
X70733333Y-2284819D01*
X70733333Y-2284819D02*
X70971428Y-2284819D01*
X70971428Y-2284819D02*
X71066666Y-2332438D01*
X71066666Y-2332438D02*
X71114285Y-2380057D01*
X71114285Y-2380057D02*
X71161904Y-2475295D01*
X71161904Y-2475295D02*
X71161904Y-2570533D01*
X71161904Y-2570533D02*
X71114285Y-2713390D01*
X71114285Y-2713390D02*
X70542857Y-3284819D01*
X70542857Y-3284819D02*
X71161904Y-3284819D01*
X180357143Y-49207200D02*
X180500000Y-49254819D01*
X180500000Y-49254819D02*
X180738095Y-49254819D01*
X180738095Y-49254819D02*
X180833333Y-49207200D01*
X180833333Y-49207200D02*
X180880952Y-49159580D01*
X180880952Y-49159580D02*
X180928571Y-49064342D01*
X180928571Y-49064342D02*
X180928571Y-48969104D01*
X180928571Y-48969104D02*
X180880952Y-48873866D01*
X180880952Y-48873866D02*
X180833333Y-48826247D01*
X180833333Y-48826247D02*
X180738095Y-48778628D01*
X180738095Y-48778628D02*
X180547619Y-48731009D01*
X180547619Y-48731009D02*
X180452381Y-48683390D01*
X180452381Y-48683390D02*
X180404762Y-48635771D01*
X180404762Y-48635771D02*
X180357143Y-48540533D01*
X180357143Y-48540533D02*
X180357143Y-48445295D01*
X180357143Y-48445295D02*
X180404762Y-48350057D01*
X180404762Y-48350057D02*
X180452381Y-48302438D01*
X180452381Y-48302438D02*
X180547619Y-48254819D01*
X180547619Y-48254819D02*
X180785714Y-48254819D01*
X180785714Y-48254819D02*
X180928571Y-48302438D01*
X181357143Y-49254819D02*
X181357143Y-48254819D01*
X181357143Y-48254819D02*
X181738095Y-48254819D01*
X181738095Y-48254819D02*
X181833333Y-48302438D01*
X181833333Y-48302438D02*
X181880952Y-48350057D01*
X181880952Y-48350057D02*
X181928571Y-48445295D01*
X181928571Y-48445295D02*
X181928571Y-48588152D01*
X181928571Y-48588152D02*
X181880952Y-48683390D01*
X181880952Y-48683390D02*
X181833333Y-48731009D01*
X181833333Y-48731009D02*
X181738095Y-48778628D01*
X181738095Y-48778628D02*
X181357143Y-48778628D01*
X182357143Y-49254819D02*
X182357143Y-48254819D01*
X182928571Y-49254819D02*
X182500000Y-48683390D01*
X182928571Y-48254819D02*
X182357143Y-48826247D01*
X183119048Y-49350057D02*
X183880952Y-49350057D01*
X184119048Y-49254819D02*
X184119048Y-48254819D01*
X184119048Y-48254819D02*
X184690476Y-49254819D01*
X184690476Y-49254819D02*
X184690476Y-48254819D01*
X185166667Y-48731009D02*
X185500000Y-48731009D01*
X185642857Y-49254819D02*
X185166667Y-49254819D01*
X185166667Y-49254819D02*
X185166667Y-48254819D01*
X185166667Y-48254819D02*
X185642857Y-48254819D01*
X186595238Y-48302438D02*
X186500000Y-48254819D01*
X186500000Y-48254819D02*
X186357143Y-48254819D01*
X186357143Y-48254819D02*
X186214286Y-48302438D01*
X186214286Y-48302438D02*
X186119048Y-48397676D01*
X186119048Y-48397676D02*
X186071429Y-48492914D01*
X186071429Y-48492914D02*
X186023810Y-48683390D01*
X186023810Y-48683390D02*
X186023810Y-48826247D01*
X186023810Y-48826247D02*
X186071429Y-49016723D01*
X186071429Y-49016723D02*
X186119048Y-49111961D01*
X186119048Y-49111961D02*
X186214286Y-49207200D01*
X186214286Y-49207200D02*
X186357143Y-49254819D01*
X186357143Y-49254819D02*
X186452381Y-49254819D01*
X186452381Y-49254819D02*
X186595238Y-49207200D01*
X186595238Y-49207200D02*
X186642857Y-49159580D01*
X186642857Y-49159580D02*
X186642857Y-48826247D01*
X186642857Y-48826247D02*
X186452381Y-48826247D01*
X114238095Y-31804819D02*
X114238095Y-32614342D01*
X114238095Y-32614342D02*
X114285714Y-32709580D01*
X114285714Y-32709580D02*
X114333333Y-32757200D01*
X114333333Y-32757200D02*
X114428571Y-32804819D01*
X114428571Y-32804819D02*
X114619047Y-32804819D01*
X114619047Y-32804819D02*
X114714285Y-32757200D01*
X114714285Y-32757200D02*
X114761904Y-32709580D01*
X114761904Y-32709580D02*
X114809523Y-32614342D01*
X114809523Y-32614342D02*
X114809523Y-31804819D01*
X115333333Y-32804819D02*
X115523809Y-32804819D01*
X115523809Y-32804819D02*
X115619047Y-32757200D01*
X115619047Y-32757200D02*
X115666666Y-32709580D01*
X115666666Y-32709580D02*
X115761904Y-32566723D01*
X115761904Y-32566723D02*
X115809523Y-32376247D01*
X115809523Y-32376247D02*
X115809523Y-31995295D01*
X115809523Y-31995295D02*
X115761904Y-31900057D01*
X115761904Y-31900057D02*
X115714285Y-31852438D01*
X115714285Y-31852438D02*
X115619047Y-31804819D01*
X115619047Y-31804819D02*
X115428571Y-31804819D01*
X115428571Y-31804819D02*
X115333333Y-31852438D01*
X115333333Y-31852438D02*
X115285714Y-31900057D01*
X115285714Y-31900057D02*
X115238095Y-31995295D01*
X115238095Y-31995295D02*
X115238095Y-32233390D01*
X115238095Y-32233390D02*
X115285714Y-32328628D01*
X115285714Y-32328628D02*
X115333333Y-32376247D01*
X115333333Y-32376247D02*
X115428571Y-32423866D01*
X115428571Y-32423866D02*
X115619047Y-32423866D01*
X115619047Y-32423866D02*
X115714285Y-32376247D01*
X115714285Y-32376247D02*
X115761904Y-32328628D01*
X115761904Y-32328628D02*
X115809523Y-32233390D01*
X61157142Y-32999580D02*
X61109523Y-33047200D01*
X61109523Y-33047200D02*
X60966666Y-33094819D01*
X60966666Y-33094819D02*
X60871428Y-33094819D01*
X60871428Y-33094819D02*
X60728571Y-33047200D01*
X60728571Y-33047200D02*
X60633333Y-32951961D01*
X60633333Y-32951961D02*
X60585714Y-32856723D01*
X60585714Y-32856723D02*
X60538095Y-32666247D01*
X60538095Y-32666247D02*
X60538095Y-32523390D01*
X60538095Y-32523390D02*
X60585714Y-32332914D01*
X60585714Y-32332914D02*
X60633333Y-32237676D01*
X60633333Y-32237676D02*
X60728571Y-32142438D01*
X60728571Y-32142438D02*
X60871428Y-32094819D01*
X60871428Y-32094819D02*
X60966666Y-32094819D01*
X60966666Y-32094819D02*
X61109523Y-32142438D01*
X61109523Y-32142438D02*
X61157142Y-32190057D01*
X62014285Y-32428152D02*
X62014285Y-33094819D01*
X61776190Y-32047200D02*
X61538095Y-32761485D01*
X61538095Y-32761485D02*
X62157142Y-32761485D01*
X62728571Y-32094819D02*
X62823809Y-32094819D01*
X62823809Y-32094819D02*
X62919047Y-32142438D01*
X62919047Y-32142438D02*
X62966666Y-32190057D01*
X62966666Y-32190057D02*
X63014285Y-32285295D01*
X63014285Y-32285295D02*
X63061904Y-32475771D01*
X63061904Y-32475771D02*
X63061904Y-32713866D01*
X63061904Y-32713866D02*
X63014285Y-32904342D01*
X63014285Y-32904342D02*
X62966666Y-32999580D01*
X62966666Y-32999580D02*
X62919047Y-33047200D01*
X62919047Y-33047200D02*
X62823809Y-33094819D01*
X62823809Y-33094819D02*
X62728571Y-33094819D01*
X62728571Y-33094819D02*
X62633333Y-33047200D01*
X62633333Y-33047200D02*
X62585714Y-32999580D01*
X62585714Y-32999580D02*
X62538095Y-32904342D01*
X62538095Y-32904342D02*
X62490476Y-32713866D01*
X62490476Y-32713866D02*
X62490476Y-32475771D01*
X62490476Y-32475771D02*
X62538095Y-32285295D01*
X62538095Y-32285295D02*
X62585714Y-32190057D01*
X62585714Y-32190057D02*
X62633333Y-32142438D01*
X62633333Y-32142438D02*
X62728571Y-32094819D01*
X44833333Y-13174819D02*
X44357143Y-13174819D01*
X44357143Y-13174819D02*
X44357143Y-12174819D01*
X45690476Y-13174819D02*
X45119048Y-13174819D01*
X45404762Y-13174819D02*
X45404762Y-12174819D01*
X45404762Y-12174819D02*
X45309524Y-12317676D01*
X45309524Y-12317676D02*
X45214286Y-12412914D01*
X45214286Y-12412914D02*
X45119048Y-12460533D01*
X93761905Y-39904819D02*
X93761905Y-40714342D01*
X93761905Y-40714342D02*
X93809524Y-40809580D01*
X93809524Y-40809580D02*
X93857143Y-40857200D01*
X93857143Y-40857200D02*
X93952381Y-40904819D01*
X93952381Y-40904819D02*
X94142857Y-40904819D01*
X94142857Y-40904819D02*
X94238095Y-40857200D01*
X94238095Y-40857200D02*
X94285714Y-40809580D01*
X94285714Y-40809580D02*
X94333333Y-40714342D01*
X94333333Y-40714342D02*
X94333333Y-39904819D01*
X95333333Y-40904819D02*
X94761905Y-40904819D01*
X95047619Y-40904819D02*
X95047619Y-39904819D01*
X95047619Y-39904819D02*
X94952381Y-40047676D01*
X94952381Y-40047676D02*
X94857143Y-40142914D01*
X94857143Y-40142914D02*
X94761905Y-40190533D01*
X95952381Y-39904819D02*
X96047619Y-39904819D01*
X96047619Y-39904819D02*
X96142857Y-39952438D01*
X96142857Y-39952438D02*
X96190476Y-40000057D01*
X96190476Y-40000057D02*
X96238095Y-40095295D01*
X96238095Y-40095295D02*
X96285714Y-40285771D01*
X96285714Y-40285771D02*
X96285714Y-40523866D01*
X96285714Y-40523866D02*
X96238095Y-40714342D01*
X96238095Y-40714342D02*
X96190476Y-40809580D01*
X96190476Y-40809580D02*
X96142857Y-40857200D01*
X96142857Y-40857200D02*
X96047619Y-40904819D01*
X96047619Y-40904819D02*
X95952381Y-40904819D01*
X95952381Y-40904819D02*
X95857143Y-40857200D01*
X95857143Y-40857200D02*
X95809524Y-40809580D01*
X95809524Y-40809580D02*
X95761905Y-40714342D01*
X95761905Y-40714342D02*
X95714286Y-40523866D01*
X95714286Y-40523866D02*
X95714286Y-40285771D01*
X95714286Y-40285771D02*
X95761905Y-40095295D01*
X95761905Y-40095295D02*
X95809524Y-40000057D01*
X95809524Y-40000057D02*
X95857143Y-39952438D01*
X95857143Y-39952438D02*
X95952381Y-39904819D01*
X71357142Y-49624819D02*
X71023809Y-49148628D01*
X70785714Y-49624819D02*
X70785714Y-48624819D01*
X70785714Y-48624819D02*
X71166666Y-48624819D01*
X71166666Y-48624819D02*
X71261904Y-48672438D01*
X71261904Y-48672438D02*
X71309523Y-48720057D01*
X71309523Y-48720057D02*
X71357142Y-48815295D01*
X71357142Y-48815295D02*
X71357142Y-48958152D01*
X71357142Y-48958152D02*
X71309523Y-49053390D01*
X71309523Y-49053390D02*
X71261904Y-49101009D01*
X71261904Y-49101009D02*
X71166666Y-49148628D01*
X71166666Y-49148628D02*
X70785714Y-49148628D01*
X72261904Y-48624819D02*
X71785714Y-48624819D01*
X71785714Y-48624819D02*
X71738095Y-49101009D01*
X71738095Y-49101009D02*
X71785714Y-49053390D01*
X71785714Y-49053390D02*
X71880952Y-49005771D01*
X71880952Y-49005771D02*
X72119047Y-49005771D01*
X72119047Y-49005771D02*
X72214285Y-49053390D01*
X72214285Y-49053390D02*
X72261904Y-49101009D01*
X72261904Y-49101009D02*
X72309523Y-49196247D01*
X72309523Y-49196247D02*
X72309523Y-49434342D01*
X72309523Y-49434342D02*
X72261904Y-49529580D01*
X72261904Y-49529580D02*
X72214285Y-49577200D01*
X72214285Y-49577200D02*
X72119047Y-49624819D01*
X72119047Y-49624819D02*
X71880952Y-49624819D01*
X71880952Y-49624819D02*
X71785714Y-49577200D01*
X71785714Y-49577200D02*
X71738095Y-49529580D01*
X73166666Y-48958152D02*
X73166666Y-49624819D01*
X72928571Y-48577200D02*
X72690476Y-49291485D01*
X72690476Y-49291485D02*
X73309523Y-49291485D01*
X71357142Y-13624819D02*
X71023809Y-13148628D01*
X70785714Y-13624819D02*
X70785714Y-12624819D01*
X70785714Y-12624819D02*
X71166666Y-12624819D01*
X71166666Y-12624819D02*
X71261904Y-12672438D01*
X71261904Y-12672438D02*
X71309523Y-12720057D01*
X71309523Y-12720057D02*
X71357142Y-12815295D01*
X71357142Y-12815295D02*
X71357142Y-12958152D01*
X71357142Y-12958152D02*
X71309523Y-13053390D01*
X71309523Y-13053390D02*
X71261904Y-13101009D01*
X71261904Y-13101009D02*
X71166666Y-13148628D01*
X71166666Y-13148628D02*
X70785714Y-13148628D01*
X71738095Y-12720057D02*
X71785714Y-12672438D01*
X71785714Y-12672438D02*
X71880952Y-12624819D01*
X71880952Y-12624819D02*
X72119047Y-12624819D01*
X72119047Y-12624819D02*
X72214285Y-12672438D01*
X72214285Y-12672438D02*
X72261904Y-12720057D01*
X72261904Y-12720057D02*
X72309523Y-12815295D01*
X72309523Y-12815295D02*
X72309523Y-12910533D01*
X72309523Y-12910533D02*
X72261904Y-13053390D01*
X72261904Y-13053390D02*
X71690476Y-13624819D01*
X71690476Y-13624819D02*
X72309523Y-13624819D01*
X73166666Y-12958152D02*
X73166666Y-13624819D01*
X72928571Y-12577200D02*
X72690476Y-13291485D01*
X72690476Y-13291485D02*
X73309523Y-13291485D01*
X39833333Y-23929580D02*
X39785714Y-23977200D01*
X39785714Y-23977200D02*
X39642857Y-24024819D01*
X39642857Y-24024819D02*
X39547619Y-24024819D01*
X39547619Y-24024819D02*
X39404762Y-23977200D01*
X39404762Y-23977200D02*
X39309524Y-23881961D01*
X39309524Y-23881961D02*
X39261905Y-23786723D01*
X39261905Y-23786723D02*
X39214286Y-23596247D01*
X39214286Y-23596247D02*
X39214286Y-23453390D01*
X39214286Y-23453390D02*
X39261905Y-23262914D01*
X39261905Y-23262914D02*
X39309524Y-23167676D01*
X39309524Y-23167676D02*
X39404762Y-23072438D01*
X39404762Y-23072438D02*
X39547619Y-23024819D01*
X39547619Y-23024819D02*
X39642857Y-23024819D01*
X39642857Y-23024819D02*
X39785714Y-23072438D01*
X39785714Y-23072438D02*
X39833333Y-23120057D01*
X40738095Y-23024819D02*
X40261905Y-23024819D01*
X40261905Y-23024819D02*
X40214286Y-23501009D01*
X40214286Y-23501009D02*
X40261905Y-23453390D01*
X40261905Y-23453390D02*
X40357143Y-23405771D01*
X40357143Y-23405771D02*
X40595238Y-23405771D01*
X40595238Y-23405771D02*
X40690476Y-23453390D01*
X40690476Y-23453390D02*
X40738095Y-23501009D01*
X40738095Y-23501009D02*
X40785714Y-23596247D01*
X40785714Y-23596247D02*
X40785714Y-23834342D01*
X40785714Y-23834342D02*
X40738095Y-23929580D01*
X40738095Y-23929580D02*
X40690476Y-23977200D01*
X40690476Y-23977200D02*
X40595238Y-24024819D01*
X40595238Y-24024819D02*
X40357143Y-24024819D01*
X40357143Y-24024819D02*
X40261905Y-23977200D01*
X40261905Y-23977200D02*
X40214286Y-23929580D01*
X51833333Y-31789580D02*
X51785714Y-31837200D01*
X51785714Y-31837200D02*
X51642857Y-31884819D01*
X51642857Y-31884819D02*
X51547619Y-31884819D01*
X51547619Y-31884819D02*
X51404762Y-31837200D01*
X51404762Y-31837200D02*
X51309524Y-31741961D01*
X51309524Y-31741961D02*
X51261905Y-31646723D01*
X51261905Y-31646723D02*
X51214286Y-31456247D01*
X51214286Y-31456247D02*
X51214286Y-31313390D01*
X51214286Y-31313390D02*
X51261905Y-31122914D01*
X51261905Y-31122914D02*
X51309524Y-31027676D01*
X51309524Y-31027676D02*
X51404762Y-30932438D01*
X51404762Y-30932438D02*
X51547619Y-30884819D01*
X51547619Y-30884819D02*
X51642857Y-30884819D01*
X51642857Y-30884819D02*
X51785714Y-30932438D01*
X51785714Y-30932438D02*
X51833333Y-30980057D01*
X52690476Y-30884819D02*
X52500000Y-30884819D01*
X52500000Y-30884819D02*
X52404762Y-30932438D01*
X52404762Y-30932438D02*
X52357143Y-30980057D01*
X52357143Y-30980057D02*
X52261905Y-31122914D01*
X52261905Y-31122914D02*
X52214286Y-31313390D01*
X52214286Y-31313390D02*
X52214286Y-31694342D01*
X52214286Y-31694342D02*
X52261905Y-31789580D01*
X52261905Y-31789580D02*
X52309524Y-31837200D01*
X52309524Y-31837200D02*
X52404762Y-31884819D01*
X52404762Y-31884819D02*
X52595238Y-31884819D01*
X52595238Y-31884819D02*
X52690476Y-31837200D01*
X52690476Y-31837200D02*
X52738095Y-31789580D01*
X52738095Y-31789580D02*
X52785714Y-31694342D01*
X52785714Y-31694342D02*
X52785714Y-31456247D01*
X52785714Y-31456247D02*
X52738095Y-31361009D01*
X52738095Y-31361009D02*
X52690476Y-31313390D01*
X52690476Y-31313390D02*
X52595238Y-31265771D01*
X52595238Y-31265771D02*
X52404762Y-31265771D01*
X52404762Y-31265771D02*
X52309524Y-31313390D01*
X52309524Y-31313390D02*
X52261905Y-31361009D01*
X52261905Y-31361009D02*
X52214286Y-31456247D01*
X162547619Y-6254819D02*
X162547619Y-5254819D01*
X162547619Y-5731009D02*
X163119047Y-5731009D01*
X163119047Y-6254819D02*
X163119047Y-5254819D01*
X163547619Y-5969104D02*
X164023809Y-5969104D01*
X163452381Y-6254819D02*
X163785714Y-5254819D01*
X163785714Y-5254819D02*
X164119047Y-6254819D01*
X164452381Y-6254819D02*
X164452381Y-5254819D01*
X164452381Y-5254819D02*
X164833333Y-5254819D01*
X164833333Y-5254819D02*
X164928571Y-5302438D01*
X164928571Y-5302438D02*
X164976190Y-5350057D01*
X164976190Y-5350057D02*
X165023809Y-5445295D01*
X165023809Y-5445295D02*
X165023809Y-5588152D01*
X165023809Y-5588152D02*
X164976190Y-5683390D01*
X164976190Y-5683390D02*
X164928571Y-5731009D01*
X164928571Y-5731009D02*
X164833333Y-5778628D01*
X164833333Y-5778628D02*
X164452381Y-5778628D01*
X165214286Y-6350057D02*
X165976190Y-6350057D01*
X166214286Y-6254819D02*
X166214286Y-5254819D01*
X166214286Y-5254819D02*
X166547619Y-5969104D01*
X166547619Y-5969104D02*
X166880952Y-5254819D01*
X166880952Y-5254819D02*
X166880952Y-6254819D01*
X167547619Y-5254819D02*
X167738095Y-5254819D01*
X167738095Y-5254819D02*
X167833333Y-5302438D01*
X167833333Y-5302438D02*
X167928571Y-5397676D01*
X167928571Y-5397676D02*
X167976190Y-5588152D01*
X167976190Y-5588152D02*
X167976190Y-5921485D01*
X167976190Y-5921485D02*
X167928571Y-6111961D01*
X167928571Y-6111961D02*
X167833333Y-6207200D01*
X167833333Y-6207200D02*
X167738095Y-6254819D01*
X167738095Y-6254819D02*
X167547619Y-6254819D01*
X167547619Y-6254819D02*
X167452381Y-6207200D01*
X167452381Y-6207200D02*
X167357143Y-6111961D01*
X167357143Y-6111961D02*
X167309524Y-5921485D01*
X167309524Y-5921485D02*
X167309524Y-5588152D01*
X167309524Y-5588152D02*
X167357143Y-5397676D01*
X167357143Y-5397676D02*
X167452381Y-5302438D01*
X167452381Y-5302438D02*
X167547619Y-5254819D01*
X168261905Y-5254819D02*
X168833333Y-5254819D01*
X168547619Y-6254819D02*
X168547619Y-5254819D01*
X169357143Y-5254819D02*
X169547619Y-5254819D01*
X169547619Y-5254819D02*
X169642857Y-5302438D01*
X169642857Y-5302438D02*
X169738095Y-5397676D01*
X169738095Y-5397676D02*
X169785714Y-5588152D01*
X169785714Y-5588152D02*
X169785714Y-5921485D01*
X169785714Y-5921485D02*
X169738095Y-6111961D01*
X169738095Y-6111961D02*
X169642857Y-6207200D01*
X169642857Y-6207200D02*
X169547619Y-6254819D01*
X169547619Y-6254819D02*
X169357143Y-6254819D01*
X169357143Y-6254819D02*
X169261905Y-6207200D01*
X169261905Y-6207200D02*
X169166667Y-6111961D01*
X169166667Y-6111961D02*
X169119048Y-5921485D01*
X169119048Y-5921485D02*
X169119048Y-5588152D01*
X169119048Y-5588152D02*
X169166667Y-5397676D01*
X169166667Y-5397676D02*
X169261905Y-5302438D01*
X169261905Y-5302438D02*
X169357143Y-5254819D01*
X170785714Y-6254819D02*
X170452381Y-5778628D01*
X170214286Y-6254819D02*
X170214286Y-5254819D01*
X170214286Y-5254819D02*
X170595238Y-5254819D01*
X170595238Y-5254819D02*
X170690476Y-5302438D01*
X170690476Y-5302438D02*
X170738095Y-5350057D01*
X170738095Y-5350057D02*
X170785714Y-5445295D01*
X170785714Y-5445295D02*
X170785714Y-5588152D01*
X170785714Y-5588152D02*
X170738095Y-5683390D01*
X170738095Y-5683390D02*
X170690476Y-5731009D01*
X170690476Y-5731009D02*
X170595238Y-5778628D01*
X170595238Y-5778628D02*
X170214286Y-5778628D01*
X170976191Y-6350057D02*
X171738095Y-6350057D01*
X171976191Y-6254819D02*
X171976191Y-5254819D01*
X171976191Y-5254819D02*
X172547619Y-6254819D01*
X172547619Y-6254819D02*
X172547619Y-5254819D01*
X173023810Y-5731009D02*
X173357143Y-5731009D01*
X173500000Y-6254819D02*
X173023810Y-6254819D01*
X173023810Y-6254819D02*
X173023810Y-5254819D01*
X173023810Y-5254819D02*
X173500000Y-5254819D01*
X174452381Y-5302438D02*
X174357143Y-5254819D01*
X174357143Y-5254819D02*
X174214286Y-5254819D01*
X174214286Y-5254819D02*
X174071429Y-5302438D01*
X174071429Y-5302438D02*
X173976191Y-5397676D01*
X173976191Y-5397676D02*
X173928572Y-5492914D01*
X173928572Y-5492914D02*
X173880953Y-5683390D01*
X173880953Y-5683390D02*
X173880953Y-5826247D01*
X173880953Y-5826247D02*
X173928572Y-6016723D01*
X173928572Y-6016723D02*
X173976191Y-6111961D01*
X173976191Y-6111961D02*
X174071429Y-6207200D01*
X174071429Y-6207200D02*
X174214286Y-6254819D01*
X174214286Y-6254819D02*
X174309524Y-6254819D01*
X174309524Y-6254819D02*
X174452381Y-6207200D01*
X174452381Y-6207200D02*
X174500000Y-6159580D01*
X174500000Y-6159580D02*
X174500000Y-5826247D01*
X174500000Y-5826247D02*
X174309524Y-5826247D01*
X69257142Y-15284819D02*
X68923809Y-14808628D01*
X68685714Y-15284819D02*
X68685714Y-14284819D01*
X68685714Y-14284819D02*
X69066666Y-14284819D01*
X69066666Y-14284819D02*
X69161904Y-14332438D01*
X69161904Y-14332438D02*
X69209523Y-14380057D01*
X69209523Y-14380057D02*
X69257142Y-14475295D01*
X69257142Y-14475295D02*
X69257142Y-14618152D01*
X69257142Y-14618152D02*
X69209523Y-14713390D01*
X69209523Y-14713390D02*
X69161904Y-14761009D01*
X69161904Y-14761009D02*
X69066666Y-14808628D01*
X69066666Y-14808628D02*
X68685714Y-14808628D01*
X69590476Y-14284819D02*
X70209523Y-14284819D01*
X70209523Y-14284819D02*
X69876190Y-14665771D01*
X69876190Y-14665771D02*
X70019047Y-14665771D01*
X70019047Y-14665771D02*
X70114285Y-14713390D01*
X70114285Y-14713390D02*
X70161904Y-14761009D01*
X70161904Y-14761009D02*
X70209523Y-14856247D01*
X70209523Y-14856247D02*
X70209523Y-15094342D01*
X70209523Y-15094342D02*
X70161904Y-15189580D01*
X70161904Y-15189580D02*
X70114285Y-15237200D01*
X70114285Y-15237200D02*
X70019047Y-15284819D01*
X70019047Y-15284819D02*
X69733333Y-15284819D01*
X69733333Y-15284819D02*
X69638095Y-15237200D01*
X69638095Y-15237200D02*
X69590476Y-15189580D01*
X70590476Y-14380057D02*
X70638095Y-14332438D01*
X70638095Y-14332438D02*
X70733333Y-14284819D01*
X70733333Y-14284819D02*
X70971428Y-14284819D01*
X70971428Y-14284819D02*
X71066666Y-14332438D01*
X71066666Y-14332438D02*
X71114285Y-14380057D01*
X71114285Y-14380057D02*
X71161904Y-14475295D01*
X71161904Y-14475295D02*
X71161904Y-14570533D01*
X71161904Y-14570533D02*
X71114285Y-14713390D01*
X71114285Y-14713390D02*
X70542857Y-15284819D01*
X70542857Y-15284819D02*
X71161904Y-15284819D01*
X61157142Y-8999580D02*
X61109523Y-9047200D01*
X61109523Y-9047200D02*
X60966666Y-9094819D01*
X60966666Y-9094819D02*
X60871428Y-9094819D01*
X60871428Y-9094819D02*
X60728571Y-9047200D01*
X60728571Y-9047200D02*
X60633333Y-8951961D01*
X60633333Y-8951961D02*
X60585714Y-8856723D01*
X60585714Y-8856723D02*
X60538095Y-8666247D01*
X60538095Y-8666247D02*
X60538095Y-8523390D01*
X60538095Y-8523390D02*
X60585714Y-8332914D01*
X60585714Y-8332914D02*
X60633333Y-8237676D01*
X60633333Y-8237676D02*
X60728571Y-8142438D01*
X60728571Y-8142438D02*
X60871428Y-8094819D01*
X60871428Y-8094819D02*
X60966666Y-8094819D01*
X60966666Y-8094819D02*
X61109523Y-8142438D01*
X61109523Y-8142438D02*
X61157142Y-8190057D01*
X61538095Y-8190057D02*
X61585714Y-8142438D01*
X61585714Y-8142438D02*
X61680952Y-8094819D01*
X61680952Y-8094819D02*
X61919047Y-8094819D01*
X61919047Y-8094819D02*
X62014285Y-8142438D01*
X62014285Y-8142438D02*
X62061904Y-8190057D01*
X62061904Y-8190057D02*
X62109523Y-8285295D01*
X62109523Y-8285295D02*
X62109523Y-8380533D01*
X62109523Y-8380533D02*
X62061904Y-8523390D01*
X62061904Y-8523390D02*
X61490476Y-9094819D01*
X61490476Y-9094819D02*
X62109523Y-9094819D01*
X62728571Y-8094819D02*
X62823809Y-8094819D01*
X62823809Y-8094819D02*
X62919047Y-8142438D01*
X62919047Y-8142438D02*
X62966666Y-8190057D01*
X62966666Y-8190057D02*
X63014285Y-8285295D01*
X63014285Y-8285295D02*
X63061904Y-8475771D01*
X63061904Y-8475771D02*
X63061904Y-8713866D01*
X63061904Y-8713866D02*
X63014285Y-8904342D01*
X63014285Y-8904342D02*
X62966666Y-8999580D01*
X62966666Y-8999580D02*
X62919047Y-9047200D01*
X62919047Y-9047200D02*
X62823809Y-9094819D01*
X62823809Y-9094819D02*
X62728571Y-9094819D01*
X62728571Y-9094819D02*
X62633333Y-9047200D01*
X62633333Y-9047200D02*
X62585714Y-8999580D01*
X62585714Y-8999580D02*
X62538095Y-8904342D01*
X62538095Y-8904342D02*
X62490476Y-8713866D01*
X62490476Y-8713866D02*
X62490476Y-8475771D01*
X62490476Y-8475771D02*
X62538095Y-8285295D01*
X62538095Y-8285295D02*
X62585714Y-8190057D01*
X62585714Y-8190057D02*
X62633333Y-8142438D01*
X62633333Y-8142438D02*
X62728571Y-8094819D01*
X23833333Y-11284819D02*
X23500000Y-10808628D01*
X23261905Y-11284819D02*
X23261905Y-10284819D01*
X23261905Y-10284819D02*
X23642857Y-10284819D01*
X23642857Y-10284819D02*
X23738095Y-10332438D01*
X23738095Y-10332438D02*
X23785714Y-10380057D01*
X23785714Y-10380057D02*
X23833333Y-10475295D01*
X23833333Y-10475295D02*
X23833333Y-10618152D01*
X23833333Y-10618152D02*
X23785714Y-10713390D01*
X23785714Y-10713390D02*
X23738095Y-10761009D01*
X23738095Y-10761009D02*
X23642857Y-10808628D01*
X23642857Y-10808628D02*
X23261905Y-10808628D01*
X24166667Y-10284819D02*
X24785714Y-10284819D01*
X24785714Y-10284819D02*
X24452381Y-10665771D01*
X24452381Y-10665771D02*
X24595238Y-10665771D01*
X24595238Y-10665771D02*
X24690476Y-10713390D01*
X24690476Y-10713390D02*
X24738095Y-10761009D01*
X24738095Y-10761009D02*
X24785714Y-10856247D01*
X24785714Y-10856247D02*
X24785714Y-11094342D01*
X24785714Y-11094342D02*
X24738095Y-11189580D01*
X24738095Y-11189580D02*
X24690476Y-11237200D01*
X24690476Y-11237200D02*
X24595238Y-11284819D01*
X24595238Y-11284819D02*
X24309524Y-11284819D01*
X24309524Y-11284819D02*
X24214286Y-11237200D01*
X24214286Y-11237200D02*
X24166667Y-11189580D01*
X46333333Y-24199580D02*
X46285714Y-24247200D01*
X46285714Y-24247200D02*
X46142857Y-24294819D01*
X46142857Y-24294819D02*
X46047619Y-24294819D01*
X46047619Y-24294819D02*
X45904762Y-24247200D01*
X45904762Y-24247200D02*
X45809524Y-24151961D01*
X45809524Y-24151961D02*
X45761905Y-24056723D01*
X45761905Y-24056723D02*
X45714286Y-23866247D01*
X45714286Y-23866247D02*
X45714286Y-23723390D01*
X45714286Y-23723390D02*
X45761905Y-23532914D01*
X45761905Y-23532914D02*
X45809524Y-23437676D01*
X45809524Y-23437676D02*
X45904762Y-23342438D01*
X45904762Y-23342438D02*
X46047619Y-23294819D01*
X46047619Y-23294819D02*
X46142857Y-23294819D01*
X46142857Y-23294819D02*
X46285714Y-23342438D01*
X46285714Y-23342438D02*
X46333333Y-23390057D01*
X46666667Y-23294819D02*
X47333333Y-23294819D01*
X47333333Y-23294819D02*
X46904762Y-24294819D01*
X71238095Y-16124819D02*
X71238095Y-16934342D01*
X71238095Y-16934342D02*
X71285714Y-17029580D01*
X71285714Y-17029580D02*
X71333333Y-17077200D01*
X71333333Y-17077200D02*
X71428571Y-17124819D01*
X71428571Y-17124819D02*
X71619047Y-17124819D01*
X71619047Y-17124819D02*
X71714285Y-17077200D01*
X71714285Y-17077200D02*
X71761904Y-17029580D01*
X71761904Y-17029580D02*
X71809523Y-16934342D01*
X71809523Y-16934342D02*
X71809523Y-16124819D01*
X72714285Y-16124819D02*
X72523809Y-16124819D01*
X72523809Y-16124819D02*
X72428571Y-16172438D01*
X72428571Y-16172438D02*
X72380952Y-16220057D01*
X72380952Y-16220057D02*
X72285714Y-16362914D01*
X72285714Y-16362914D02*
X72238095Y-16553390D01*
X72238095Y-16553390D02*
X72238095Y-16934342D01*
X72238095Y-16934342D02*
X72285714Y-17029580D01*
X72285714Y-17029580D02*
X72333333Y-17077200D01*
X72333333Y-17077200D02*
X72428571Y-17124819D01*
X72428571Y-17124819D02*
X72619047Y-17124819D01*
X72619047Y-17124819D02*
X72714285Y-17077200D01*
X72714285Y-17077200D02*
X72761904Y-17029580D01*
X72761904Y-17029580D02*
X72809523Y-16934342D01*
X72809523Y-16934342D02*
X72809523Y-16696247D01*
X72809523Y-16696247D02*
X72761904Y-16601009D01*
X72761904Y-16601009D02*
X72714285Y-16553390D01*
X72714285Y-16553390D02*
X72619047Y-16505771D01*
X72619047Y-16505771D02*
X72428571Y-16505771D01*
X72428571Y-16505771D02*
X72333333Y-16553390D01*
X72333333Y-16553390D02*
X72285714Y-16601009D01*
X72285714Y-16601009D02*
X72238095Y-16696247D01*
X61157142Y-20999580D02*
X61109523Y-21047200D01*
X61109523Y-21047200D02*
X60966666Y-21094819D01*
X60966666Y-21094819D02*
X60871428Y-21094819D01*
X60871428Y-21094819D02*
X60728571Y-21047200D01*
X60728571Y-21047200D02*
X60633333Y-20951961D01*
X60633333Y-20951961D02*
X60585714Y-20856723D01*
X60585714Y-20856723D02*
X60538095Y-20666247D01*
X60538095Y-20666247D02*
X60538095Y-20523390D01*
X60538095Y-20523390D02*
X60585714Y-20332914D01*
X60585714Y-20332914D02*
X60633333Y-20237676D01*
X60633333Y-20237676D02*
X60728571Y-20142438D01*
X60728571Y-20142438D02*
X60871428Y-20094819D01*
X60871428Y-20094819D02*
X60966666Y-20094819D01*
X60966666Y-20094819D02*
X61109523Y-20142438D01*
X61109523Y-20142438D02*
X61157142Y-20190057D01*
X61490476Y-20094819D02*
X62109523Y-20094819D01*
X62109523Y-20094819D02*
X61776190Y-20475771D01*
X61776190Y-20475771D02*
X61919047Y-20475771D01*
X61919047Y-20475771D02*
X62014285Y-20523390D01*
X62014285Y-20523390D02*
X62061904Y-20571009D01*
X62061904Y-20571009D02*
X62109523Y-20666247D01*
X62109523Y-20666247D02*
X62109523Y-20904342D01*
X62109523Y-20904342D02*
X62061904Y-20999580D01*
X62061904Y-20999580D02*
X62014285Y-21047200D01*
X62014285Y-21047200D02*
X61919047Y-21094819D01*
X61919047Y-21094819D02*
X61633333Y-21094819D01*
X61633333Y-21094819D02*
X61538095Y-21047200D01*
X61538095Y-21047200D02*
X61490476Y-20999580D01*
X62728571Y-20094819D02*
X62823809Y-20094819D01*
X62823809Y-20094819D02*
X62919047Y-20142438D01*
X62919047Y-20142438D02*
X62966666Y-20190057D01*
X62966666Y-20190057D02*
X63014285Y-20285295D01*
X63014285Y-20285295D02*
X63061904Y-20475771D01*
X63061904Y-20475771D02*
X63061904Y-20713866D01*
X63061904Y-20713866D02*
X63014285Y-20904342D01*
X63014285Y-20904342D02*
X62966666Y-20999580D01*
X62966666Y-20999580D02*
X62919047Y-21047200D01*
X62919047Y-21047200D02*
X62823809Y-21094819D01*
X62823809Y-21094819D02*
X62728571Y-21094819D01*
X62728571Y-21094819D02*
X62633333Y-21047200D01*
X62633333Y-21047200D02*
X62585714Y-20999580D01*
X62585714Y-20999580D02*
X62538095Y-20904342D01*
X62538095Y-20904342D02*
X62490476Y-20713866D01*
X62490476Y-20713866D02*
X62490476Y-20475771D01*
X62490476Y-20475771D02*
X62538095Y-20285295D01*
X62538095Y-20285295D02*
X62585714Y-20190057D01*
X62585714Y-20190057D02*
X62633333Y-20142438D01*
X62633333Y-20142438D02*
X62728571Y-20094819D01*
X166357142Y-34284819D02*
X166023809Y-33808628D01*
X165785714Y-34284819D02*
X165785714Y-33284819D01*
X165785714Y-33284819D02*
X166166666Y-33284819D01*
X166166666Y-33284819D02*
X166261904Y-33332438D01*
X166261904Y-33332438D02*
X166309523Y-33380057D01*
X166309523Y-33380057D02*
X166357142Y-33475295D01*
X166357142Y-33475295D02*
X166357142Y-33618152D01*
X166357142Y-33618152D02*
X166309523Y-33713390D01*
X166309523Y-33713390D02*
X166261904Y-33761009D01*
X166261904Y-33761009D02*
X166166666Y-33808628D01*
X166166666Y-33808628D02*
X165785714Y-33808628D01*
X167214285Y-33284819D02*
X167023809Y-33284819D01*
X167023809Y-33284819D02*
X166928571Y-33332438D01*
X166928571Y-33332438D02*
X166880952Y-33380057D01*
X166880952Y-33380057D02*
X166785714Y-33522914D01*
X166785714Y-33522914D02*
X166738095Y-33713390D01*
X166738095Y-33713390D02*
X166738095Y-34094342D01*
X166738095Y-34094342D02*
X166785714Y-34189580D01*
X166785714Y-34189580D02*
X166833333Y-34237200D01*
X166833333Y-34237200D02*
X166928571Y-34284819D01*
X166928571Y-34284819D02*
X167119047Y-34284819D01*
X167119047Y-34284819D02*
X167214285Y-34237200D01*
X167214285Y-34237200D02*
X167261904Y-34189580D01*
X167261904Y-34189580D02*
X167309523Y-34094342D01*
X167309523Y-34094342D02*
X167309523Y-33856247D01*
X167309523Y-33856247D02*
X167261904Y-33761009D01*
X167261904Y-33761009D02*
X167214285Y-33713390D01*
X167214285Y-33713390D02*
X167119047Y-33665771D01*
X167119047Y-33665771D02*
X166928571Y-33665771D01*
X166928571Y-33665771D02*
X166833333Y-33713390D01*
X166833333Y-33713390D02*
X166785714Y-33761009D01*
X166785714Y-33761009D02*
X166738095Y-33856247D01*
X167642857Y-33284819D02*
X168261904Y-33284819D01*
X168261904Y-33284819D02*
X167928571Y-33665771D01*
X167928571Y-33665771D02*
X168071428Y-33665771D01*
X168071428Y-33665771D02*
X168166666Y-33713390D01*
X168166666Y-33713390D02*
X168214285Y-33761009D01*
X168214285Y-33761009D02*
X168261904Y-33856247D01*
X168261904Y-33856247D02*
X168261904Y-34094342D01*
X168261904Y-34094342D02*
X168214285Y-34189580D01*
X168214285Y-34189580D02*
X168166666Y-34237200D01*
X168166666Y-34237200D02*
X168071428Y-34284819D01*
X168071428Y-34284819D02*
X167785714Y-34284819D01*
X167785714Y-34284819D02*
X167690476Y-34237200D01*
X167690476Y-34237200D02*
X167642857Y-34189580D01*
X65357142Y-41484819D02*
X65023809Y-41008628D01*
X64785714Y-41484819D02*
X64785714Y-40484819D01*
X64785714Y-40484819D02*
X65166666Y-40484819D01*
X65166666Y-40484819D02*
X65261904Y-40532438D01*
X65261904Y-40532438D02*
X65309523Y-40580057D01*
X65309523Y-40580057D02*
X65357142Y-40675295D01*
X65357142Y-40675295D02*
X65357142Y-40818152D01*
X65357142Y-40818152D02*
X65309523Y-40913390D01*
X65309523Y-40913390D02*
X65261904Y-40961009D01*
X65261904Y-40961009D02*
X65166666Y-41008628D01*
X65166666Y-41008628D02*
X64785714Y-41008628D01*
X66261904Y-40484819D02*
X65785714Y-40484819D01*
X65785714Y-40484819D02*
X65738095Y-40961009D01*
X65738095Y-40961009D02*
X65785714Y-40913390D01*
X65785714Y-40913390D02*
X65880952Y-40865771D01*
X65880952Y-40865771D02*
X66119047Y-40865771D01*
X66119047Y-40865771D02*
X66214285Y-40913390D01*
X66214285Y-40913390D02*
X66261904Y-40961009D01*
X66261904Y-40961009D02*
X66309523Y-41056247D01*
X66309523Y-41056247D02*
X66309523Y-41294342D01*
X66309523Y-41294342D02*
X66261904Y-41389580D01*
X66261904Y-41389580D02*
X66214285Y-41437200D01*
X66214285Y-41437200D02*
X66119047Y-41484819D01*
X66119047Y-41484819D02*
X65880952Y-41484819D01*
X65880952Y-41484819D02*
X65785714Y-41437200D01*
X65785714Y-41437200D02*
X65738095Y-41389580D01*
X67261904Y-41484819D02*
X66690476Y-41484819D01*
X66976190Y-41484819D02*
X66976190Y-40484819D01*
X66976190Y-40484819D02*
X66880952Y-40627676D01*
X66880952Y-40627676D02*
X66785714Y-40722914D01*
X66785714Y-40722914D02*
X66690476Y-40770533D01*
X5666666Y-18809819D02*
X5666666Y-19524104D01*
X5666666Y-19524104D02*
X5619047Y-19666961D01*
X5619047Y-19666961D02*
X5523809Y-19762200D01*
X5523809Y-19762200D02*
X5380952Y-19809819D01*
X5380952Y-19809819D02*
X5285714Y-19809819D01*
X6666666Y-19809819D02*
X6095238Y-19809819D01*
X6380952Y-19809819D02*
X6380952Y-18809819D01*
X6380952Y-18809819D02*
X6285714Y-18952676D01*
X6285714Y-18952676D02*
X6190476Y-19047914D01*
X6190476Y-19047914D02*
X6095238Y-19095533D01*
X164357142Y-14284819D02*
X164023809Y-13808628D01*
X163785714Y-14284819D02*
X163785714Y-13284819D01*
X163785714Y-13284819D02*
X164166666Y-13284819D01*
X164166666Y-13284819D02*
X164261904Y-13332438D01*
X164261904Y-13332438D02*
X164309523Y-13380057D01*
X164309523Y-13380057D02*
X164357142Y-13475295D01*
X164357142Y-13475295D02*
X164357142Y-13618152D01*
X164357142Y-13618152D02*
X164309523Y-13713390D01*
X164309523Y-13713390D02*
X164261904Y-13761009D01*
X164261904Y-13761009D02*
X164166666Y-13808628D01*
X164166666Y-13808628D02*
X163785714Y-13808628D01*
X165214285Y-13284819D02*
X165023809Y-13284819D01*
X165023809Y-13284819D02*
X164928571Y-13332438D01*
X164928571Y-13332438D02*
X164880952Y-13380057D01*
X164880952Y-13380057D02*
X164785714Y-13522914D01*
X164785714Y-13522914D02*
X164738095Y-13713390D01*
X164738095Y-13713390D02*
X164738095Y-14094342D01*
X164738095Y-14094342D02*
X164785714Y-14189580D01*
X164785714Y-14189580D02*
X164833333Y-14237200D01*
X164833333Y-14237200D02*
X164928571Y-14284819D01*
X164928571Y-14284819D02*
X165119047Y-14284819D01*
X165119047Y-14284819D02*
X165214285Y-14237200D01*
X165214285Y-14237200D02*
X165261904Y-14189580D01*
X165261904Y-14189580D02*
X165309523Y-14094342D01*
X165309523Y-14094342D02*
X165309523Y-13856247D01*
X165309523Y-13856247D02*
X165261904Y-13761009D01*
X165261904Y-13761009D02*
X165214285Y-13713390D01*
X165214285Y-13713390D02*
X165119047Y-13665771D01*
X165119047Y-13665771D02*
X164928571Y-13665771D01*
X164928571Y-13665771D02*
X164833333Y-13713390D01*
X164833333Y-13713390D02*
X164785714Y-13761009D01*
X164785714Y-13761009D02*
X164738095Y-13856247D01*
X166166666Y-13284819D02*
X165976190Y-13284819D01*
X165976190Y-13284819D02*
X165880952Y-13332438D01*
X165880952Y-13332438D02*
X165833333Y-13380057D01*
X165833333Y-13380057D02*
X165738095Y-13522914D01*
X165738095Y-13522914D02*
X165690476Y-13713390D01*
X165690476Y-13713390D02*
X165690476Y-14094342D01*
X165690476Y-14094342D02*
X165738095Y-14189580D01*
X165738095Y-14189580D02*
X165785714Y-14237200D01*
X165785714Y-14237200D02*
X165880952Y-14284819D01*
X165880952Y-14284819D02*
X166071428Y-14284819D01*
X166071428Y-14284819D02*
X166166666Y-14237200D01*
X166166666Y-14237200D02*
X166214285Y-14189580D01*
X166214285Y-14189580D02*
X166261904Y-14094342D01*
X166261904Y-14094342D02*
X166261904Y-13856247D01*
X166261904Y-13856247D02*
X166214285Y-13761009D01*
X166214285Y-13761009D02*
X166166666Y-13713390D01*
X166166666Y-13713390D02*
X166071428Y-13665771D01*
X166071428Y-13665771D02*
X165880952Y-13665771D01*
X165880952Y-13665771D02*
X165785714Y-13713390D01*
X165785714Y-13713390D02*
X165738095Y-13761009D01*
X165738095Y-13761009D02*
X165690476Y-13856247D01*
X74957142Y-22559580D02*
X74909523Y-22607200D01*
X74909523Y-22607200D02*
X74766666Y-22654819D01*
X74766666Y-22654819D02*
X74671428Y-22654819D01*
X74671428Y-22654819D02*
X74528571Y-22607200D01*
X74528571Y-22607200D02*
X74433333Y-22511961D01*
X74433333Y-22511961D02*
X74385714Y-22416723D01*
X74385714Y-22416723D02*
X74338095Y-22226247D01*
X74338095Y-22226247D02*
X74338095Y-22083390D01*
X74338095Y-22083390D02*
X74385714Y-21892914D01*
X74385714Y-21892914D02*
X74433333Y-21797676D01*
X74433333Y-21797676D02*
X74528571Y-21702438D01*
X74528571Y-21702438D02*
X74671428Y-21654819D01*
X74671428Y-21654819D02*
X74766666Y-21654819D01*
X74766666Y-21654819D02*
X74909523Y-21702438D01*
X74909523Y-21702438D02*
X74957142Y-21750057D01*
X75290476Y-21654819D02*
X75909523Y-21654819D01*
X75909523Y-21654819D02*
X75576190Y-22035771D01*
X75576190Y-22035771D02*
X75719047Y-22035771D01*
X75719047Y-22035771D02*
X75814285Y-22083390D01*
X75814285Y-22083390D02*
X75861904Y-22131009D01*
X75861904Y-22131009D02*
X75909523Y-22226247D01*
X75909523Y-22226247D02*
X75909523Y-22464342D01*
X75909523Y-22464342D02*
X75861904Y-22559580D01*
X75861904Y-22559580D02*
X75814285Y-22607200D01*
X75814285Y-22607200D02*
X75719047Y-22654819D01*
X75719047Y-22654819D02*
X75433333Y-22654819D01*
X75433333Y-22654819D02*
X75338095Y-22607200D01*
X75338095Y-22607200D02*
X75290476Y-22559580D01*
X76290476Y-21750057D02*
X76338095Y-21702438D01*
X76338095Y-21702438D02*
X76433333Y-21654819D01*
X76433333Y-21654819D02*
X76671428Y-21654819D01*
X76671428Y-21654819D02*
X76766666Y-21702438D01*
X76766666Y-21702438D02*
X76814285Y-21750057D01*
X76814285Y-21750057D02*
X76861904Y-21845295D01*
X76861904Y-21845295D02*
X76861904Y-21940533D01*
X76861904Y-21940533D02*
X76814285Y-22083390D01*
X76814285Y-22083390D02*
X76242857Y-22654819D01*
X76242857Y-22654819D02*
X76861904Y-22654819D01*
X51238095Y-19954819D02*
X51238095Y-20764342D01*
X51238095Y-20764342D02*
X51285714Y-20859580D01*
X51285714Y-20859580D02*
X51333333Y-20907200D01*
X51333333Y-20907200D02*
X51428571Y-20954819D01*
X51428571Y-20954819D02*
X51619047Y-20954819D01*
X51619047Y-20954819D02*
X51714285Y-20907200D01*
X51714285Y-20907200D02*
X51761904Y-20859580D01*
X51761904Y-20859580D02*
X51809523Y-20764342D01*
X51809523Y-20764342D02*
X51809523Y-19954819D01*
X52714285Y-20288152D02*
X52714285Y-20954819D01*
X52476190Y-19907200D02*
X52238095Y-20621485D01*
X52238095Y-20621485D02*
X52857142Y-20621485D01*
X164357142Y-17284819D02*
X164023809Y-16808628D01*
X163785714Y-17284819D02*
X163785714Y-16284819D01*
X163785714Y-16284819D02*
X164166666Y-16284819D01*
X164166666Y-16284819D02*
X164261904Y-16332438D01*
X164261904Y-16332438D02*
X164309523Y-16380057D01*
X164309523Y-16380057D02*
X164357142Y-16475295D01*
X164357142Y-16475295D02*
X164357142Y-16618152D01*
X164357142Y-16618152D02*
X164309523Y-16713390D01*
X164309523Y-16713390D02*
X164261904Y-16761009D01*
X164261904Y-16761009D02*
X164166666Y-16808628D01*
X164166666Y-16808628D02*
X163785714Y-16808628D01*
X165214285Y-16284819D02*
X165023809Y-16284819D01*
X165023809Y-16284819D02*
X164928571Y-16332438D01*
X164928571Y-16332438D02*
X164880952Y-16380057D01*
X164880952Y-16380057D02*
X164785714Y-16522914D01*
X164785714Y-16522914D02*
X164738095Y-16713390D01*
X164738095Y-16713390D02*
X164738095Y-17094342D01*
X164738095Y-17094342D02*
X164785714Y-17189580D01*
X164785714Y-17189580D02*
X164833333Y-17237200D01*
X164833333Y-17237200D02*
X164928571Y-17284819D01*
X164928571Y-17284819D02*
X165119047Y-17284819D01*
X165119047Y-17284819D02*
X165214285Y-17237200D01*
X165214285Y-17237200D02*
X165261904Y-17189580D01*
X165261904Y-17189580D02*
X165309523Y-17094342D01*
X165309523Y-17094342D02*
X165309523Y-16856247D01*
X165309523Y-16856247D02*
X165261904Y-16761009D01*
X165261904Y-16761009D02*
X165214285Y-16713390D01*
X165214285Y-16713390D02*
X165119047Y-16665771D01*
X165119047Y-16665771D02*
X164928571Y-16665771D01*
X164928571Y-16665771D02*
X164833333Y-16713390D01*
X164833333Y-16713390D02*
X164785714Y-16761009D01*
X164785714Y-16761009D02*
X164738095Y-16856247D01*
X165642857Y-16284819D02*
X166309523Y-16284819D01*
X166309523Y-16284819D02*
X165880952Y-17284819D01*
X74957142Y-10559580D02*
X74909523Y-10607200D01*
X74909523Y-10607200D02*
X74766666Y-10654819D01*
X74766666Y-10654819D02*
X74671428Y-10654819D01*
X74671428Y-10654819D02*
X74528571Y-10607200D01*
X74528571Y-10607200D02*
X74433333Y-10511961D01*
X74433333Y-10511961D02*
X74385714Y-10416723D01*
X74385714Y-10416723D02*
X74338095Y-10226247D01*
X74338095Y-10226247D02*
X74338095Y-10083390D01*
X74338095Y-10083390D02*
X74385714Y-9892914D01*
X74385714Y-9892914D02*
X74433333Y-9797676D01*
X74433333Y-9797676D02*
X74528571Y-9702438D01*
X74528571Y-9702438D02*
X74671428Y-9654819D01*
X74671428Y-9654819D02*
X74766666Y-9654819D01*
X74766666Y-9654819D02*
X74909523Y-9702438D01*
X74909523Y-9702438D02*
X74957142Y-9750057D01*
X75338095Y-9750057D02*
X75385714Y-9702438D01*
X75385714Y-9702438D02*
X75480952Y-9654819D01*
X75480952Y-9654819D02*
X75719047Y-9654819D01*
X75719047Y-9654819D02*
X75814285Y-9702438D01*
X75814285Y-9702438D02*
X75861904Y-9750057D01*
X75861904Y-9750057D02*
X75909523Y-9845295D01*
X75909523Y-9845295D02*
X75909523Y-9940533D01*
X75909523Y-9940533D02*
X75861904Y-10083390D01*
X75861904Y-10083390D02*
X75290476Y-10654819D01*
X75290476Y-10654819D02*
X75909523Y-10654819D01*
X76290476Y-9750057D02*
X76338095Y-9702438D01*
X76338095Y-9702438D02*
X76433333Y-9654819D01*
X76433333Y-9654819D02*
X76671428Y-9654819D01*
X76671428Y-9654819D02*
X76766666Y-9702438D01*
X76766666Y-9702438D02*
X76814285Y-9750057D01*
X76814285Y-9750057D02*
X76861904Y-9845295D01*
X76861904Y-9845295D02*
X76861904Y-9940533D01*
X76861904Y-9940533D02*
X76814285Y-10083390D01*
X76814285Y-10083390D02*
X76242857Y-10654819D01*
X76242857Y-10654819D02*
X76861904Y-10654819D01*
X6833333Y-30284819D02*
X6500000Y-29808628D01*
X6261905Y-30284819D02*
X6261905Y-29284819D01*
X6261905Y-29284819D02*
X6642857Y-29284819D01*
X6642857Y-29284819D02*
X6738095Y-29332438D01*
X6738095Y-29332438D02*
X6785714Y-29380057D01*
X6785714Y-29380057D02*
X6833333Y-29475295D01*
X6833333Y-29475295D02*
X6833333Y-29618152D01*
X6833333Y-29618152D02*
X6785714Y-29713390D01*
X6785714Y-29713390D02*
X6738095Y-29761009D01*
X6738095Y-29761009D02*
X6642857Y-29808628D01*
X6642857Y-29808628D02*
X6261905Y-29808628D01*
X7214286Y-29380057D02*
X7261905Y-29332438D01*
X7261905Y-29332438D02*
X7357143Y-29284819D01*
X7357143Y-29284819D02*
X7595238Y-29284819D01*
X7595238Y-29284819D02*
X7690476Y-29332438D01*
X7690476Y-29332438D02*
X7738095Y-29380057D01*
X7738095Y-29380057D02*
X7785714Y-29475295D01*
X7785714Y-29475295D02*
X7785714Y-29570533D01*
X7785714Y-29570533D02*
X7738095Y-29713390D01*
X7738095Y-29713390D02*
X7166667Y-30284819D01*
X7166667Y-30284819D02*
X7785714Y-30284819D01*
X178357142Y-36454819D02*
X178023809Y-35978628D01*
X177785714Y-36454819D02*
X177785714Y-35454819D01*
X177785714Y-35454819D02*
X178166666Y-35454819D01*
X178166666Y-35454819D02*
X178261904Y-35502438D01*
X178261904Y-35502438D02*
X178309523Y-35550057D01*
X178309523Y-35550057D02*
X178357142Y-35645295D01*
X178357142Y-35645295D02*
X178357142Y-35788152D01*
X178357142Y-35788152D02*
X178309523Y-35883390D01*
X178309523Y-35883390D02*
X178261904Y-35931009D01*
X178261904Y-35931009D02*
X178166666Y-35978628D01*
X178166666Y-35978628D02*
X177785714Y-35978628D01*
X179214285Y-35454819D02*
X179023809Y-35454819D01*
X179023809Y-35454819D02*
X178928571Y-35502438D01*
X178928571Y-35502438D02*
X178880952Y-35550057D01*
X178880952Y-35550057D02*
X178785714Y-35692914D01*
X178785714Y-35692914D02*
X178738095Y-35883390D01*
X178738095Y-35883390D02*
X178738095Y-36264342D01*
X178738095Y-36264342D02*
X178785714Y-36359580D01*
X178785714Y-36359580D02*
X178833333Y-36407200D01*
X178833333Y-36407200D02*
X178928571Y-36454819D01*
X178928571Y-36454819D02*
X179119047Y-36454819D01*
X179119047Y-36454819D02*
X179214285Y-36407200D01*
X179214285Y-36407200D02*
X179261904Y-36359580D01*
X179261904Y-36359580D02*
X179309523Y-36264342D01*
X179309523Y-36264342D02*
X179309523Y-36026247D01*
X179309523Y-36026247D02*
X179261904Y-35931009D01*
X179261904Y-35931009D02*
X179214285Y-35883390D01*
X179214285Y-35883390D02*
X179119047Y-35835771D01*
X179119047Y-35835771D02*
X178928571Y-35835771D01*
X178928571Y-35835771D02*
X178833333Y-35883390D01*
X178833333Y-35883390D02*
X178785714Y-35931009D01*
X178785714Y-35931009D02*
X178738095Y-36026247D01*
X179880952Y-35883390D02*
X179785714Y-35835771D01*
X179785714Y-35835771D02*
X179738095Y-35788152D01*
X179738095Y-35788152D02*
X179690476Y-35692914D01*
X179690476Y-35692914D02*
X179690476Y-35645295D01*
X179690476Y-35645295D02*
X179738095Y-35550057D01*
X179738095Y-35550057D02*
X179785714Y-35502438D01*
X179785714Y-35502438D02*
X179880952Y-35454819D01*
X179880952Y-35454819D02*
X180071428Y-35454819D01*
X180071428Y-35454819D02*
X180166666Y-35502438D01*
X180166666Y-35502438D02*
X180214285Y-35550057D01*
X180214285Y-35550057D02*
X180261904Y-35645295D01*
X180261904Y-35645295D02*
X180261904Y-35692914D01*
X180261904Y-35692914D02*
X180214285Y-35788152D01*
X180214285Y-35788152D02*
X180166666Y-35835771D01*
X180166666Y-35835771D02*
X180071428Y-35883390D01*
X180071428Y-35883390D02*
X179880952Y-35883390D01*
X179880952Y-35883390D02*
X179785714Y-35931009D01*
X179785714Y-35931009D02*
X179738095Y-35978628D01*
X179738095Y-35978628D02*
X179690476Y-36073866D01*
X179690476Y-36073866D02*
X179690476Y-36264342D01*
X179690476Y-36264342D02*
X179738095Y-36359580D01*
X179738095Y-36359580D02*
X179785714Y-36407200D01*
X179785714Y-36407200D02*
X179880952Y-36454819D01*
X179880952Y-36454819D02*
X180071428Y-36454819D01*
X180071428Y-36454819D02*
X180166666Y-36407200D01*
X180166666Y-36407200D02*
X180214285Y-36359580D01*
X180214285Y-36359580D02*
X180261904Y-36264342D01*
X180261904Y-36264342D02*
X180261904Y-36073866D01*
X180261904Y-36073866D02*
X180214285Y-35978628D01*
X180214285Y-35978628D02*
X180166666Y-35931009D01*
X180166666Y-35931009D02*
X180071428Y-35883390D01*
X23133333Y-15519580D02*
X23085714Y-15567200D01*
X23085714Y-15567200D02*
X22942857Y-15614819D01*
X22942857Y-15614819D02*
X22847619Y-15614819D01*
X22847619Y-15614819D02*
X22704762Y-15567200D01*
X22704762Y-15567200D02*
X22609524Y-15471961D01*
X22609524Y-15471961D02*
X22561905Y-15376723D01*
X22561905Y-15376723D02*
X22514286Y-15186247D01*
X22514286Y-15186247D02*
X22514286Y-15043390D01*
X22514286Y-15043390D02*
X22561905Y-14852914D01*
X22561905Y-14852914D02*
X22609524Y-14757676D01*
X22609524Y-14757676D02*
X22704762Y-14662438D01*
X22704762Y-14662438D02*
X22847619Y-14614819D01*
X22847619Y-14614819D02*
X22942857Y-14614819D01*
X22942857Y-14614819D02*
X23085714Y-14662438D01*
X23085714Y-14662438D02*
X23133333Y-14710057D01*
X23514286Y-14710057D02*
X23561905Y-14662438D01*
X23561905Y-14662438D02*
X23657143Y-14614819D01*
X23657143Y-14614819D02*
X23895238Y-14614819D01*
X23895238Y-14614819D02*
X23990476Y-14662438D01*
X23990476Y-14662438D02*
X24038095Y-14710057D01*
X24038095Y-14710057D02*
X24085714Y-14805295D01*
X24085714Y-14805295D02*
X24085714Y-14900533D01*
X24085714Y-14900533D02*
X24038095Y-15043390D01*
X24038095Y-15043390D02*
X23466667Y-15614819D01*
X23466667Y-15614819D02*
X24085714Y-15614819D01*
X61157142Y-17484819D02*
X60823809Y-17008628D01*
X60585714Y-17484819D02*
X60585714Y-16484819D01*
X60585714Y-16484819D02*
X60966666Y-16484819D01*
X60966666Y-16484819D02*
X61061904Y-16532438D01*
X61061904Y-16532438D02*
X61109523Y-16580057D01*
X61109523Y-16580057D02*
X61157142Y-16675295D01*
X61157142Y-16675295D02*
X61157142Y-16818152D01*
X61157142Y-16818152D02*
X61109523Y-16913390D01*
X61109523Y-16913390D02*
X61061904Y-16961009D01*
X61061904Y-16961009D02*
X60966666Y-17008628D01*
X60966666Y-17008628D02*
X60585714Y-17008628D01*
X61490476Y-16484819D02*
X62109523Y-16484819D01*
X62109523Y-16484819D02*
X61776190Y-16865771D01*
X61776190Y-16865771D02*
X61919047Y-16865771D01*
X61919047Y-16865771D02*
X62014285Y-16913390D01*
X62014285Y-16913390D02*
X62061904Y-16961009D01*
X62061904Y-16961009D02*
X62109523Y-17056247D01*
X62109523Y-17056247D02*
X62109523Y-17294342D01*
X62109523Y-17294342D02*
X62061904Y-17389580D01*
X62061904Y-17389580D02*
X62014285Y-17437200D01*
X62014285Y-17437200D02*
X61919047Y-17484819D01*
X61919047Y-17484819D02*
X61633333Y-17484819D01*
X61633333Y-17484819D02*
X61538095Y-17437200D01*
X61538095Y-17437200D02*
X61490476Y-17389580D01*
X62728571Y-16484819D02*
X62823809Y-16484819D01*
X62823809Y-16484819D02*
X62919047Y-16532438D01*
X62919047Y-16532438D02*
X62966666Y-16580057D01*
X62966666Y-16580057D02*
X63014285Y-16675295D01*
X63014285Y-16675295D02*
X63061904Y-16865771D01*
X63061904Y-16865771D02*
X63061904Y-17103866D01*
X63061904Y-17103866D02*
X63014285Y-17294342D01*
X63014285Y-17294342D02*
X62966666Y-17389580D01*
X62966666Y-17389580D02*
X62919047Y-17437200D01*
X62919047Y-17437200D02*
X62823809Y-17484819D01*
X62823809Y-17484819D02*
X62728571Y-17484819D01*
X62728571Y-17484819D02*
X62633333Y-17437200D01*
X62633333Y-17437200D02*
X62585714Y-17389580D01*
X62585714Y-17389580D02*
X62538095Y-17294342D01*
X62538095Y-17294342D02*
X62490476Y-17103866D01*
X62490476Y-17103866D02*
X62490476Y-16865771D01*
X62490476Y-16865771D02*
X62538095Y-16675295D01*
X62538095Y-16675295D02*
X62585714Y-16580057D01*
X62585714Y-16580057D02*
X62633333Y-16532438D01*
X62633333Y-16532438D02*
X62728571Y-16484819D01*
X125166666Y-41974819D02*
X125166666Y-42689104D01*
X125166666Y-42689104D02*
X125119047Y-42831961D01*
X125119047Y-42831961D02*
X125023809Y-42927200D01*
X125023809Y-42927200D02*
X124880952Y-42974819D01*
X124880952Y-42974819D02*
X124785714Y-42974819D01*
X126119047Y-41974819D02*
X125642857Y-41974819D01*
X125642857Y-41974819D02*
X125595238Y-42451009D01*
X125595238Y-42451009D02*
X125642857Y-42403390D01*
X125642857Y-42403390D02*
X125738095Y-42355771D01*
X125738095Y-42355771D02*
X125976190Y-42355771D01*
X125976190Y-42355771D02*
X126071428Y-42403390D01*
X126071428Y-42403390D02*
X126119047Y-42451009D01*
X126119047Y-42451009D02*
X126166666Y-42546247D01*
X126166666Y-42546247D02*
X126166666Y-42784342D01*
X126166666Y-42784342D02*
X126119047Y-42879580D01*
X126119047Y-42879580D02*
X126071428Y-42927200D01*
X126071428Y-42927200D02*
X125976190Y-42974819D01*
X125976190Y-42974819D02*
X125738095Y-42974819D01*
X125738095Y-42974819D02*
X125642857Y-42927200D01*
X125642857Y-42927200D02*
X125595238Y-42879580D01*
X93880952Y-34284819D02*
X93547619Y-33808628D01*
X93309524Y-34284819D02*
X93309524Y-33284819D01*
X93309524Y-33284819D02*
X93690476Y-33284819D01*
X93690476Y-33284819D02*
X93785714Y-33332438D01*
X93785714Y-33332438D02*
X93833333Y-33380057D01*
X93833333Y-33380057D02*
X93880952Y-33475295D01*
X93880952Y-33475295D02*
X93880952Y-33618152D01*
X93880952Y-33618152D02*
X93833333Y-33713390D01*
X93833333Y-33713390D02*
X93785714Y-33761009D01*
X93785714Y-33761009D02*
X93690476Y-33808628D01*
X93690476Y-33808628D02*
X93309524Y-33808628D01*
X94833333Y-34284819D02*
X94261905Y-34284819D01*
X94547619Y-34284819D02*
X94547619Y-33284819D01*
X94547619Y-33284819D02*
X94452381Y-33427676D01*
X94452381Y-33427676D02*
X94357143Y-33522914D01*
X94357143Y-33522914D02*
X94261905Y-33570533D01*
X95309524Y-34284819D02*
X95500000Y-34284819D01*
X95500000Y-34284819D02*
X95595238Y-34237200D01*
X95595238Y-34237200D02*
X95642857Y-34189580D01*
X95642857Y-34189580D02*
X95738095Y-34046723D01*
X95738095Y-34046723D02*
X95785714Y-33856247D01*
X95785714Y-33856247D02*
X95785714Y-33475295D01*
X95785714Y-33475295D02*
X95738095Y-33380057D01*
X95738095Y-33380057D02*
X95690476Y-33332438D01*
X95690476Y-33332438D02*
X95595238Y-33284819D01*
X95595238Y-33284819D02*
X95404762Y-33284819D01*
X95404762Y-33284819D02*
X95309524Y-33332438D01*
X95309524Y-33332438D02*
X95261905Y-33380057D01*
X95261905Y-33380057D02*
X95214286Y-33475295D01*
X95214286Y-33475295D02*
X95214286Y-33713390D01*
X95214286Y-33713390D02*
X95261905Y-33808628D01*
X95261905Y-33808628D02*
X95309524Y-33856247D01*
X95309524Y-33856247D02*
X95404762Y-33903866D01*
X95404762Y-33903866D02*
X95595238Y-33903866D01*
X95595238Y-33903866D02*
X95690476Y-33856247D01*
X95690476Y-33856247D02*
X95738095Y-33808628D01*
X95738095Y-33808628D02*
X95785714Y-33713390D01*
X96261905Y-34284819D02*
X96452381Y-34284819D01*
X96452381Y-34284819D02*
X96547619Y-34237200D01*
X96547619Y-34237200D02*
X96595238Y-34189580D01*
X96595238Y-34189580D02*
X96690476Y-34046723D01*
X96690476Y-34046723D02*
X96738095Y-33856247D01*
X96738095Y-33856247D02*
X96738095Y-33475295D01*
X96738095Y-33475295D02*
X96690476Y-33380057D01*
X96690476Y-33380057D02*
X96642857Y-33332438D01*
X96642857Y-33332438D02*
X96547619Y-33284819D01*
X96547619Y-33284819D02*
X96357143Y-33284819D01*
X96357143Y-33284819D02*
X96261905Y-33332438D01*
X96261905Y-33332438D02*
X96214286Y-33380057D01*
X96214286Y-33380057D02*
X96166667Y-33475295D01*
X96166667Y-33475295D02*
X96166667Y-33713390D01*
X96166667Y-33713390D02*
X96214286Y-33808628D01*
X96214286Y-33808628D02*
X96261905Y-33856247D01*
X96261905Y-33856247D02*
X96357143Y-33903866D01*
X96357143Y-33903866D02*
X96547619Y-33903866D01*
X96547619Y-33903866D02*
X96642857Y-33856247D01*
X96642857Y-33856247D02*
X96690476Y-33808628D01*
X96690476Y-33808628D02*
X96738095Y-33713390D01*
X74957142Y-34559580D02*
X74909523Y-34607200D01*
X74909523Y-34607200D02*
X74766666Y-34654819D01*
X74766666Y-34654819D02*
X74671428Y-34654819D01*
X74671428Y-34654819D02*
X74528571Y-34607200D01*
X74528571Y-34607200D02*
X74433333Y-34511961D01*
X74433333Y-34511961D02*
X74385714Y-34416723D01*
X74385714Y-34416723D02*
X74338095Y-34226247D01*
X74338095Y-34226247D02*
X74338095Y-34083390D01*
X74338095Y-34083390D02*
X74385714Y-33892914D01*
X74385714Y-33892914D02*
X74433333Y-33797676D01*
X74433333Y-33797676D02*
X74528571Y-33702438D01*
X74528571Y-33702438D02*
X74671428Y-33654819D01*
X74671428Y-33654819D02*
X74766666Y-33654819D01*
X74766666Y-33654819D02*
X74909523Y-33702438D01*
X74909523Y-33702438D02*
X74957142Y-33750057D01*
X75814285Y-33988152D02*
X75814285Y-34654819D01*
X75576190Y-33607200D02*
X75338095Y-34321485D01*
X75338095Y-34321485D02*
X75957142Y-34321485D01*
X76290476Y-33750057D02*
X76338095Y-33702438D01*
X76338095Y-33702438D02*
X76433333Y-33654819D01*
X76433333Y-33654819D02*
X76671428Y-33654819D01*
X76671428Y-33654819D02*
X76766666Y-33702438D01*
X76766666Y-33702438D02*
X76814285Y-33750057D01*
X76814285Y-33750057D02*
X76861904Y-33845295D01*
X76861904Y-33845295D02*
X76861904Y-33940533D01*
X76861904Y-33940533D02*
X76814285Y-34083390D01*
X76814285Y-34083390D02*
X76242857Y-34654819D01*
X76242857Y-34654819D02*
X76861904Y-34654819D01*
X69257142Y-39284819D02*
X68923809Y-38808628D01*
X68685714Y-39284819D02*
X68685714Y-38284819D01*
X68685714Y-38284819D02*
X69066666Y-38284819D01*
X69066666Y-38284819D02*
X69161904Y-38332438D01*
X69161904Y-38332438D02*
X69209523Y-38380057D01*
X69209523Y-38380057D02*
X69257142Y-38475295D01*
X69257142Y-38475295D02*
X69257142Y-38618152D01*
X69257142Y-38618152D02*
X69209523Y-38713390D01*
X69209523Y-38713390D02*
X69161904Y-38761009D01*
X69161904Y-38761009D02*
X69066666Y-38808628D01*
X69066666Y-38808628D02*
X68685714Y-38808628D01*
X70161904Y-38284819D02*
X69685714Y-38284819D01*
X69685714Y-38284819D02*
X69638095Y-38761009D01*
X69638095Y-38761009D02*
X69685714Y-38713390D01*
X69685714Y-38713390D02*
X69780952Y-38665771D01*
X69780952Y-38665771D02*
X70019047Y-38665771D01*
X70019047Y-38665771D02*
X70114285Y-38713390D01*
X70114285Y-38713390D02*
X70161904Y-38761009D01*
X70161904Y-38761009D02*
X70209523Y-38856247D01*
X70209523Y-38856247D02*
X70209523Y-39094342D01*
X70209523Y-39094342D02*
X70161904Y-39189580D01*
X70161904Y-39189580D02*
X70114285Y-39237200D01*
X70114285Y-39237200D02*
X70019047Y-39284819D01*
X70019047Y-39284819D02*
X69780952Y-39284819D01*
X69780952Y-39284819D02*
X69685714Y-39237200D01*
X69685714Y-39237200D02*
X69638095Y-39189580D01*
X70590476Y-38380057D02*
X70638095Y-38332438D01*
X70638095Y-38332438D02*
X70733333Y-38284819D01*
X70733333Y-38284819D02*
X70971428Y-38284819D01*
X70971428Y-38284819D02*
X71066666Y-38332438D01*
X71066666Y-38332438D02*
X71114285Y-38380057D01*
X71114285Y-38380057D02*
X71161904Y-38475295D01*
X71161904Y-38475295D02*
X71161904Y-38570533D01*
X71161904Y-38570533D02*
X71114285Y-38713390D01*
X71114285Y-38713390D02*
X70542857Y-39284819D01*
X70542857Y-39284819D02*
X71161904Y-39284819D01*
X151454819Y-3003333D02*
X152169104Y-3003333D01*
X152169104Y-3003333D02*
X152311961Y-3050952D01*
X152311961Y-3050952D02*
X152407200Y-3146190D01*
X152407200Y-3146190D02*
X152454819Y-3289047D01*
X152454819Y-3289047D02*
X152454819Y-3384285D01*
X151454819Y-2622380D02*
X151454819Y-1955714D01*
X151454819Y-1955714D02*
X152454819Y-2384285D01*
X155523809Y-4654819D02*
X155523809Y-3654819D01*
X155523809Y-4131009D02*
X156095237Y-4131009D01*
X156095237Y-4654819D02*
X156095237Y-3654819D01*
X156523809Y-4369104D02*
X156999999Y-4369104D01*
X156428571Y-4654819D02*
X156761904Y-3654819D01*
X156761904Y-3654819D02*
X157095237Y-4654819D01*
X157428571Y-4654819D02*
X157428571Y-3654819D01*
X157428571Y-3654819D02*
X157809523Y-3654819D01*
X157809523Y-3654819D02*
X157904761Y-3702438D01*
X157904761Y-3702438D02*
X157952380Y-3750057D01*
X157952380Y-3750057D02*
X157999999Y-3845295D01*
X157999999Y-3845295D02*
X157999999Y-3988152D01*
X157999999Y-3988152D02*
X157952380Y-4083390D01*
X157952380Y-4083390D02*
X157904761Y-4131009D01*
X157904761Y-4131009D02*
X157809523Y-4178628D01*
X157809523Y-4178628D02*
X157428571Y-4178628D01*
X158190476Y-4750057D02*
X158952380Y-4750057D01*
X159190476Y-4654819D02*
X159190476Y-3654819D01*
X159190476Y-3654819D02*
X159523809Y-4369104D01*
X159523809Y-4369104D02*
X159857142Y-3654819D01*
X159857142Y-3654819D02*
X159857142Y-4654819D01*
X160523809Y-3654819D02*
X160714285Y-3654819D01*
X160714285Y-3654819D02*
X160809523Y-3702438D01*
X160809523Y-3702438D02*
X160904761Y-3797676D01*
X160904761Y-3797676D02*
X160952380Y-3988152D01*
X160952380Y-3988152D02*
X160952380Y-4321485D01*
X160952380Y-4321485D02*
X160904761Y-4511961D01*
X160904761Y-4511961D02*
X160809523Y-4607200D01*
X160809523Y-4607200D02*
X160714285Y-4654819D01*
X160714285Y-4654819D02*
X160523809Y-4654819D01*
X160523809Y-4654819D02*
X160428571Y-4607200D01*
X160428571Y-4607200D02*
X160333333Y-4511961D01*
X160333333Y-4511961D02*
X160285714Y-4321485D01*
X160285714Y-4321485D02*
X160285714Y-3988152D01*
X160285714Y-3988152D02*
X160333333Y-3797676D01*
X160333333Y-3797676D02*
X160428571Y-3702438D01*
X160428571Y-3702438D02*
X160523809Y-3654819D01*
X161238095Y-3654819D02*
X161809523Y-3654819D01*
X161523809Y-4654819D02*
X161523809Y-3654819D01*
X162333333Y-3654819D02*
X162523809Y-3654819D01*
X162523809Y-3654819D02*
X162619047Y-3702438D01*
X162619047Y-3702438D02*
X162714285Y-3797676D01*
X162714285Y-3797676D02*
X162761904Y-3988152D01*
X162761904Y-3988152D02*
X162761904Y-4321485D01*
X162761904Y-4321485D02*
X162714285Y-4511961D01*
X162714285Y-4511961D02*
X162619047Y-4607200D01*
X162619047Y-4607200D02*
X162523809Y-4654819D01*
X162523809Y-4654819D02*
X162333333Y-4654819D01*
X162333333Y-4654819D02*
X162238095Y-4607200D01*
X162238095Y-4607200D02*
X162142857Y-4511961D01*
X162142857Y-4511961D02*
X162095238Y-4321485D01*
X162095238Y-4321485D02*
X162095238Y-3988152D01*
X162095238Y-3988152D02*
X162142857Y-3797676D01*
X162142857Y-3797676D02*
X162238095Y-3702438D01*
X162238095Y-3702438D02*
X162333333Y-3654819D01*
X163761904Y-4654819D02*
X163428571Y-4178628D01*
X163190476Y-4654819D02*
X163190476Y-3654819D01*
X163190476Y-3654819D02*
X163571428Y-3654819D01*
X163571428Y-3654819D02*
X163666666Y-3702438D01*
X163666666Y-3702438D02*
X163714285Y-3750057D01*
X163714285Y-3750057D02*
X163761904Y-3845295D01*
X163761904Y-3845295D02*
X163761904Y-3988152D01*
X163761904Y-3988152D02*
X163714285Y-4083390D01*
X163714285Y-4083390D02*
X163666666Y-4131009D01*
X163666666Y-4131009D02*
X163571428Y-4178628D01*
X163571428Y-4178628D02*
X163190476Y-4178628D01*
X163952381Y-4750057D02*
X164714285Y-4750057D01*
X164952381Y-4654819D02*
X164952381Y-3654819D01*
X164952381Y-3654819D02*
X165333333Y-3654819D01*
X165333333Y-3654819D02*
X165428571Y-3702438D01*
X165428571Y-3702438D02*
X165476190Y-3750057D01*
X165476190Y-3750057D02*
X165523809Y-3845295D01*
X165523809Y-3845295D02*
X165523809Y-3988152D01*
X165523809Y-3988152D02*
X165476190Y-4083390D01*
X165476190Y-4083390D02*
X165428571Y-4131009D01*
X165428571Y-4131009D02*
X165333333Y-4178628D01*
X165333333Y-4178628D02*
X164952381Y-4178628D01*
X166142857Y-3654819D02*
X166333333Y-3654819D01*
X166333333Y-3654819D02*
X166428571Y-3702438D01*
X166428571Y-3702438D02*
X166523809Y-3797676D01*
X166523809Y-3797676D02*
X166571428Y-3988152D01*
X166571428Y-3988152D02*
X166571428Y-4321485D01*
X166571428Y-4321485D02*
X166523809Y-4511961D01*
X166523809Y-4511961D02*
X166428571Y-4607200D01*
X166428571Y-4607200D02*
X166333333Y-4654819D01*
X166333333Y-4654819D02*
X166142857Y-4654819D01*
X166142857Y-4654819D02*
X166047619Y-4607200D01*
X166047619Y-4607200D02*
X165952381Y-4511961D01*
X165952381Y-4511961D02*
X165904762Y-4321485D01*
X165904762Y-4321485D02*
X165904762Y-3988152D01*
X165904762Y-3988152D02*
X165952381Y-3797676D01*
X165952381Y-3797676D02*
X166047619Y-3702438D01*
X166047619Y-3702438D02*
X166142857Y-3654819D01*
X166952381Y-4607200D02*
X167095238Y-4654819D01*
X167095238Y-4654819D02*
X167333333Y-4654819D01*
X167333333Y-4654819D02*
X167428571Y-4607200D01*
X167428571Y-4607200D02*
X167476190Y-4559580D01*
X167476190Y-4559580D02*
X167523809Y-4464342D01*
X167523809Y-4464342D02*
X167523809Y-4369104D01*
X167523809Y-4369104D02*
X167476190Y-4273866D01*
X167476190Y-4273866D02*
X167428571Y-4226247D01*
X167428571Y-4226247D02*
X167333333Y-4178628D01*
X167333333Y-4178628D02*
X167142857Y-4131009D01*
X167142857Y-4131009D02*
X167047619Y-4083390D01*
X167047619Y-4083390D02*
X167000000Y-4035771D01*
X167000000Y-4035771D02*
X166952381Y-3940533D01*
X166952381Y-3940533D02*
X166952381Y-3845295D01*
X166952381Y-3845295D02*
X167000000Y-3750057D01*
X167000000Y-3750057D02*
X167047619Y-3702438D01*
X167047619Y-3702438D02*
X167142857Y-3654819D01*
X167142857Y-3654819D02*
X167380952Y-3654819D01*
X167380952Y-3654819D02*
X167523809Y-3702438D01*
X150880952Y-47284819D02*
X150404762Y-47284819D01*
X150404762Y-47284819D02*
X150404762Y-46284819D01*
X151214286Y-46761009D02*
X151547619Y-46761009D01*
X151690476Y-47284819D02*
X151214286Y-47284819D01*
X151214286Y-47284819D02*
X151214286Y-46284819D01*
X151214286Y-46284819D02*
X151690476Y-46284819D01*
X152119048Y-47284819D02*
X152119048Y-46284819D01*
X152119048Y-46284819D02*
X152357143Y-46284819D01*
X152357143Y-46284819D02*
X152500000Y-46332438D01*
X152500000Y-46332438D02*
X152595238Y-46427676D01*
X152595238Y-46427676D02*
X152642857Y-46522914D01*
X152642857Y-46522914D02*
X152690476Y-46713390D01*
X152690476Y-46713390D02*
X152690476Y-46856247D01*
X152690476Y-46856247D02*
X152642857Y-47046723D01*
X152642857Y-47046723D02*
X152595238Y-47141961D01*
X152595238Y-47141961D02*
X152500000Y-47237200D01*
X152500000Y-47237200D02*
X152357143Y-47284819D01*
X152357143Y-47284819D02*
X152119048Y-47284819D01*
X153642857Y-47284819D02*
X153071429Y-47284819D01*
X153357143Y-47284819D02*
X153357143Y-46284819D01*
X153357143Y-46284819D02*
X153261905Y-46427676D01*
X153261905Y-46427676D02*
X153166667Y-46522914D01*
X153166667Y-46522914D02*
X153071429Y-46570533D01*
X81166666Y-41974819D02*
X81166666Y-42689104D01*
X81166666Y-42689104D02*
X81119047Y-42831961D01*
X81119047Y-42831961D02*
X81023809Y-42927200D01*
X81023809Y-42927200D02*
X80880952Y-42974819D01*
X80880952Y-42974819D02*
X80785714Y-42974819D01*
X81547619Y-41974819D02*
X82166666Y-41974819D01*
X82166666Y-41974819D02*
X81833333Y-42355771D01*
X81833333Y-42355771D02*
X81976190Y-42355771D01*
X81976190Y-42355771D02*
X82071428Y-42403390D01*
X82071428Y-42403390D02*
X82119047Y-42451009D01*
X82119047Y-42451009D02*
X82166666Y-42546247D01*
X82166666Y-42546247D02*
X82166666Y-42784342D01*
X82166666Y-42784342D02*
X82119047Y-42879580D01*
X82119047Y-42879580D02*
X82071428Y-42927200D01*
X82071428Y-42927200D02*
X81976190Y-42974819D01*
X81976190Y-42974819D02*
X81690476Y-42974819D01*
X81690476Y-42974819D02*
X81595238Y-42927200D01*
X81595238Y-42927200D02*
X81547619Y-42879580D01*
X69257142Y-27284819D02*
X68923809Y-26808628D01*
X68685714Y-27284819D02*
X68685714Y-26284819D01*
X68685714Y-26284819D02*
X69066666Y-26284819D01*
X69066666Y-26284819D02*
X69161904Y-26332438D01*
X69161904Y-26332438D02*
X69209523Y-26380057D01*
X69209523Y-26380057D02*
X69257142Y-26475295D01*
X69257142Y-26475295D02*
X69257142Y-26618152D01*
X69257142Y-26618152D02*
X69209523Y-26713390D01*
X69209523Y-26713390D02*
X69161904Y-26761009D01*
X69161904Y-26761009D02*
X69066666Y-26808628D01*
X69066666Y-26808628D02*
X68685714Y-26808628D01*
X70114285Y-26618152D02*
X70114285Y-27284819D01*
X69876190Y-26237200D02*
X69638095Y-26951485D01*
X69638095Y-26951485D02*
X70257142Y-26951485D01*
X70590476Y-26380057D02*
X70638095Y-26332438D01*
X70638095Y-26332438D02*
X70733333Y-26284819D01*
X70733333Y-26284819D02*
X70971428Y-26284819D01*
X70971428Y-26284819D02*
X71066666Y-26332438D01*
X71066666Y-26332438D02*
X71114285Y-26380057D01*
X71114285Y-26380057D02*
X71161904Y-26475295D01*
X71161904Y-26475295D02*
X71161904Y-26570533D01*
X71161904Y-26570533D02*
X71114285Y-26713390D01*
X71114285Y-26713390D02*
X70542857Y-27284819D01*
X70542857Y-27284819D02*
X71161904Y-27284819D01*
X111481352Y-34283980D02*
X111433733Y-34331600D01*
X111433733Y-34331600D02*
X111290876Y-34379219D01*
X111290876Y-34379219D02*
X111195638Y-34379219D01*
X111195638Y-34379219D02*
X111052781Y-34331600D01*
X111052781Y-34331600D02*
X110957543Y-34236361D01*
X110957543Y-34236361D02*
X110909924Y-34141123D01*
X110909924Y-34141123D02*
X110862305Y-33950647D01*
X110862305Y-33950647D02*
X110862305Y-33807790D01*
X110862305Y-33807790D02*
X110909924Y-33617314D01*
X110909924Y-33617314D02*
X110957543Y-33522076D01*
X110957543Y-33522076D02*
X111052781Y-33426838D01*
X111052781Y-33426838D02*
X111195638Y-33379219D01*
X111195638Y-33379219D02*
X111290876Y-33379219D01*
X111290876Y-33379219D02*
X111433733Y-33426838D01*
X111433733Y-33426838D02*
X111481352Y-33474457D01*
X111862305Y-33474457D02*
X111909924Y-33426838D01*
X111909924Y-33426838D02*
X112005162Y-33379219D01*
X112005162Y-33379219D02*
X112243257Y-33379219D01*
X112243257Y-33379219D02*
X112338495Y-33426838D01*
X112338495Y-33426838D02*
X112386114Y-33474457D01*
X112386114Y-33474457D02*
X112433733Y-33569695D01*
X112433733Y-33569695D02*
X112433733Y-33664933D01*
X112433733Y-33664933D02*
X112386114Y-33807790D01*
X112386114Y-33807790D02*
X111814686Y-34379219D01*
X111814686Y-34379219D02*
X112433733Y-34379219D01*
X113052781Y-33379219D02*
X113148019Y-33379219D01*
X113148019Y-33379219D02*
X113243257Y-33426838D01*
X113243257Y-33426838D02*
X113290876Y-33474457D01*
X113290876Y-33474457D02*
X113338495Y-33569695D01*
X113338495Y-33569695D02*
X113386114Y-33760171D01*
X113386114Y-33760171D02*
X113386114Y-33998266D01*
X113386114Y-33998266D02*
X113338495Y-34188742D01*
X113338495Y-34188742D02*
X113290876Y-34283980D01*
X113290876Y-34283980D02*
X113243257Y-34331600D01*
X113243257Y-34331600D02*
X113148019Y-34379219D01*
X113148019Y-34379219D02*
X113052781Y-34379219D01*
X113052781Y-34379219D02*
X112957543Y-34331600D01*
X112957543Y-34331600D02*
X112909924Y-34283980D01*
X112909924Y-34283980D02*
X112862305Y-34188742D01*
X112862305Y-34188742D02*
X112814686Y-33998266D01*
X112814686Y-33998266D02*
X112814686Y-33760171D01*
X112814686Y-33760171D02*
X112862305Y-33569695D01*
X112862305Y-33569695D02*
X112909924Y-33474457D01*
X112909924Y-33474457D02*
X112957543Y-33426838D01*
X112957543Y-33426838D02*
X113052781Y-33379219D01*
X114338495Y-34379219D02*
X113767067Y-34379219D01*
X114052781Y-34379219D02*
X114052781Y-33379219D01*
X114052781Y-33379219D02*
X113957543Y-33522076D01*
X113957543Y-33522076D02*
X113862305Y-33617314D01*
X113862305Y-33617314D02*
X113767067Y-33664933D01*
X116943352Y-16492580D02*
X116895733Y-16540200D01*
X116895733Y-16540200D02*
X116752876Y-16587819D01*
X116752876Y-16587819D02*
X116657638Y-16587819D01*
X116657638Y-16587819D02*
X116514781Y-16540200D01*
X116514781Y-16540200D02*
X116419543Y-16444961D01*
X116419543Y-16444961D02*
X116371924Y-16349723D01*
X116371924Y-16349723D02*
X116324305Y-16159247D01*
X116324305Y-16159247D02*
X116324305Y-16016390D01*
X116324305Y-16016390D02*
X116371924Y-15825914D01*
X116371924Y-15825914D02*
X116419543Y-15730676D01*
X116419543Y-15730676D02*
X116514781Y-15635438D01*
X116514781Y-15635438D02*
X116657638Y-15587819D01*
X116657638Y-15587819D02*
X116752876Y-15587819D01*
X116752876Y-15587819D02*
X116895733Y-15635438D01*
X116895733Y-15635438D02*
X116943352Y-15683057D01*
X117324305Y-15683057D02*
X117371924Y-15635438D01*
X117371924Y-15635438D02*
X117467162Y-15587819D01*
X117467162Y-15587819D02*
X117705257Y-15587819D01*
X117705257Y-15587819D02*
X117800495Y-15635438D01*
X117800495Y-15635438D02*
X117848114Y-15683057D01*
X117848114Y-15683057D02*
X117895733Y-15778295D01*
X117895733Y-15778295D02*
X117895733Y-15873533D01*
X117895733Y-15873533D02*
X117848114Y-16016390D01*
X117848114Y-16016390D02*
X117276686Y-16587819D01*
X117276686Y-16587819D02*
X117895733Y-16587819D01*
X118514781Y-15587819D02*
X118610019Y-15587819D01*
X118610019Y-15587819D02*
X118705257Y-15635438D01*
X118705257Y-15635438D02*
X118752876Y-15683057D01*
X118752876Y-15683057D02*
X118800495Y-15778295D01*
X118800495Y-15778295D02*
X118848114Y-15968771D01*
X118848114Y-15968771D02*
X118848114Y-16206866D01*
X118848114Y-16206866D02*
X118800495Y-16397342D01*
X118800495Y-16397342D02*
X118752876Y-16492580D01*
X118752876Y-16492580D02*
X118705257Y-16540200D01*
X118705257Y-16540200D02*
X118610019Y-16587819D01*
X118610019Y-16587819D02*
X118514781Y-16587819D01*
X118514781Y-16587819D02*
X118419543Y-16540200D01*
X118419543Y-16540200D02*
X118371924Y-16492580D01*
X118371924Y-16492580D02*
X118324305Y-16397342D01*
X118324305Y-16397342D02*
X118276686Y-16206866D01*
X118276686Y-16206866D02*
X118276686Y-15968771D01*
X118276686Y-15968771D02*
X118324305Y-15778295D01*
X118324305Y-15778295D02*
X118371924Y-15683057D01*
X118371924Y-15683057D02*
X118419543Y-15635438D01*
X118419543Y-15635438D02*
X118514781Y-15587819D01*
X119181448Y-15587819D02*
X119800495Y-15587819D01*
X119800495Y-15587819D02*
X119467162Y-15968771D01*
X119467162Y-15968771D02*
X119610019Y-15968771D01*
X119610019Y-15968771D02*
X119705257Y-16016390D01*
X119705257Y-16016390D02*
X119752876Y-16064009D01*
X119752876Y-16064009D02*
X119800495Y-16159247D01*
X119800495Y-16159247D02*
X119800495Y-16397342D01*
X119800495Y-16397342D02*
X119752876Y-16492580D01*
X119752876Y-16492580D02*
X119705257Y-16540200D01*
X119705257Y-16540200D02*
X119610019Y-16587819D01*
X119610019Y-16587819D02*
X119324305Y-16587819D01*
X119324305Y-16587819D02*
X119229067Y-16540200D01*
X119229067Y-16540200D02*
X119181448Y-16492580D01*
X11833333Y-30929580D02*
X11785714Y-30977200D01*
X11785714Y-30977200D02*
X11642857Y-31024819D01*
X11642857Y-31024819D02*
X11547619Y-31024819D01*
X11547619Y-31024819D02*
X11404762Y-30977200D01*
X11404762Y-30977200D02*
X11309524Y-30881961D01*
X11309524Y-30881961D02*
X11261905Y-30786723D01*
X11261905Y-30786723D02*
X11214286Y-30596247D01*
X11214286Y-30596247D02*
X11214286Y-30453390D01*
X11214286Y-30453390D02*
X11261905Y-30262914D01*
X11261905Y-30262914D02*
X11309524Y-30167676D01*
X11309524Y-30167676D02*
X11404762Y-30072438D01*
X11404762Y-30072438D02*
X11547619Y-30024819D01*
X11547619Y-30024819D02*
X11642857Y-30024819D01*
X11642857Y-30024819D02*
X11785714Y-30072438D01*
X11785714Y-30072438D02*
X11833333Y-30120057D01*
X12785714Y-31024819D02*
X12214286Y-31024819D01*
X12500000Y-31024819D02*
X12500000Y-30024819D01*
X12500000Y-30024819D02*
X12404762Y-30167676D01*
X12404762Y-30167676D02*
X12309524Y-30262914D01*
X12309524Y-30262914D02*
X12214286Y-30310533D01*
X71238095Y-40124819D02*
X71238095Y-40934342D01*
X71238095Y-40934342D02*
X71285714Y-41029580D01*
X71285714Y-41029580D02*
X71333333Y-41077200D01*
X71333333Y-41077200D02*
X71428571Y-41124819D01*
X71428571Y-41124819D02*
X71619047Y-41124819D01*
X71619047Y-41124819D02*
X71714285Y-41077200D01*
X71714285Y-41077200D02*
X71761904Y-41029580D01*
X71761904Y-41029580D02*
X71809523Y-40934342D01*
X71809523Y-40934342D02*
X71809523Y-40124819D01*
X72428571Y-40553390D02*
X72333333Y-40505771D01*
X72333333Y-40505771D02*
X72285714Y-40458152D01*
X72285714Y-40458152D02*
X72238095Y-40362914D01*
X72238095Y-40362914D02*
X72238095Y-40315295D01*
X72238095Y-40315295D02*
X72285714Y-40220057D01*
X72285714Y-40220057D02*
X72333333Y-40172438D01*
X72333333Y-40172438D02*
X72428571Y-40124819D01*
X72428571Y-40124819D02*
X72619047Y-40124819D01*
X72619047Y-40124819D02*
X72714285Y-40172438D01*
X72714285Y-40172438D02*
X72761904Y-40220057D01*
X72761904Y-40220057D02*
X72809523Y-40315295D01*
X72809523Y-40315295D02*
X72809523Y-40362914D01*
X72809523Y-40362914D02*
X72761904Y-40458152D01*
X72761904Y-40458152D02*
X72714285Y-40505771D01*
X72714285Y-40505771D02*
X72619047Y-40553390D01*
X72619047Y-40553390D02*
X72428571Y-40553390D01*
X72428571Y-40553390D02*
X72333333Y-40601009D01*
X72333333Y-40601009D02*
X72285714Y-40648628D01*
X72285714Y-40648628D02*
X72238095Y-40743866D01*
X72238095Y-40743866D02*
X72238095Y-40934342D01*
X72238095Y-40934342D02*
X72285714Y-41029580D01*
X72285714Y-41029580D02*
X72333333Y-41077200D01*
X72333333Y-41077200D02*
X72428571Y-41124819D01*
X72428571Y-41124819D02*
X72619047Y-41124819D01*
X72619047Y-41124819D02*
X72714285Y-41077200D01*
X72714285Y-41077200D02*
X72761904Y-41029580D01*
X72761904Y-41029580D02*
X72809523Y-40934342D01*
X72809523Y-40934342D02*
X72809523Y-40743866D01*
X72809523Y-40743866D02*
X72761904Y-40648628D01*
X72761904Y-40648628D02*
X72714285Y-40601009D01*
X72714285Y-40601009D02*
X72619047Y-40553390D01*
X146666666Y-23501009D02*
X146333333Y-23501009D01*
X146333333Y-24024819D02*
X146333333Y-23024819D01*
X146333333Y-23024819D02*
X146809523Y-23024819D01*
X147523809Y-23501009D02*
X147666666Y-23548628D01*
X147666666Y-23548628D02*
X147714285Y-23596247D01*
X147714285Y-23596247D02*
X147761904Y-23691485D01*
X147761904Y-23691485D02*
X147761904Y-23834342D01*
X147761904Y-23834342D02*
X147714285Y-23929580D01*
X147714285Y-23929580D02*
X147666666Y-23977200D01*
X147666666Y-23977200D02*
X147571428Y-24024819D01*
X147571428Y-24024819D02*
X147190476Y-24024819D01*
X147190476Y-24024819D02*
X147190476Y-23024819D01*
X147190476Y-23024819D02*
X147523809Y-23024819D01*
X147523809Y-23024819D02*
X147619047Y-23072438D01*
X147619047Y-23072438D02*
X147666666Y-23120057D01*
X147666666Y-23120057D02*
X147714285Y-23215295D01*
X147714285Y-23215295D02*
X147714285Y-23310533D01*
X147714285Y-23310533D02*
X147666666Y-23405771D01*
X147666666Y-23405771D02*
X147619047Y-23453390D01*
X147619047Y-23453390D02*
X147523809Y-23501009D01*
X147523809Y-23501009D02*
X147190476Y-23501009D01*
X148714285Y-24024819D02*
X148142857Y-24024819D01*
X148428571Y-24024819D02*
X148428571Y-23024819D01*
X148428571Y-23024819D02*
X148333333Y-23167676D01*
X148333333Y-23167676D02*
X148238095Y-23262914D01*
X148238095Y-23262914D02*
X148142857Y-23310533D01*
X2833333Y-30284819D02*
X2500000Y-29808628D01*
X2261905Y-30284819D02*
X2261905Y-29284819D01*
X2261905Y-29284819D02*
X2642857Y-29284819D01*
X2642857Y-29284819D02*
X2738095Y-29332438D01*
X2738095Y-29332438D02*
X2785714Y-29380057D01*
X2785714Y-29380057D02*
X2833333Y-29475295D01*
X2833333Y-29475295D02*
X2833333Y-29618152D01*
X2833333Y-29618152D02*
X2785714Y-29713390D01*
X2785714Y-29713390D02*
X2738095Y-29761009D01*
X2738095Y-29761009D02*
X2642857Y-29808628D01*
X2642857Y-29808628D02*
X2261905Y-29808628D01*
X3785714Y-30284819D02*
X3214286Y-30284819D01*
X3500000Y-30284819D02*
X3500000Y-29284819D01*
X3500000Y-29284819D02*
X3404762Y-29427676D01*
X3404762Y-29427676D02*
X3309524Y-29522914D01*
X3309524Y-29522914D02*
X3214286Y-29570533D01*
X160437347Y-6616428D02*
X160437347Y-7426767D01*
X160437347Y-7426767D02*
X160485014Y-7522101D01*
X160485014Y-7522101D02*
X160532681Y-7569769D01*
X160532681Y-7569769D02*
X160628015Y-7617436D01*
X160628015Y-7617436D02*
X160818683Y-7617436D01*
X160818683Y-7617436D02*
X160914017Y-7569769D01*
X160914017Y-7569769D02*
X160961684Y-7522101D01*
X160961684Y-7522101D02*
X161009351Y-7426767D01*
X161009351Y-7426767D02*
X161009351Y-6616428D01*
X162010359Y-7617436D02*
X161438355Y-7617436D01*
X161724357Y-7617436D02*
X161724357Y-6616428D01*
X161724357Y-6616428D02*
X161629023Y-6759429D01*
X161629023Y-6759429D02*
X161533689Y-6854763D01*
X161533689Y-6854763D02*
X161438355Y-6902430D01*
X162391696Y-6711762D02*
X162439363Y-6664095D01*
X162439363Y-6664095D02*
X162534697Y-6616428D01*
X162534697Y-6616428D02*
X162773032Y-6616428D01*
X162773032Y-6616428D02*
X162868366Y-6664095D01*
X162868366Y-6664095D02*
X162916033Y-6711762D01*
X162916033Y-6711762D02*
X162963700Y-6807096D01*
X162963700Y-6807096D02*
X162963700Y-6902430D01*
X162963700Y-6902430D02*
X162916033Y-7045431D01*
X162916033Y-7045431D02*
X162344029Y-7617436D01*
X162344029Y-7617436D02*
X162963700Y-7617436D01*
X65357142Y-32999580D02*
X65309523Y-33047200D01*
X65309523Y-33047200D02*
X65166666Y-33094819D01*
X65166666Y-33094819D02*
X65071428Y-33094819D01*
X65071428Y-33094819D02*
X64928571Y-33047200D01*
X64928571Y-33047200D02*
X64833333Y-32951961D01*
X64833333Y-32951961D02*
X64785714Y-32856723D01*
X64785714Y-32856723D02*
X64738095Y-32666247D01*
X64738095Y-32666247D02*
X64738095Y-32523390D01*
X64738095Y-32523390D02*
X64785714Y-32332914D01*
X64785714Y-32332914D02*
X64833333Y-32237676D01*
X64833333Y-32237676D02*
X64928571Y-32142438D01*
X64928571Y-32142438D02*
X65071428Y-32094819D01*
X65071428Y-32094819D02*
X65166666Y-32094819D01*
X65166666Y-32094819D02*
X65309523Y-32142438D01*
X65309523Y-32142438D02*
X65357142Y-32190057D01*
X66214285Y-32428152D02*
X66214285Y-33094819D01*
X65976190Y-32047200D02*
X65738095Y-32761485D01*
X65738095Y-32761485D02*
X66357142Y-32761485D01*
X67261904Y-33094819D02*
X66690476Y-33094819D01*
X66976190Y-33094819D02*
X66976190Y-32094819D01*
X66976190Y-32094819D02*
X66880952Y-32237676D01*
X66880952Y-32237676D02*
X66785714Y-32332914D01*
X66785714Y-32332914D02*
X66690476Y-32380533D01*
X34833333Y-19284819D02*
X34500000Y-18808628D01*
X34261905Y-19284819D02*
X34261905Y-18284819D01*
X34261905Y-18284819D02*
X34642857Y-18284819D01*
X34642857Y-18284819D02*
X34738095Y-18332438D01*
X34738095Y-18332438D02*
X34785714Y-18380057D01*
X34785714Y-18380057D02*
X34833333Y-18475295D01*
X34833333Y-18475295D02*
X34833333Y-18618152D01*
X34833333Y-18618152D02*
X34785714Y-18713390D01*
X34785714Y-18713390D02*
X34738095Y-18761009D01*
X34738095Y-18761009D02*
X34642857Y-18808628D01*
X34642857Y-18808628D02*
X34261905Y-18808628D01*
X35738095Y-18284819D02*
X35261905Y-18284819D01*
X35261905Y-18284819D02*
X35214286Y-18761009D01*
X35214286Y-18761009D02*
X35261905Y-18713390D01*
X35261905Y-18713390D02*
X35357143Y-18665771D01*
X35357143Y-18665771D02*
X35595238Y-18665771D01*
X35595238Y-18665771D02*
X35690476Y-18713390D01*
X35690476Y-18713390D02*
X35738095Y-18761009D01*
X35738095Y-18761009D02*
X35785714Y-18856247D01*
X35785714Y-18856247D02*
X35785714Y-19094342D01*
X35785714Y-19094342D02*
X35738095Y-19189580D01*
X35738095Y-19189580D02*
X35690476Y-19237200D01*
X35690476Y-19237200D02*
X35595238Y-19284819D01*
X35595238Y-19284819D02*
X35357143Y-19284819D01*
X35357143Y-19284819D02*
X35261905Y-19237200D01*
X35261905Y-19237200D02*
X35214286Y-19189580D01*
X159357142Y-41699580D02*
X159309523Y-41747200D01*
X159309523Y-41747200D02*
X159166666Y-41794819D01*
X159166666Y-41794819D02*
X159071428Y-41794819D01*
X159071428Y-41794819D02*
X158928571Y-41747200D01*
X158928571Y-41747200D02*
X158833333Y-41651961D01*
X158833333Y-41651961D02*
X158785714Y-41556723D01*
X158785714Y-41556723D02*
X158738095Y-41366247D01*
X158738095Y-41366247D02*
X158738095Y-41223390D01*
X158738095Y-41223390D02*
X158785714Y-41032914D01*
X158785714Y-41032914D02*
X158833333Y-40937676D01*
X158833333Y-40937676D02*
X158928571Y-40842438D01*
X158928571Y-40842438D02*
X159071428Y-40794819D01*
X159071428Y-40794819D02*
X159166666Y-40794819D01*
X159166666Y-40794819D02*
X159309523Y-40842438D01*
X159309523Y-40842438D02*
X159357142Y-40890057D01*
X160214285Y-40794819D02*
X160023809Y-40794819D01*
X160023809Y-40794819D02*
X159928571Y-40842438D01*
X159928571Y-40842438D02*
X159880952Y-40890057D01*
X159880952Y-40890057D02*
X159785714Y-41032914D01*
X159785714Y-41032914D02*
X159738095Y-41223390D01*
X159738095Y-41223390D02*
X159738095Y-41604342D01*
X159738095Y-41604342D02*
X159785714Y-41699580D01*
X159785714Y-41699580D02*
X159833333Y-41747200D01*
X159833333Y-41747200D02*
X159928571Y-41794819D01*
X159928571Y-41794819D02*
X160119047Y-41794819D01*
X160119047Y-41794819D02*
X160214285Y-41747200D01*
X160214285Y-41747200D02*
X160261904Y-41699580D01*
X160261904Y-41699580D02*
X160309523Y-41604342D01*
X160309523Y-41604342D02*
X160309523Y-41366247D01*
X160309523Y-41366247D02*
X160261904Y-41271009D01*
X160261904Y-41271009D02*
X160214285Y-41223390D01*
X160214285Y-41223390D02*
X160119047Y-41175771D01*
X160119047Y-41175771D02*
X159928571Y-41175771D01*
X159928571Y-41175771D02*
X159833333Y-41223390D01*
X159833333Y-41223390D02*
X159785714Y-41271009D01*
X159785714Y-41271009D02*
X159738095Y-41366247D01*
X160690476Y-40890057D02*
X160738095Y-40842438D01*
X160738095Y-40842438D02*
X160833333Y-40794819D01*
X160833333Y-40794819D02*
X161071428Y-40794819D01*
X161071428Y-40794819D02*
X161166666Y-40842438D01*
X161166666Y-40842438D02*
X161214285Y-40890057D01*
X161214285Y-40890057D02*
X161261904Y-40985295D01*
X161261904Y-40985295D02*
X161261904Y-41080533D01*
X161261904Y-41080533D02*
X161214285Y-41223390D01*
X161214285Y-41223390D02*
X160642857Y-41794819D01*
X160642857Y-41794819D02*
X161261904Y-41794819D01*
X61157142Y-44999580D02*
X61109523Y-45047200D01*
X61109523Y-45047200D02*
X60966666Y-45094819D01*
X60966666Y-45094819D02*
X60871428Y-45094819D01*
X60871428Y-45094819D02*
X60728571Y-45047200D01*
X60728571Y-45047200D02*
X60633333Y-44951961D01*
X60633333Y-44951961D02*
X60585714Y-44856723D01*
X60585714Y-44856723D02*
X60538095Y-44666247D01*
X60538095Y-44666247D02*
X60538095Y-44523390D01*
X60538095Y-44523390D02*
X60585714Y-44332914D01*
X60585714Y-44332914D02*
X60633333Y-44237676D01*
X60633333Y-44237676D02*
X60728571Y-44142438D01*
X60728571Y-44142438D02*
X60871428Y-44094819D01*
X60871428Y-44094819D02*
X60966666Y-44094819D01*
X60966666Y-44094819D02*
X61109523Y-44142438D01*
X61109523Y-44142438D02*
X61157142Y-44190057D01*
X62061904Y-44094819D02*
X61585714Y-44094819D01*
X61585714Y-44094819D02*
X61538095Y-44571009D01*
X61538095Y-44571009D02*
X61585714Y-44523390D01*
X61585714Y-44523390D02*
X61680952Y-44475771D01*
X61680952Y-44475771D02*
X61919047Y-44475771D01*
X61919047Y-44475771D02*
X62014285Y-44523390D01*
X62014285Y-44523390D02*
X62061904Y-44571009D01*
X62061904Y-44571009D02*
X62109523Y-44666247D01*
X62109523Y-44666247D02*
X62109523Y-44904342D01*
X62109523Y-44904342D02*
X62061904Y-44999580D01*
X62061904Y-44999580D02*
X62014285Y-45047200D01*
X62014285Y-45047200D02*
X61919047Y-45094819D01*
X61919047Y-45094819D02*
X61680952Y-45094819D01*
X61680952Y-45094819D02*
X61585714Y-45047200D01*
X61585714Y-45047200D02*
X61538095Y-44999580D01*
X62728571Y-44094819D02*
X62823809Y-44094819D01*
X62823809Y-44094819D02*
X62919047Y-44142438D01*
X62919047Y-44142438D02*
X62966666Y-44190057D01*
X62966666Y-44190057D02*
X63014285Y-44285295D01*
X63014285Y-44285295D02*
X63061904Y-44475771D01*
X63061904Y-44475771D02*
X63061904Y-44713866D01*
X63061904Y-44713866D02*
X63014285Y-44904342D01*
X63014285Y-44904342D02*
X62966666Y-44999580D01*
X62966666Y-44999580D02*
X62919047Y-45047200D01*
X62919047Y-45047200D02*
X62823809Y-45094819D01*
X62823809Y-45094819D02*
X62728571Y-45094819D01*
X62728571Y-45094819D02*
X62633333Y-45047200D01*
X62633333Y-45047200D02*
X62585714Y-44999580D01*
X62585714Y-44999580D02*
X62538095Y-44904342D01*
X62538095Y-44904342D02*
X62490476Y-44713866D01*
X62490476Y-44713866D02*
X62490476Y-44475771D01*
X62490476Y-44475771D02*
X62538095Y-44285295D01*
X62538095Y-44285295D02*
X62585714Y-44190057D01*
X62585714Y-44190057D02*
X62633333Y-44142438D01*
X62633333Y-44142438D02*
X62728571Y-44094819D01*
X151357142Y-43284819D02*
X151023809Y-42808628D01*
X150785714Y-43284819D02*
X150785714Y-42284819D01*
X150785714Y-42284819D02*
X151166666Y-42284819D01*
X151166666Y-42284819D02*
X151261904Y-42332438D01*
X151261904Y-42332438D02*
X151309523Y-42380057D01*
X151309523Y-42380057D02*
X151357142Y-42475295D01*
X151357142Y-42475295D02*
X151357142Y-42618152D01*
X151357142Y-42618152D02*
X151309523Y-42713390D01*
X151309523Y-42713390D02*
X151261904Y-42761009D01*
X151261904Y-42761009D02*
X151166666Y-42808628D01*
X151166666Y-42808628D02*
X150785714Y-42808628D01*
X152214285Y-42284819D02*
X152023809Y-42284819D01*
X152023809Y-42284819D02*
X151928571Y-42332438D01*
X151928571Y-42332438D02*
X151880952Y-42380057D01*
X151880952Y-42380057D02*
X151785714Y-42522914D01*
X151785714Y-42522914D02*
X151738095Y-42713390D01*
X151738095Y-42713390D02*
X151738095Y-43094342D01*
X151738095Y-43094342D02*
X151785714Y-43189580D01*
X151785714Y-43189580D02*
X151833333Y-43237200D01*
X151833333Y-43237200D02*
X151928571Y-43284819D01*
X151928571Y-43284819D02*
X152119047Y-43284819D01*
X152119047Y-43284819D02*
X152214285Y-43237200D01*
X152214285Y-43237200D02*
X152261904Y-43189580D01*
X152261904Y-43189580D02*
X152309523Y-43094342D01*
X152309523Y-43094342D02*
X152309523Y-42856247D01*
X152309523Y-42856247D02*
X152261904Y-42761009D01*
X152261904Y-42761009D02*
X152214285Y-42713390D01*
X152214285Y-42713390D02*
X152119047Y-42665771D01*
X152119047Y-42665771D02*
X151928571Y-42665771D01*
X151928571Y-42665771D02*
X151833333Y-42713390D01*
X151833333Y-42713390D02*
X151785714Y-42761009D01*
X151785714Y-42761009D02*
X151738095Y-42856247D01*
X152928571Y-42284819D02*
X153023809Y-42284819D01*
X153023809Y-42284819D02*
X153119047Y-42332438D01*
X153119047Y-42332438D02*
X153166666Y-42380057D01*
X153166666Y-42380057D02*
X153214285Y-42475295D01*
X153214285Y-42475295D02*
X153261904Y-42665771D01*
X153261904Y-42665771D02*
X153261904Y-42903866D01*
X153261904Y-42903866D02*
X153214285Y-43094342D01*
X153214285Y-43094342D02*
X153166666Y-43189580D01*
X153166666Y-43189580D02*
X153119047Y-43237200D01*
X153119047Y-43237200D02*
X153023809Y-43284819D01*
X153023809Y-43284819D02*
X152928571Y-43284819D01*
X152928571Y-43284819D02*
X152833333Y-43237200D01*
X152833333Y-43237200D02*
X152785714Y-43189580D01*
X152785714Y-43189580D02*
X152738095Y-43094342D01*
X152738095Y-43094342D02*
X152690476Y-42903866D01*
X152690476Y-42903866D02*
X152690476Y-42665771D01*
X152690476Y-42665771D02*
X152738095Y-42475295D01*
X152738095Y-42475295D02*
X152785714Y-42380057D01*
X152785714Y-42380057D02*
X152833333Y-42332438D01*
X152833333Y-42332438D02*
X152928571Y-42284819D01*
X61157142Y-41484819D02*
X60823809Y-41008628D01*
X60585714Y-41484819D02*
X60585714Y-40484819D01*
X60585714Y-40484819D02*
X60966666Y-40484819D01*
X60966666Y-40484819D02*
X61061904Y-40532438D01*
X61061904Y-40532438D02*
X61109523Y-40580057D01*
X61109523Y-40580057D02*
X61157142Y-40675295D01*
X61157142Y-40675295D02*
X61157142Y-40818152D01*
X61157142Y-40818152D02*
X61109523Y-40913390D01*
X61109523Y-40913390D02*
X61061904Y-40961009D01*
X61061904Y-40961009D02*
X60966666Y-41008628D01*
X60966666Y-41008628D02*
X60585714Y-41008628D01*
X62061904Y-40484819D02*
X61585714Y-40484819D01*
X61585714Y-40484819D02*
X61538095Y-40961009D01*
X61538095Y-40961009D02*
X61585714Y-40913390D01*
X61585714Y-40913390D02*
X61680952Y-40865771D01*
X61680952Y-40865771D02*
X61919047Y-40865771D01*
X61919047Y-40865771D02*
X62014285Y-40913390D01*
X62014285Y-40913390D02*
X62061904Y-40961009D01*
X62061904Y-40961009D02*
X62109523Y-41056247D01*
X62109523Y-41056247D02*
X62109523Y-41294342D01*
X62109523Y-41294342D02*
X62061904Y-41389580D01*
X62061904Y-41389580D02*
X62014285Y-41437200D01*
X62014285Y-41437200D02*
X61919047Y-41484819D01*
X61919047Y-41484819D02*
X61680952Y-41484819D01*
X61680952Y-41484819D02*
X61585714Y-41437200D01*
X61585714Y-41437200D02*
X61538095Y-41389580D01*
X62728571Y-40484819D02*
X62823809Y-40484819D01*
X62823809Y-40484819D02*
X62919047Y-40532438D01*
X62919047Y-40532438D02*
X62966666Y-40580057D01*
X62966666Y-40580057D02*
X63014285Y-40675295D01*
X63014285Y-40675295D02*
X63061904Y-40865771D01*
X63061904Y-40865771D02*
X63061904Y-41103866D01*
X63061904Y-41103866D02*
X63014285Y-41294342D01*
X63014285Y-41294342D02*
X62966666Y-41389580D01*
X62966666Y-41389580D02*
X62919047Y-41437200D01*
X62919047Y-41437200D02*
X62823809Y-41484819D01*
X62823809Y-41484819D02*
X62728571Y-41484819D01*
X62728571Y-41484819D02*
X62633333Y-41437200D01*
X62633333Y-41437200D02*
X62585714Y-41389580D01*
X62585714Y-41389580D02*
X62538095Y-41294342D01*
X62538095Y-41294342D02*
X62490476Y-41103866D01*
X62490476Y-41103866D02*
X62490476Y-40865771D01*
X62490476Y-40865771D02*
X62538095Y-40675295D01*
X62538095Y-40675295D02*
X62585714Y-40580057D01*
X62585714Y-40580057D02*
X62633333Y-40532438D01*
X62633333Y-40532438D02*
X62728571Y-40484819D01*
X109166666Y-41974819D02*
X109166666Y-42689104D01*
X109166666Y-42689104D02*
X109119047Y-42831961D01*
X109119047Y-42831961D02*
X109023809Y-42927200D01*
X109023809Y-42927200D02*
X108880952Y-42974819D01*
X108880952Y-42974819D02*
X108785714Y-42974819D01*
X110071428Y-42308152D02*
X110071428Y-42974819D01*
X109833333Y-41927200D02*
X109595238Y-42641485D01*
X109595238Y-42641485D02*
X110214285Y-42641485D01*
X159357142Y-45624819D02*
X159023809Y-45148628D01*
X158785714Y-45624819D02*
X158785714Y-44624819D01*
X158785714Y-44624819D02*
X159166666Y-44624819D01*
X159166666Y-44624819D02*
X159261904Y-44672438D01*
X159261904Y-44672438D02*
X159309523Y-44720057D01*
X159309523Y-44720057D02*
X159357142Y-44815295D01*
X159357142Y-44815295D02*
X159357142Y-44958152D01*
X159357142Y-44958152D02*
X159309523Y-45053390D01*
X159309523Y-45053390D02*
X159261904Y-45101009D01*
X159261904Y-45101009D02*
X159166666Y-45148628D01*
X159166666Y-45148628D02*
X158785714Y-45148628D01*
X160214285Y-44624819D02*
X160023809Y-44624819D01*
X160023809Y-44624819D02*
X159928571Y-44672438D01*
X159928571Y-44672438D02*
X159880952Y-44720057D01*
X159880952Y-44720057D02*
X159785714Y-44862914D01*
X159785714Y-44862914D02*
X159738095Y-45053390D01*
X159738095Y-45053390D02*
X159738095Y-45434342D01*
X159738095Y-45434342D02*
X159785714Y-45529580D01*
X159785714Y-45529580D02*
X159833333Y-45577200D01*
X159833333Y-45577200D02*
X159928571Y-45624819D01*
X159928571Y-45624819D02*
X160119047Y-45624819D01*
X160119047Y-45624819D02*
X160214285Y-45577200D01*
X160214285Y-45577200D02*
X160261904Y-45529580D01*
X160261904Y-45529580D02*
X160309523Y-45434342D01*
X160309523Y-45434342D02*
X160309523Y-45196247D01*
X160309523Y-45196247D02*
X160261904Y-45101009D01*
X160261904Y-45101009D02*
X160214285Y-45053390D01*
X160214285Y-45053390D02*
X160119047Y-45005771D01*
X160119047Y-45005771D02*
X159928571Y-45005771D01*
X159928571Y-45005771D02*
X159833333Y-45053390D01*
X159833333Y-45053390D02*
X159785714Y-45101009D01*
X159785714Y-45101009D02*
X159738095Y-45196247D01*
X160690476Y-44720057D02*
X160738095Y-44672438D01*
X160738095Y-44672438D02*
X160833333Y-44624819D01*
X160833333Y-44624819D02*
X161071428Y-44624819D01*
X161071428Y-44624819D02*
X161166666Y-44672438D01*
X161166666Y-44672438D02*
X161214285Y-44720057D01*
X161214285Y-44720057D02*
X161261904Y-44815295D01*
X161261904Y-44815295D02*
X161261904Y-44910533D01*
X161261904Y-44910533D02*
X161214285Y-45053390D01*
X161214285Y-45053390D02*
X160642857Y-45624819D01*
X160642857Y-45624819D02*
X161261904Y-45624819D01*
X71357142Y-25624819D02*
X71023809Y-25148628D01*
X70785714Y-25624819D02*
X70785714Y-24624819D01*
X70785714Y-24624819D02*
X71166666Y-24624819D01*
X71166666Y-24624819D02*
X71261904Y-24672438D01*
X71261904Y-24672438D02*
X71309523Y-24720057D01*
X71309523Y-24720057D02*
X71357142Y-24815295D01*
X71357142Y-24815295D02*
X71357142Y-24958152D01*
X71357142Y-24958152D02*
X71309523Y-25053390D01*
X71309523Y-25053390D02*
X71261904Y-25101009D01*
X71261904Y-25101009D02*
X71166666Y-25148628D01*
X71166666Y-25148628D02*
X70785714Y-25148628D01*
X71690476Y-24624819D02*
X72309523Y-24624819D01*
X72309523Y-24624819D02*
X71976190Y-25005771D01*
X71976190Y-25005771D02*
X72119047Y-25005771D01*
X72119047Y-25005771D02*
X72214285Y-25053390D01*
X72214285Y-25053390D02*
X72261904Y-25101009D01*
X72261904Y-25101009D02*
X72309523Y-25196247D01*
X72309523Y-25196247D02*
X72309523Y-25434342D01*
X72309523Y-25434342D02*
X72261904Y-25529580D01*
X72261904Y-25529580D02*
X72214285Y-25577200D01*
X72214285Y-25577200D02*
X72119047Y-25624819D01*
X72119047Y-25624819D02*
X71833333Y-25624819D01*
X71833333Y-25624819D02*
X71738095Y-25577200D01*
X71738095Y-25577200D02*
X71690476Y-25529580D01*
X73166666Y-24958152D02*
X73166666Y-25624819D01*
X72928571Y-24577200D02*
X72690476Y-25291485D01*
X72690476Y-25291485D02*
X73309523Y-25291485D01*
X65357142Y-17484819D02*
X65023809Y-17008628D01*
X64785714Y-17484819D02*
X64785714Y-16484819D01*
X64785714Y-16484819D02*
X65166666Y-16484819D01*
X65166666Y-16484819D02*
X65261904Y-16532438D01*
X65261904Y-16532438D02*
X65309523Y-16580057D01*
X65309523Y-16580057D02*
X65357142Y-16675295D01*
X65357142Y-16675295D02*
X65357142Y-16818152D01*
X65357142Y-16818152D02*
X65309523Y-16913390D01*
X65309523Y-16913390D02*
X65261904Y-16961009D01*
X65261904Y-16961009D02*
X65166666Y-17008628D01*
X65166666Y-17008628D02*
X64785714Y-17008628D01*
X65690476Y-16484819D02*
X66309523Y-16484819D01*
X66309523Y-16484819D02*
X65976190Y-16865771D01*
X65976190Y-16865771D02*
X66119047Y-16865771D01*
X66119047Y-16865771D02*
X66214285Y-16913390D01*
X66214285Y-16913390D02*
X66261904Y-16961009D01*
X66261904Y-16961009D02*
X66309523Y-17056247D01*
X66309523Y-17056247D02*
X66309523Y-17294342D01*
X66309523Y-17294342D02*
X66261904Y-17389580D01*
X66261904Y-17389580D02*
X66214285Y-17437200D01*
X66214285Y-17437200D02*
X66119047Y-17484819D01*
X66119047Y-17484819D02*
X65833333Y-17484819D01*
X65833333Y-17484819D02*
X65738095Y-17437200D01*
X65738095Y-17437200D02*
X65690476Y-17389580D01*
X67261904Y-17484819D02*
X66690476Y-17484819D01*
X66976190Y-17484819D02*
X66976190Y-16484819D01*
X66976190Y-16484819D02*
X66880952Y-16627676D01*
X66880952Y-16627676D02*
X66785714Y-16722914D01*
X66785714Y-16722914D02*
X66690476Y-16770533D01*
X208357142Y-12284819D02*
X208023809Y-11808628D01*
X207785714Y-12284819D02*
X207785714Y-11284819D01*
X207785714Y-11284819D02*
X208166666Y-11284819D01*
X208166666Y-11284819D02*
X208261904Y-11332438D01*
X208261904Y-11332438D02*
X208309523Y-11380057D01*
X208309523Y-11380057D02*
X208357142Y-11475295D01*
X208357142Y-11475295D02*
X208357142Y-11618152D01*
X208357142Y-11618152D02*
X208309523Y-11713390D01*
X208309523Y-11713390D02*
X208261904Y-11761009D01*
X208261904Y-11761009D02*
X208166666Y-11808628D01*
X208166666Y-11808628D02*
X207785714Y-11808628D01*
X209214285Y-11284819D02*
X209023809Y-11284819D01*
X209023809Y-11284819D02*
X208928571Y-11332438D01*
X208928571Y-11332438D02*
X208880952Y-11380057D01*
X208880952Y-11380057D02*
X208785714Y-11522914D01*
X208785714Y-11522914D02*
X208738095Y-11713390D01*
X208738095Y-11713390D02*
X208738095Y-12094342D01*
X208738095Y-12094342D02*
X208785714Y-12189580D01*
X208785714Y-12189580D02*
X208833333Y-12237200D01*
X208833333Y-12237200D02*
X208928571Y-12284819D01*
X208928571Y-12284819D02*
X209119047Y-12284819D01*
X209119047Y-12284819D02*
X209214285Y-12237200D01*
X209214285Y-12237200D02*
X209261904Y-12189580D01*
X209261904Y-12189580D02*
X209309523Y-12094342D01*
X209309523Y-12094342D02*
X209309523Y-11856247D01*
X209309523Y-11856247D02*
X209261904Y-11761009D01*
X209261904Y-11761009D02*
X209214285Y-11713390D01*
X209214285Y-11713390D02*
X209119047Y-11665771D01*
X209119047Y-11665771D02*
X208928571Y-11665771D01*
X208928571Y-11665771D02*
X208833333Y-11713390D01*
X208833333Y-11713390D02*
X208785714Y-11761009D01*
X208785714Y-11761009D02*
X208738095Y-11856247D01*
X210166666Y-11618152D02*
X210166666Y-12284819D01*
X209928571Y-11237200D02*
X209690476Y-11951485D01*
X209690476Y-11951485D02*
X210309523Y-11951485D01*
X48683333Y-30679580D02*
X48635714Y-30727200D01*
X48635714Y-30727200D02*
X48492857Y-30774819D01*
X48492857Y-30774819D02*
X48397619Y-30774819D01*
X48397619Y-30774819D02*
X48254762Y-30727200D01*
X48254762Y-30727200D02*
X48159524Y-30631961D01*
X48159524Y-30631961D02*
X48111905Y-30536723D01*
X48111905Y-30536723D02*
X48064286Y-30346247D01*
X48064286Y-30346247D02*
X48064286Y-30203390D01*
X48064286Y-30203390D02*
X48111905Y-30012914D01*
X48111905Y-30012914D02*
X48159524Y-29917676D01*
X48159524Y-29917676D02*
X48254762Y-29822438D01*
X48254762Y-29822438D02*
X48397619Y-29774819D01*
X48397619Y-29774819D02*
X48492857Y-29774819D01*
X48492857Y-29774819D02*
X48635714Y-29822438D01*
X48635714Y-29822438D02*
X48683333Y-29870057D01*
X49254762Y-30203390D02*
X49159524Y-30155771D01*
X49159524Y-30155771D02*
X49111905Y-30108152D01*
X49111905Y-30108152D02*
X49064286Y-30012914D01*
X49064286Y-30012914D02*
X49064286Y-29965295D01*
X49064286Y-29965295D02*
X49111905Y-29870057D01*
X49111905Y-29870057D02*
X49159524Y-29822438D01*
X49159524Y-29822438D02*
X49254762Y-29774819D01*
X49254762Y-29774819D02*
X49445238Y-29774819D01*
X49445238Y-29774819D02*
X49540476Y-29822438D01*
X49540476Y-29822438D02*
X49588095Y-29870057D01*
X49588095Y-29870057D02*
X49635714Y-29965295D01*
X49635714Y-29965295D02*
X49635714Y-30012914D01*
X49635714Y-30012914D02*
X49588095Y-30108152D01*
X49588095Y-30108152D02*
X49540476Y-30155771D01*
X49540476Y-30155771D02*
X49445238Y-30203390D01*
X49445238Y-30203390D02*
X49254762Y-30203390D01*
X49254762Y-30203390D02*
X49159524Y-30251009D01*
X49159524Y-30251009D02*
X49111905Y-30298628D01*
X49111905Y-30298628D02*
X49064286Y-30393866D01*
X49064286Y-30393866D02*
X49064286Y-30584342D01*
X49064286Y-30584342D02*
X49111905Y-30679580D01*
X49111905Y-30679580D02*
X49159524Y-30727200D01*
X49159524Y-30727200D02*
X49254762Y-30774819D01*
X49254762Y-30774819D02*
X49445238Y-30774819D01*
X49445238Y-30774819D02*
X49540476Y-30727200D01*
X49540476Y-30727200D02*
X49588095Y-30679580D01*
X49588095Y-30679580D02*
X49635714Y-30584342D01*
X49635714Y-30584342D02*
X49635714Y-30393866D01*
X49635714Y-30393866D02*
X49588095Y-30298628D01*
X49588095Y-30298628D02*
X49540476Y-30251009D01*
X49540476Y-30251009D02*
X49445238Y-30203390D01*
X74957142Y-42159580D02*
X74909523Y-42207200D01*
X74909523Y-42207200D02*
X74766666Y-42254819D01*
X74766666Y-42254819D02*
X74671428Y-42254819D01*
X74671428Y-42254819D02*
X74528571Y-42207200D01*
X74528571Y-42207200D02*
X74433333Y-42111961D01*
X74433333Y-42111961D02*
X74385714Y-42016723D01*
X74385714Y-42016723D02*
X74338095Y-41826247D01*
X74338095Y-41826247D02*
X74338095Y-41683390D01*
X74338095Y-41683390D02*
X74385714Y-41492914D01*
X74385714Y-41492914D02*
X74433333Y-41397676D01*
X74433333Y-41397676D02*
X74528571Y-41302438D01*
X74528571Y-41302438D02*
X74671428Y-41254819D01*
X74671428Y-41254819D02*
X74766666Y-41254819D01*
X74766666Y-41254819D02*
X74909523Y-41302438D01*
X74909523Y-41302438D02*
X74957142Y-41350057D01*
X75861904Y-41254819D02*
X75385714Y-41254819D01*
X75385714Y-41254819D02*
X75338095Y-41731009D01*
X75338095Y-41731009D02*
X75385714Y-41683390D01*
X75385714Y-41683390D02*
X75480952Y-41635771D01*
X75480952Y-41635771D02*
X75719047Y-41635771D01*
X75719047Y-41635771D02*
X75814285Y-41683390D01*
X75814285Y-41683390D02*
X75861904Y-41731009D01*
X75861904Y-41731009D02*
X75909523Y-41826247D01*
X75909523Y-41826247D02*
X75909523Y-42064342D01*
X75909523Y-42064342D02*
X75861904Y-42159580D01*
X75861904Y-42159580D02*
X75814285Y-42207200D01*
X75814285Y-42207200D02*
X75719047Y-42254819D01*
X75719047Y-42254819D02*
X75480952Y-42254819D01*
X75480952Y-42254819D02*
X75385714Y-42207200D01*
X75385714Y-42207200D02*
X75338095Y-42159580D01*
X76290476Y-41350057D02*
X76338095Y-41302438D01*
X76338095Y-41302438D02*
X76433333Y-41254819D01*
X76433333Y-41254819D02*
X76671428Y-41254819D01*
X76671428Y-41254819D02*
X76766666Y-41302438D01*
X76766666Y-41302438D02*
X76814285Y-41350057D01*
X76814285Y-41350057D02*
X76861904Y-41445295D01*
X76861904Y-41445295D02*
X76861904Y-41540533D01*
X76861904Y-41540533D02*
X76814285Y-41683390D01*
X76814285Y-41683390D02*
X76242857Y-42254819D01*
X76242857Y-42254819D02*
X76861904Y-42254819D01*
X172833333Y-48907200D02*
X172976190Y-48954819D01*
X172976190Y-48954819D02*
X173214285Y-48954819D01*
X173214285Y-48954819D02*
X173309523Y-48907200D01*
X173309523Y-48907200D02*
X173357142Y-48859580D01*
X173357142Y-48859580D02*
X173404761Y-48764342D01*
X173404761Y-48764342D02*
X173404761Y-48669104D01*
X173404761Y-48669104D02*
X173357142Y-48573866D01*
X173357142Y-48573866D02*
X173309523Y-48526247D01*
X173309523Y-48526247D02*
X173214285Y-48478628D01*
X173214285Y-48478628D02*
X173023809Y-48431009D01*
X173023809Y-48431009D02*
X172928571Y-48383390D01*
X172928571Y-48383390D02*
X172880952Y-48335771D01*
X172880952Y-48335771D02*
X172833333Y-48240533D01*
X172833333Y-48240533D02*
X172833333Y-48145295D01*
X172833333Y-48145295D02*
X172880952Y-48050057D01*
X172880952Y-48050057D02*
X172928571Y-48002438D01*
X172928571Y-48002438D02*
X173023809Y-47954819D01*
X173023809Y-47954819D02*
X173261904Y-47954819D01*
X173261904Y-47954819D02*
X173404761Y-48002438D01*
X173833333Y-48954819D02*
X173833333Y-47954819D01*
X173833333Y-47954819D02*
X174214285Y-47954819D01*
X174214285Y-47954819D02*
X174309523Y-48002438D01*
X174309523Y-48002438D02*
X174357142Y-48050057D01*
X174357142Y-48050057D02*
X174404761Y-48145295D01*
X174404761Y-48145295D02*
X174404761Y-48288152D01*
X174404761Y-48288152D02*
X174357142Y-48383390D01*
X174357142Y-48383390D02*
X174309523Y-48431009D01*
X174309523Y-48431009D02*
X174214285Y-48478628D01*
X174214285Y-48478628D02*
X173833333Y-48478628D01*
X174833333Y-48954819D02*
X174833333Y-47954819D01*
X175404761Y-48954819D02*
X174976190Y-48383390D01*
X175404761Y-47954819D02*
X174833333Y-48526247D01*
X175595238Y-49050057D02*
X176357142Y-49050057D01*
X176595238Y-48954819D02*
X176595238Y-47954819D01*
X176595238Y-47954819D02*
X176976190Y-47954819D01*
X176976190Y-47954819D02*
X177071428Y-48002438D01*
X177071428Y-48002438D02*
X177119047Y-48050057D01*
X177119047Y-48050057D02*
X177166666Y-48145295D01*
X177166666Y-48145295D02*
X177166666Y-48288152D01*
X177166666Y-48288152D02*
X177119047Y-48383390D01*
X177119047Y-48383390D02*
X177071428Y-48431009D01*
X177071428Y-48431009D02*
X176976190Y-48478628D01*
X176976190Y-48478628D02*
X176595238Y-48478628D01*
X177785714Y-47954819D02*
X177976190Y-47954819D01*
X177976190Y-47954819D02*
X178071428Y-48002438D01*
X178071428Y-48002438D02*
X178166666Y-48097676D01*
X178166666Y-48097676D02*
X178214285Y-48288152D01*
X178214285Y-48288152D02*
X178214285Y-48621485D01*
X178214285Y-48621485D02*
X178166666Y-48811961D01*
X178166666Y-48811961D02*
X178071428Y-48907200D01*
X178071428Y-48907200D02*
X177976190Y-48954819D01*
X177976190Y-48954819D02*
X177785714Y-48954819D01*
X177785714Y-48954819D02*
X177690476Y-48907200D01*
X177690476Y-48907200D02*
X177595238Y-48811961D01*
X177595238Y-48811961D02*
X177547619Y-48621485D01*
X177547619Y-48621485D02*
X177547619Y-48288152D01*
X177547619Y-48288152D02*
X177595238Y-48097676D01*
X177595238Y-48097676D02*
X177690476Y-48002438D01*
X177690476Y-48002438D02*
X177785714Y-47954819D01*
X178595238Y-48907200D02*
X178738095Y-48954819D01*
X178738095Y-48954819D02*
X178976190Y-48954819D01*
X178976190Y-48954819D02*
X179071428Y-48907200D01*
X179071428Y-48907200D02*
X179119047Y-48859580D01*
X179119047Y-48859580D02*
X179166666Y-48764342D01*
X179166666Y-48764342D02*
X179166666Y-48669104D01*
X179166666Y-48669104D02*
X179119047Y-48573866D01*
X179119047Y-48573866D02*
X179071428Y-48526247D01*
X179071428Y-48526247D02*
X178976190Y-48478628D01*
X178976190Y-48478628D02*
X178785714Y-48431009D01*
X178785714Y-48431009D02*
X178690476Y-48383390D01*
X178690476Y-48383390D02*
X178642857Y-48335771D01*
X178642857Y-48335771D02*
X178595238Y-48240533D01*
X178595238Y-48240533D02*
X178595238Y-48145295D01*
X178595238Y-48145295D02*
X178642857Y-48050057D01*
X178642857Y-48050057D02*
X178690476Y-48002438D01*
X178690476Y-48002438D02*
X178785714Y-47954819D01*
X178785714Y-47954819D02*
X179023809Y-47954819D01*
X179023809Y-47954819D02*
X179166666Y-48002438D01*
X65357142Y-29484819D02*
X65023809Y-29008628D01*
X64785714Y-29484819D02*
X64785714Y-28484819D01*
X64785714Y-28484819D02*
X65166666Y-28484819D01*
X65166666Y-28484819D02*
X65261904Y-28532438D01*
X65261904Y-28532438D02*
X65309523Y-28580057D01*
X65309523Y-28580057D02*
X65357142Y-28675295D01*
X65357142Y-28675295D02*
X65357142Y-28818152D01*
X65357142Y-28818152D02*
X65309523Y-28913390D01*
X65309523Y-28913390D02*
X65261904Y-28961009D01*
X65261904Y-28961009D02*
X65166666Y-29008628D01*
X65166666Y-29008628D02*
X64785714Y-29008628D01*
X66214285Y-28818152D02*
X66214285Y-29484819D01*
X65976190Y-28437200D02*
X65738095Y-29151485D01*
X65738095Y-29151485D02*
X66357142Y-29151485D01*
X67261904Y-29484819D02*
X66690476Y-29484819D01*
X66976190Y-29484819D02*
X66976190Y-28484819D01*
X66976190Y-28484819D02*
X66880952Y-28627676D01*
X66880952Y-28627676D02*
X66785714Y-28722914D01*
X66785714Y-28722914D02*
X66690476Y-28770533D01*
X211537142Y-14059580D02*
X211489523Y-14107200D01*
X211489523Y-14107200D02*
X211346666Y-14154819D01*
X211346666Y-14154819D02*
X211251428Y-14154819D01*
X211251428Y-14154819D02*
X211108571Y-14107200D01*
X211108571Y-14107200D02*
X211013333Y-14011961D01*
X211013333Y-14011961D02*
X210965714Y-13916723D01*
X210965714Y-13916723D02*
X210918095Y-13726247D01*
X210918095Y-13726247D02*
X210918095Y-13583390D01*
X210918095Y-13583390D02*
X210965714Y-13392914D01*
X210965714Y-13392914D02*
X211013333Y-13297676D01*
X211013333Y-13297676D02*
X211108571Y-13202438D01*
X211108571Y-13202438D02*
X211251428Y-13154819D01*
X211251428Y-13154819D02*
X211346666Y-13154819D01*
X211346666Y-13154819D02*
X211489523Y-13202438D01*
X211489523Y-13202438D02*
X211537142Y-13250057D01*
X212394285Y-13154819D02*
X212203809Y-13154819D01*
X212203809Y-13154819D02*
X212108571Y-13202438D01*
X212108571Y-13202438D02*
X212060952Y-13250057D01*
X212060952Y-13250057D02*
X211965714Y-13392914D01*
X211965714Y-13392914D02*
X211918095Y-13583390D01*
X211918095Y-13583390D02*
X211918095Y-13964342D01*
X211918095Y-13964342D02*
X211965714Y-14059580D01*
X211965714Y-14059580D02*
X212013333Y-14107200D01*
X212013333Y-14107200D02*
X212108571Y-14154819D01*
X212108571Y-14154819D02*
X212299047Y-14154819D01*
X212299047Y-14154819D02*
X212394285Y-14107200D01*
X212394285Y-14107200D02*
X212441904Y-14059580D01*
X212441904Y-14059580D02*
X212489523Y-13964342D01*
X212489523Y-13964342D02*
X212489523Y-13726247D01*
X212489523Y-13726247D02*
X212441904Y-13631009D01*
X212441904Y-13631009D02*
X212394285Y-13583390D01*
X212394285Y-13583390D02*
X212299047Y-13535771D01*
X212299047Y-13535771D02*
X212108571Y-13535771D01*
X212108571Y-13535771D02*
X212013333Y-13583390D01*
X212013333Y-13583390D02*
X211965714Y-13631009D01*
X211965714Y-13631009D02*
X211918095Y-13726247D01*
X213108571Y-13154819D02*
X213203809Y-13154819D01*
X213203809Y-13154819D02*
X213299047Y-13202438D01*
X213299047Y-13202438D02*
X213346666Y-13250057D01*
X213346666Y-13250057D02*
X213394285Y-13345295D01*
X213394285Y-13345295D02*
X213441904Y-13535771D01*
X213441904Y-13535771D02*
X213441904Y-13773866D01*
X213441904Y-13773866D02*
X213394285Y-13964342D01*
X213394285Y-13964342D02*
X213346666Y-14059580D01*
X213346666Y-14059580D02*
X213299047Y-14107200D01*
X213299047Y-14107200D02*
X213203809Y-14154819D01*
X213203809Y-14154819D02*
X213108571Y-14154819D01*
X213108571Y-14154819D02*
X213013333Y-14107200D01*
X213013333Y-14107200D02*
X212965714Y-14059580D01*
X212965714Y-14059580D02*
X212918095Y-13964342D01*
X212918095Y-13964342D02*
X212870476Y-13773866D01*
X212870476Y-13773866D02*
X212870476Y-13535771D01*
X212870476Y-13535771D02*
X212918095Y-13345295D01*
X212918095Y-13345295D02*
X212965714Y-13250057D01*
X212965714Y-13250057D02*
X213013333Y-13202438D01*
X213013333Y-13202438D02*
X213108571Y-13154819D01*
X113187452Y-16345580D02*
X113139833Y-16393200D01*
X113139833Y-16393200D02*
X112996976Y-16440819D01*
X112996976Y-16440819D02*
X112901738Y-16440819D01*
X112901738Y-16440819D02*
X112758881Y-16393200D01*
X112758881Y-16393200D02*
X112663643Y-16297961D01*
X112663643Y-16297961D02*
X112616024Y-16202723D01*
X112616024Y-16202723D02*
X112568405Y-16012247D01*
X112568405Y-16012247D02*
X112568405Y-15869390D01*
X112568405Y-15869390D02*
X112616024Y-15678914D01*
X112616024Y-15678914D02*
X112663643Y-15583676D01*
X112663643Y-15583676D02*
X112758881Y-15488438D01*
X112758881Y-15488438D02*
X112901738Y-15440819D01*
X112901738Y-15440819D02*
X112996976Y-15440819D01*
X112996976Y-15440819D02*
X113139833Y-15488438D01*
X113139833Y-15488438D02*
X113187452Y-15536057D01*
X113568405Y-15536057D02*
X113616024Y-15488438D01*
X113616024Y-15488438D02*
X113711262Y-15440819D01*
X113711262Y-15440819D02*
X113949357Y-15440819D01*
X113949357Y-15440819D02*
X114044595Y-15488438D01*
X114044595Y-15488438D02*
X114092214Y-15536057D01*
X114092214Y-15536057D02*
X114139833Y-15631295D01*
X114139833Y-15631295D02*
X114139833Y-15726533D01*
X114139833Y-15726533D02*
X114092214Y-15869390D01*
X114092214Y-15869390D02*
X113520786Y-16440819D01*
X113520786Y-16440819D02*
X114139833Y-16440819D01*
X114758881Y-15440819D02*
X114854119Y-15440819D01*
X114854119Y-15440819D02*
X114949357Y-15488438D01*
X114949357Y-15488438D02*
X114996976Y-15536057D01*
X114996976Y-15536057D02*
X115044595Y-15631295D01*
X115044595Y-15631295D02*
X115092214Y-15821771D01*
X115092214Y-15821771D02*
X115092214Y-16059866D01*
X115092214Y-16059866D02*
X115044595Y-16250342D01*
X115044595Y-16250342D02*
X114996976Y-16345580D01*
X114996976Y-16345580D02*
X114949357Y-16393200D01*
X114949357Y-16393200D02*
X114854119Y-16440819D01*
X114854119Y-16440819D02*
X114758881Y-16440819D01*
X114758881Y-16440819D02*
X114663643Y-16393200D01*
X114663643Y-16393200D02*
X114616024Y-16345580D01*
X114616024Y-16345580D02*
X114568405Y-16250342D01*
X114568405Y-16250342D02*
X114520786Y-16059866D01*
X114520786Y-16059866D02*
X114520786Y-15821771D01*
X114520786Y-15821771D02*
X114568405Y-15631295D01*
X114568405Y-15631295D02*
X114616024Y-15536057D01*
X114616024Y-15536057D02*
X114663643Y-15488438D01*
X114663643Y-15488438D02*
X114758881Y-15440819D01*
X115949357Y-15774152D02*
X115949357Y-16440819D01*
X115711262Y-15393200D02*
X115473167Y-16107485D01*
X115473167Y-16107485D02*
X116092214Y-16107485D01*
X71238095Y-4124819D02*
X71238095Y-4934342D01*
X71238095Y-4934342D02*
X71285714Y-5029580D01*
X71285714Y-5029580D02*
X71333333Y-5077200D01*
X71333333Y-5077200D02*
X71428571Y-5124819D01*
X71428571Y-5124819D02*
X71619047Y-5124819D01*
X71619047Y-5124819D02*
X71714285Y-5077200D01*
X71714285Y-5077200D02*
X71761904Y-5029580D01*
X71761904Y-5029580D02*
X71809523Y-4934342D01*
X71809523Y-4934342D02*
X71809523Y-4124819D01*
X72761904Y-4124819D02*
X72285714Y-4124819D01*
X72285714Y-4124819D02*
X72238095Y-4601009D01*
X72238095Y-4601009D02*
X72285714Y-4553390D01*
X72285714Y-4553390D02*
X72380952Y-4505771D01*
X72380952Y-4505771D02*
X72619047Y-4505771D01*
X72619047Y-4505771D02*
X72714285Y-4553390D01*
X72714285Y-4553390D02*
X72761904Y-4601009D01*
X72761904Y-4601009D02*
X72809523Y-4696247D01*
X72809523Y-4696247D02*
X72809523Y-4934342D01*
X72809523Y-4934342D02*
X72761904Y-5029580D01*
X72761904Y-5029580D02*
X72714285Y-5077200D01*
X72714285Y-5077200D02*
X72619047Y-5124819D01*
X72619047Y-5124819D02*
X72380952Y-5124819D01*
X72380952Y-5124819D02*
X72285714Y-5077200D01*
X72285714Y-5077200D02*
X72238095Y-5029580D01*
X174357142Y-38799580D02*
X174309523Y-38847200D01*
X174309523Y-38847200D02*
X174166666Y-38894819D01*
X174166666Y-38894819D02*
X174071428Y-38894819D01*
X174071428Y-38894819D02*
X173928571Y-38847200D01*
X173928571Y-38847200D02*
X173833333Y-38751961D01*
X173833333Y-38751961D02*
X173785714Y-38656723D01*
X173785714Y-38656723D02*
X173738095Y-38466247D01*
X173738095Y-38466247D02*
X173738095Y-38323390D01*
X173738095Y-38323390D02*
X173785714Y-38132914D01*
X173785714Y-38132914D02*
X173833333Y-38037676D01*
X173833333Y-38037676D02*
X173928571Y-37942438D01*
X173928571Y-37942438D02*
X174071428Y-37894819D01*
X174071428Y-37894819D02*
X174166666Y-37894819D01*
X174166666Y-37894819D02*
X174309523Y-37942438D01*
X174309523Y-37942438D02*
X174357142Y-37990057D01*
X175214285Y-37894819D02*
X175023809Y-37894819D01*
X175023809Y-37894819D02*
X174928571Y-37942438D01*
X174928571Y-37942438D02*
X174880952Y-37990057D01*
X174880952Y-37990057D02*
X174785714Y-38132914D01*
X174785714Y-38132914D02*
X174738095Y-38323390D01*
X174738095Y-38323390D02*
X174738095Y-38704342D01*
X174738095Y-38704342D02*
X174785714Y-38799580D01*
X174785714Y-38799580D02*
X174833333Y-38847200D01*
X174833333Y-38847200D02*
X174928571Y-38894819D01*
X174928571Y-38894819D02*
X175119047Y-38894819D01*
X175119047Y-38894819D02*
X175214285Y-38847200D01*
X175214285Y-38847200D02*
X175261904Y-38799580D01*
X175261904Y-38799580D02*
X175309523Y-38704342D01*
X175309523Y-38704342D02*
X175309523Y-38466247D01*
X175309523Y-38466247D02*
X175261904Y-38371009D01*
X175261904Y-38371009D02*
X175214285Y-38323390D01*
X175214285Y-38323390D02*
X175119047Y-38275771D01*
X175119047Y-38275771D02*
X174928571Y-38275771D01*
X174928571Y-38275771D02*
X174833333Y-38323390D01*
X174833333Y-38323390D02*
X174785714Y-38371009D01*
X174785714Y-38371009D02*
X174738095Y-38466247D01*
X175642857Y-37894819D02*
X176261904Y-37894819D01*
X176261904Y-37894819D02*
X175928571Y-38275771D01*
X175928571Y-38275771D02*
X176071428Y-38275771D01*
X176071428Y-38275771D02*
X176166666Y-38323390D01*
X176166666Y-38323390D02*
X176214285Y-38371009D01*
X176214285Y-38371009D02*
X176261904Y-38466247D01*
X176261904Y-38466247D02*
X176261904Y-38704342D01*
X176261904Y-38704342D02*
X176214285Y-38799580D01*
X176214285Y-38799580D02*
X176166666Y-38847200D01*
X176166666Y-38847200D02*
X176071428Y-38894819D01*
X176071428Y-38894819D02*
X175785714Y-38894819D01*
X175785714Y-38894819D02*
X175690476Y-38847200D01*
X175690476Y-38847200D02*
X175642857Y-38799580D01*
X121961352Y-18848380D02*
X121913733Y-18896000D01*
X121913733Y-18896000D02*
X121770876Y-18943619D01*
X121770876Y-18943619D02*
X121675638Y-18943619D01*
X121675638Y-18943619D02*
X121532781Y-18896000D01*
X121532781Y-18896000D02*
X121437543Y-18800761D01*
X121437543Y-18800761D02*
X121389924Y-18705523D01*
X121389924Y-18705523D02*
X121342305Y-18515047D01*
X121342305Y-18515047D02*
X121342305Y-18372190D01*
X121342305Y-18372190D02*
X121389924Y-18181714D01*
X121389924Y-18181714D02*
X121437543Y-18086476D01*
X121437543Y-18086476D02*
X121532781Y-17991238D01*
X121532781Y-17991238D02*
X121675638Y-17943619D01*
X121675638Y-17943619D02*
X121770876Y-17943619D01*
X121770876Y-17943619D02*
X121913733Y-17991238D01*
X121913733Y-17991238D02*
X121961352Y-18038857D01*
X122342305Y-18038857D02*
X122389924Y-17991238D01*
X122389924Y-17991238D02*
X122485162Y-17943619D01*
X122485162Y-17943619D02*
X122723257Y-17943619D01*
X122723257Y-17943619D02*
X122818495Y-17991238D01*
X122818495Y-17991238D02*
X122866114Y-18038857D01*
X122866114Y-18038857D02*
X122913733Y-18134095D01*
X122913733Y-18134095D02*
X122913733Y-18229333D01*
X122913733Y-18229333D02*
X122866114Y-18372190D01*
X122866114Y-18372190D02*
X122294686Y-18943619D01*
X122294686Y-18943619D02*
X122913733Y-18943619D01*
X123532781Y-17943619D02*
X123628019Y-17943619D01*
X123628019Y-17943619D02*
X123723257Y-17991238D01*
X123723257Y-17991238D02*
X123770876Y-18038857D01*
X123770876Y-18038857D02*
X123818495Y-18134095D01*
X123818495Y-18134095D02*
X123866114Y-18324571D01*
X123866114Y-18324571D02*
X123866114Y-18562666D01*
X123866114Y-18562666D02*
X123818495Y-18753142D01*
X123818495Y-18753142D02*
X123770876Y-18848380D01*
X123770876Y-18848380D02*
X123723257Y-18896000D01*
X123723257Y-18896000D02*
X123628019Y-18943619D01*
X123628019Y-18943619D02*
X123532781Y-18943619D01*
X123532781Y-18943619D02*
X123437543Y-18896000D01*
X123437543Y-18896000D02*
X123389924Y-18848380D01*
X123389924Y-18848380D02*
X123342305Y-18753142D01*
X123342305Y-18753142D02*
X123294686Y-18562666D01*
X123294686Y-18562666D02*
X123294686Y-18324571D01*
X123294686Y-18324571D02*
X123342305Y-18134095D01*
X123342305Y-18134095D02*
X123389924Y-18038857D01*
X123389924Y-18038857D02*
X123437543Y-17991238D01*
X123437543Y-17991238D02*
X123532781Y-17943619D01*
X124247067Y-18038857D02*
X124294686Y-17991238D01*
X124294686Y-17991238D02*
X124389924Y-17943619D01*
X124389924Y-17943619D02*
X124628019Y-17943619D01*
X124628019Y-17943619D02*
X124723257Y-17991238D01*
X124723257Y-17991238D02*
X124770876Y-18038857D01*
X124770876Y-18038857D02*
X124818495Y-18134095D01*
X124818495Y-18134095D02*
X124818495Y-18229333D01*
X124818495Y-18229333D02*
X124770876Y-18372190D01*
X124770876Y-18372190D02*
X124199448Y-18943619D01*
X124199448Y-18943619D02*
X124818495Y-18943619D01*
X8666666Y-36904819D02*
X8666666Y-37619104D01*
X8666666Y-37619104D02*
X8619047Y-37761961D01*
X8619047Y-37761961D02*
X8523809Y-37857200D01*
X8523809Y-37857200D02*
X8380952Y-37904819D01*
X8380952Y-37904819D02*
X8285714Y-37904819D01*
X9095238Y-37000057D02*
X9142857Y-36952438D01*
X9142857Y-36952438D02*
X9238095Y-36904819D01*
X9238095Y-36904819D02*
X9476190Y-36904819D01*
X9476190Y-36904819D02*
X9571428Y-36952438D01*
X9571428Y-36952438D02*
X9619047Y-37000057D01*
X9619047Y-37000057D02*
X9666666Y-37095295D01*
X9666666Y-37095295D02*
X9666666Y-37190533D01*
X9666666Y-37190533D02*
X9619047Y-37333390D01*
X9619047Y-37333390D02*
X9047619Y-37904819D01*
X9047619Y-37904819D02*
X9666666Y-37904819D01*
X61157142Y-29484819D02*
X60823809Y-29008628D01*
X60585714Y-29484819D02*
X60585714Y-28484819D01*
X60585714Y-28484819D02*
X60966666Y-28484819D01*
X60966666Y-28484819D02*
X61061904Y-28532438D01*
X61061904Y-28532438D02*
X61109523Y-28580057D01*
X61109523Y-28580057D02*
X61157142Y-28675295D01*
X61157142Y-28675295D02*
X61157142Y-28818152D01*
X61157142Y-28818152D02*
X61109523Y-28913390D01*
X61109523Y-28913390D02*
X61061904Y-28961009D01*
X61061904Y-28961009D02*
X60966666Y-29008628D01*
X60966666Y-29008628D02*
X60585714Y-29008628D01*
X62014285Y-28818152D02*
X62014285Y-29484819D01*
X61776190Y-28437200D02*
X61538095Y-29151485D01*
X61538095Y-29151485D02*
X62157142Y-29151485D01*
X62728571Y-28484819D02*
X62823809Y-28484819D01*
X62823809Y-28484819D02*
X62919047Y-28532438D01*
X62919047Y-28532438D02*
X62966666Y-28580057D01*
X62966666Y-28580057D02*
X63014285Y-28675295D01*
X63014285Y-28675295D02*
X63061904Y-28865771D01*
X63061904Y-28865771D02*
X63061904Y-29103866D01*
X63061904Y-29103866D02*
X63014285Y-29294342D01*
X63014285Y-29294342D02*
X62966666Y-29389580D01*
X62966666Y-29389580D02*
X62919047Y-29437200D01*
X62919047Y-29437200D02*
X62823809Y-29484819D01*
X62823809Y-29484819D02*
X62728571Y-29484819D01*
X62728571Y-29484819D02*
X62633333Y-29437200D01*
X62633333Y-29437200D02*
X62585714Y-29389580D01*
X62585714Y-29389580D02*
X62538095Y-29294342D01*
X62538095Y-29294342D02*
X62490476Y-29103866D01*
X62490476Y-29103866D02*
X62490476Y-28865771D01*
X62490476Y-28865771D02*
X62538095Y-28675295D01*
X62538095Y-28675295D02*
X62585714Y-28580057D01*
X62585714Y-28580057D02*
X62633333Y-28532438D01*
X62633333Y-28532438D02*
X62728571Y-28484819D01*
X71357142Y-37624819D02*
X71023809Y-37148628D01*
X70785714Y-37624819D02*
X70785714Y-36624819D01*
X70785714Y-36624819D02*
X71166666Y-36624819D01*
X71166666Y-36624819D02*
X71261904Y-36672438D01*
X71261904Y-36672438D02*
X71309523Y-36720057D01*
X71309523Y-36720057D02*
X71357142Y-36815295D01*
X71357142Y-36815295D02*
X71357142Y-36958152D01*
X71357142Y-36958152D02*
X71309523Y-37053390D01*
X71309523Y-37053390D02*
X71261904Y-37101009D01*
X71261904Y-37101009D02*
X71166666Y-37148628D01*
X71166666Y-37148628D02*
X70785714Y-37148628D01*
X72214285Y-36958152D02*
X72214285Y-37624819D01*
X71976190Y-36577200D02*
X71738095Y-37291485D01*
X71738095Y-37291485D02*
X72357142Y-37291485D01*
X73166666Y-36958152D02*
X73166666Y-37624819D01*
X72928571Y-36577200D02*
X72690476Y-37291485D01*
X72690476Y-37291485D02*
X73309523Y-37291485D01*
X71238095Y-28124819D02*
X71238095Y-28934342D01*
X71238095Y-28934342D02*
X71285714Y-29029580D01*
X71285714Y-29029580D02*
X71333333Y-29077200D01*
X71333333Y-29077200D02*
X71428571Y-29124819D01*
X71428571Y-29124819D02*
X71619047Y-29124819D01*
X71619047Y-29124819D02*
X71714285Y-29077200D01*
X71714285Y-29077200D02*
X71761904Y-29029580D01*
X71761904Y-29029580D02*
X71809523Y-28934342D01*
X71809523Y-28934342D02*
X71809523Y-28124819D01*
X72190476Y-28124819D02*
X72857142Y-28124819D01*
X72857142Y-28124819D02*
X72428571Y-29124819D01*
X166119047Y-42101009D02*
X166261904Y-42148628D01*
X166261904Y-42148628D02*
X166309523Y-42196247D01*
X166309523Y-42196247D02*
X166357142Y-42291485D01*
X166357142Y-42291485D02*
X166357142Y-42434342D01*
X166357142Y-42434342D02*
X166309523Y-42529580D01*
X166309523Y-42529580D02*
X166261904Y-42577200D01*
X166261904Y-42577200D02*
X166166666Y-42624819D01*
X166166666Y-42624819D02*
X165785714Y-42624819D01*
X165785714Y-42624819D02*
X165785714Y-41624819D01*
X165785714Y-41624819D02*
X166119047Y-41624819D01*
X166119047Y-41624819D02*
X166214285Y-41672438D01*
X166214285Y-41672438D02*
X166261904Y-41720057D01*
X166261904Y-41720057D02*
X166309523Y-41815295D01*
X166309523Y-41815295D02*
X166309523Y-41910533D01*
X166309523Y-41910533D02*
X166261904Y-42005771D01*
X166261904Y-42005771D02*
X166214285Y-42053390D01*
X166214285Y-42053390D02*
X166119047Y-42101009D01*
X166119047Y-42101009D02*
X165785714Y-42101009D01*
X166690476Y-41624819D02*
X167357142Y-41624819D01*
X167357142Y-41624819D02*
X166690476Y-42624819D01*
X166690476Y-42624819D02*
X167357142Y-42624819D01*
X168261904Y-42624819D02*
X167690476Y-42624819D01*
X167976190Y-42624819D02*
X167976190Y-41624819D01*
X167976190Y-41624819D02*
X167880952Y-41767676D01*
X167880952Y-41767676D02*
X167785714Y-41862914D01*
X167785714Y-41862914D02*
X167690476Y-41910533D01*
X165573866Y-38130951D02*
X165573866Y-37369047D01*
X165954819Y-37749999D02*
X165192914Y-37749999D01*
X189499819Y-26238094D02*
X190309342Y-26238094D01*
X190309342Y-26238094D02*
X190404580Y-26190475D01*
X190404580Y-26190475D02*
X190452200Y-26142856D01*
X190452200Y-26142856D02*
X190499819Y-26047618D01*
X190499819Y-26047618D02*
X190499819Y-25857142D01*
X190499819Y-25857142D02*
X190452200Y-25761904D01*
X190452200Y-25761904D02*
X190404580Y-25714285D01*
X190404580Y-25714285D02*
X190309342Y-25666666D01*
X190309342Y-25666666D02*
X189499819Y-25666666D01*
X190499819Y-24666666D02*
X190499819Y-25238094D01*
X190499819Y-24952380D02*
X189499819Y-24952380D01*
X189499819Y-24952380D02*
X189642676Y-25047618D01*
X189642676Y-25047618D02*
X189737914Y-25142856D01*
X189737914Y-25142856D02*
X189785533Y-25238094D01*
X190499819Y-23714285D02*
X190499819Y-24285713D01*
X190499819Y-23999999D02*
X189499819Y-23999999D01*
X189499819Y-23999999D02*
X189642676Y-24095237D01*
X189642676Y-24095237D02*
X189737914Y-24190475D01*
X189737914Y-24190475D02*
X189785533Y-24285713D01*
X73457142Y-15284819D02*
X73123809Y-14808628D01*
X72885714Y-15284819D02*
X72885714Y-14284819D01*
X72885714Y-14284819D02*
X73266666Y-14284819D01*
X73266666Y-14284819D02*
X73361904Y-14332438D01*
X73361904Y-14332438D02*
X73409523Y-14380057D01*
X73409523Y-14380057D02*
X73457142Y-14475295D01*
X73457142Y-14475295D02*
X73457142Y-14618152D01*
X73457142Y-14618152D02*
X73409523Y-14713390D01*
X73409523Y-14713390D02*
X73361904Y-14761009D01*
X73361904Y-14761009D02*
X73266666Y-14808628D01*
X73266666Y-14808628D02*
X72885714Y-14808628D01*
X73790476Y-14284819D02*
X74409523Y-14284819D01*
X74409523Y-14284819D02*
X74076190Y-14665771D01*
X74076190Y-14665771D02*
X74219047Y-14665771D01*
X74219047Y-14665771D02*
X74314285Y-14713390D01*
X74314285Y-14713390D02*
X74361904Y-14761009D01*
X74361904Y-14761009D02*
X74409523Y-14856247D01*
X74409523Y-14856247D02*
X74409523Y-15094342D01*
X74409523Y-15094342D02*
X74361904Y-15189580D01*
X74361904Y-15189580D02*
X74314285Y-15237200D01*
X74314285Y-15237200D02*
X74219047Y-15284819D01*
X74219047Y-15284819D02*
X73933333Y-15284819D01*
X73933333Y-15284819D02*
X73838095Y-15237200D01*
X73838095Y-15237200D02*
X73790476Y-15189580D01*
X74742857Y-14284819D02*
X75361904Y-14284819D01*
X75361904Y-14284819D02*
X75028571Y-14665771D01*
X75028571Y-14665771D02*
X75171428Y-14665771D01*
X75171428Y-14665771D02*
X75266666Y-14713390D01*
X75266666Y-14713390D02*
X75314285Y-14761009D01*
X75314285Y-14761009D02*
X75361904Y-14856247D01*
X75361904Y-14856247D02*
X75361904Y-15094342D01*
X75361904Y-15094342D02*
X75314285Y-15189580D01*
X75314285Y-15189580D02*
X75266666Y-15237200D01*
X75266666Y-15237200D02*
X75171428Y-15284819D01*
X75171428Y-15284819D02*
X74885714Y-15284819D01*
X74885714Y-15284819D02*
X74790476Y-15237200D01*
X74790476Y-15237200D02*
X74742857Y-15189580D01*
D12*
G36*
X13537630Y-38213046D02*
G01*
X13705982Y-38512942D01*
X13892489Y-38846059D01*
X14078229Y-39178553D01*
X14244282Y-39476575D01*
X14299521Y-39575972D01*
X14654493Y-40215332D01*
X14408338Y-40267899D01*
X14162183Y-40320466D01*
X14158774Y-40558517D01*
X14157662Y-40678637D01*
X14156247Y-40897289D01*
X14154619Y-41196760D01*
X14152867Y-41559337D01*
X14151083Y-41967306D01*
X14149356Y-42402955D01*
X14149277Y-42424027D01*
X14143190Y-44051487D01*
X13636950Y-44067494D01*
X13130711Y-44083501D01*
X13130711Y-40786490D01*
X13130711Y-37489479D01*
X13537630Y-38213046D01*
G37*
G36*
X18086836Y-40084554D02*
G01*
X18078554Y-44051487D01*
X17693386Y-44067963D01*
X17308219Y-44084439D01*
X15122765Y-40145202D01*
X14811183Y-39583132D01*
X14512869Y-39044117D01*
X14230946Y-38533850D01*
X13968536Y-38058022D01*
X13728764Y-37622327D01*
X13514751Y-37232456D01*
X13329622Y-36894102D01*
X13176498Y-36612958D01*
X13058504Y-36394715D01*
X12978761Y-36245066D01*
X12940394Y-36169704D01*
X12937310Y-36161793D01*
X12968000Y-36148993D01*
X13053901Y-36137862D01*
X13185761Y-36128952D01*
X13354327Y-36122816D01*
X13550347Y-36120005D01*
X13638389Y-36119948D01*
X14339467Y-36122277D01*
X14954197Y-37209765D01*
X15151623Y-37559190D01*
X15380371Y-37964330D01*
X15625843Y-38399309D01*
X15873438Y-38838254D01*
X16108559Y-39255291D01*
X16264692Y-39532380D01*
X16439784Y-39841209D01*
X16601027Y-40121806D01*
X16742502Y-40364167D01*
X16858285Y-40558287D01*
X16942457Y-40694161D01*
X16989095Y-40761785D01*
X16995712Y-40767505D01*
X17005449Y-40725608D01*
X17013497Y-40596695D01*
X17019929Y-40375941D01*
X17024819Y-40058517D01*
X17028239Y-39639596D01*
X17030263Y-39114349D01*
X17030963Y-38477951D01*
X17030965Y-38442563D01*
X17030965Y-36117620D01*
X17563041Y-36117620D01*
X18095118Y-36117620D01*
X18086836Y-40084554D01*
G37*
G36*
X20921192Y-39037741D02*
G01*
X22397101Y-39052860D01*
X22046748Y-39706750D01*
X21696396Y-40360640D01*
X20740451Y-40360640D01*
X19784506Y-40360640D01*
X19632608Y-40638724D01*
X19480711Y-40916807D01*
X19480711Y-41556599D01*
X19480711Y-42196391D01*
X19618923Y-42440987D01*
X19757136Y-42685583D01*
X20718078Y-42685583D01*
X21679019Y-42685583D01*
X22046490Y-43335636D01*
X22171106Y-43558713D01*
X22277625Y-43754413D01*
X22358252Y-43908009D01*
X22405192Y-44004777D01*
X22413960Y-44029873D01*
X22382778Y-44038883D01*
X22293441Y-44047428D01*
X22152261Y-44055306D01*
X21965548Y-44062319D01*
X21739614Y-44068265D01*
X21480771Y-44072945D01*
X21195330Y-44076158D01*
X20907043Y-44077665D01*
X19400127Y-44081274D01*
X19021384Y-43402960D01*
X18642640Y-42724646D01*
X18642640Y-41589468D01*
X18642640Y-40454289D01*
X19043962Y-39738456D01*
X19445284Y-39022622D01*
X20921192Y-39037741D01*
G37*
G36*
X23205097Y-39024729D02*
G01*
X23318075Y-39029832D01*
X23388788Y-39042575D01*
X23428336Y-39066428D01*
X23447821Y-39104857D01*
X23457349Y-39154576D01*
X23462674Y-39246932D01*
X23467476Y-39438277D01*
X23471545Y-39711358D01*
X23474667Y-40048917D01*
X23476630Y-40433701D01*
X23477225Y-40770240D01*
X23477665Y-42255126D01*
X23599900Y-42470355D01*
X23722135Y-42685583D01*
X24463663Y-42685583D01*
X25205191Y-42685583D01*
X25331289Y-42452725D01*
X25457386Y-42219867D01*
X25450936Y-40724102D01*
X25449863Y-40314054D01*
X25450202Y-39938933D01*
X25451833Y-39615504D01*
X25454633Y-39360537D01*
X25458483Y-39190797D01*
X25462486Y-39126067D01*
X25476688Y-39083064D01*
X25508589Y-39053986D01*
X25568979Y-39036199D01*
X25668647Y-39027066D01*
X25818384Y-39023954D01*
X25881233Y-39023798D01*
X26281980Y-39023798D01*
X26281980Y-40899275D01*
X26281980Y-42774751D01*
X25926901Y-43413119D01*
X25571822Y-44051487D01*
X24468335Y-44068993D01*
X23364848Y-44086499D01*
X23002221Y-43428724D01*
X22639594Y-42770950D01*
X22639594Y-40897374D01*
X22639594Y-39023798D01*
X23038754Y-39023798D01*
X23205097Y-39024729D01*
G37*
G36*
X29973396Y-39159079D02*
G01*
X29931827Y-39248304D01*
X29853073Y-39396177D01*
X29747782Y-39583404D01*
X29626597Y-39790690D01*
X29604603Y-39827500D01*
X29284967Y-40360640D01*
X28628502Y-40360640D01*
X27972037Y-40360640D01*
X27804462Y-40666613D01*
X27636887Y-40972585D01*
X27628279Y-42512036D01*
X27619670Y-44051487D01*
X27231124Y-44067716D01*
X27078822Y-44070826D01*
X26950646Y-44067327D01*
X26859987Y-44058006D01*
X26820236Y-44043653D01*
X26820146Y-44043498D01*
X26814485Y-43977260D01*
X26809348Y-43809510D01*
X26804923Y-43554977D01*
X26801397Y-43228393D01*
X26798957Y-42844491D01*
X26797790Y-42418002D01*
X26797716Y-42277607D01*
X26797716Y-40552164D01*
X27231623Y-39787981D01*
X27665530Y-39023798D01*
X28844041Y-39023798D01*
X30022552Y-39023798D01*
X29973396Y-39159079D01*
G37*
G36*
X33236934Y-39620557D02*
G01*
X33566752Y-40217316D01*
X33566752Y-41525096D01*
X33566752Y-42832875D01*
X33219715Y-43456712D01*
X32872678Y-44080549D01*
X31760599Y-44080549D01*
X30648520Y-44080549D01*
X30302560Y-43454771D01*
X29956599Y-42828994D01*
X29956599Y-41550233D01*
X29956599Y-41546672D01*
X30794670Y-41546672D01*
X30794670Y-42302246D01*
X30897694Y-42493915D01*
X31000718Y-42685583D01*
X31767565Y-42685583D01*
X32534412Y-42685583D01*
X32646791Y-42467620D01*
X32759170Y-42249657D01*
X32760042Y-41525563D01*
X32760914Y-40801469D01*
X32641555Y-40581055D01*
X32522196Y-40360640D01*
X31780668Y-40360640D01*
X31039140Y-40360640D01*
X30916905Y-40575869D01*
X30794670Y-40791098D01*
X30794670Y-41546672D01*
X29956599Y-41546672D01*
X29956599Y-40791098D01*
X29956599Y-40271473D01*
X30303636Y-39647636D01*
X30650672Y-39023798D01*
X31778894Y-39023798D01*
X32907117Y-39023798D01*
X33236934Y-39620557D01*
G37*
G36*
X34819104Y-37381808D02*
G01*
X35025088Y-37954042D01*
X35210645Y-38470389D01*
X35381862Y-38947968D01*
X35544828Y-39403898D01*
X35705631Y-39855301D01*
X35870359Y-40319295D01*
X36045099Y-40813002D01*
X36235941Y-41353542D01*
X36448972Y-41958033D01*
X36690280Y-42643598D01*
X36692001Y-42648489D01*
X36893674Y-43221693D01*
X36737129Y-43627260D01*
X36580584Y-44032827D01*
X36338833Y-44045905D01*
X36210460Y-44048062D01*
X36099599Y-44041461D01*
X36028812Y-44027521D01*
X36025646Y-44026173D01*
X35994652Y-43986817D01*
X35943881Y-43885611D01*
X35871568Y-43717957D01*
X35775949Y-43479255D01*
X35655259Y-43164908D01*
X35507734Y-42770319D01*
X35331610Y-42290887D01*
X35125122Y-41722016D01*
X34886506Y-41059107D01*
X34876783Y-41032004D01*
X34823564Y-40884868D01*
X34739345Y-40653586D01*
X34628775Y-40350863D01*
X34496508Y-39989405D01*
X34347195Y-39581919D01*
X34185486Y-39141110D01*
X34016033Y-38679684D01*
X33919280Y-38416444D01*
X33754088Y-37966977D01*
X33599506Y-37546073D01*
X33459260Y-37163897D01*
X33337075Y-36830617D01*
X33236677Y-36556398D01*
X33161792Y-36351408D01*
X33116145Y-36225812D01*
X33103482Y-36190274D01*
X33107975Y-36164655D01*
X33145045Y-36145461D01*
X33221205Y-36131928D01*
X33342968Y-36123290D01*
X33516848Y-36118780D01*
X33721607Y-36117620D01*
X34363769Y-36117620D01*
X34819104Y-37381808D01*
G37*
G36*
X42069191Y-39634772D02*
G01*
X42398731Y-40245745D01*
X42398731Y-41539310D01*
X42398731Y-42832875D01*
X42051695Y-43456712D01*
X41704658Y-44080549D01*
X40592579Y-44080549D01*
X39480500Y-44080549D01*
X39134539Y-43454771D01*
X38788579Y-42828994D01*
X38788579Y-41550233D01*
X38788579Y-41532071D01*
X39594417Y-41532071D01*
X39594417Y-42277154D01*
X39715292Y-42479796D01*
X39836168Y-42682438D01*
X40595172Y-42684011D01*
X41354176Y-42685583D01*
X41471896Y-42467620D01*
X41589615Y-42249657D01*
X41586615Y-41507786D01*
X41583614Y-40765915D01*
X41459227Y-40563278D01*
X41334840Y-40360640D01*
X40600343Y-40360640D01*
X39865845Y-40360640D01*
X39730131Y-40573814D01*
X39594417Y-40786988D01*
X39594417Y-41532071D01*
X38788579Y-41532071D01*
X38788579Y-40786988D01*
X38788579Y-40271473D01*
X39135615Y-39647636D01*
X39482652Y-39023798D01*
X40611152Y-39023798D01*
X41739651Y-39023798D01*
X42069191Y-39634772D01*
G37*
G36*
X44580884Y-40346110D02*
G01*
X44797630Y-40722445D01*
X44973480Y-41023594D01*
X45113030Y-41256740D01*
X45220874Y-41429070D01*
X45301605Y-41547767D01*
X45359818Y-41620017D01*
X45400107Y-41653005D01*
X45418936Y-41656785D01*
X45450844Y-41667884D01*
X45497069Y-41713971D01*
X45562465Y-41802702D01*
X45651891Y-41941730D01*
X45770201Y-42138712D01*
X45922251Y-42401301D01*
X46112899Y-42737153D01*
X46180917Y-42857910D01*
X46863071Y-44070672D01*
X46305572Y-44077419D01*
X45748072Y-44084167D01*
X45282606Y-43283159D01*
X45138014Y-43038148D01*
X45007053Y-42823412D01*
X44897534Y-42651185D01*
X44817269Y-42533703D01*
X44774073Y-42483199D01*
X44771104Y-42482151D01*
X44734558Y-42520581D01*
X44659559Y-42627745D01*
X44553935Y-42791454D01*
X44425517Y-42999520D01*
X44282134Y-43239755D01*
X44257750Y-43281350D01*
X43790432Y-44080549D01*
X43255749Y-44080549D01*
X43078670Y-44078070D01*
X42926916Y-44071206D01*
X42810959Y-44060819D01*
X42741274Y-44047771D01*
X42725651Y-44036956D01*
X42749101Y-43986537D01*
X42812938Y-43866298D01*
X42911146Y-43687116D01*
X43037709Y-43459865D01*
X43186609Y-43195420D01*
X43351830Y-42904658D01*
X43360758Y-42889016D01*
X43530476Y-42590765D01*
X43687718Y-42312557D01*
X43825691Y-42066560D01*
X43937603Y-41864942D01*
X44016659Y-41719871D01*
X44055887Y-41643909D01*
X44120494Y-41503149D01*
X43415539Y-40263474D01*
X42710585Y-39023798D01*
X43266622Y-39023798D01*
X43822660Y-39023798D01*
X44580884Y-40346110D01*
G37*
G36*
X48912009Y-39907228D02*
G01*
X48948820Y-39908496D01*
X49374544Y-39924714D01*
X49662672Y-40738444D01*
X49899465Y-41410164D01*
X50109916Y-42013292D01*
X50292722Y-42543923D01*
X50446579Y-42998155D01*
X50570181Y-43372082D01*
X50662225Y-43661803D01*
X50721405Y-43863413D01*
X50746419Y-43973008D01*
X50747208Y-43983987D01*
X50740031Y-44025864D01*
X50711470Y-44053713D01*
X50650981Y-44070280D01*
X50548021Y-44078307D01*
X50392047Y-44080539D01*
X50376123Y-44080549D01*
X50005037Y-44080549D01*
X49886783Y-43746338D01*
X49834201Y-43599688D01*
X49752915Y-43375438D01*
X49649923Y-43092780D01*
X49532225Y-42770905D01*
X49406819Y-42429005D01*
X49351572Y-42278718D01*
X49178875Y-41807211D01*
X49019234Y-41367330D01*
X48876012Y-40968608D01*
X48752567Y-40620580D01*
X48652260Y-40332777D01*
X48578452Y-40114733D01*
X48534501Y-39975980D01*
X48523097Y-39928325D01*
X48553337Y-39916168D01*
X48636146Y-39908232D01*
X48759658Y-39905067D01*
X48912009Y-39907228D01*
G37*
G36*
X55246989Y-38215826D02*
G01*
X55550000Y-38759946D01*
X55550000Y-39634160D01*
X55550000Y-40508373D01*
X55267319Y-41015742D01*
X54984639Y-41523112D01*
X54208610Y-41523112D01*
X53947154Y-41522832D01*
X53743066Y-41525666D01*
X53589262Y-41537126D01*
X53478656Y-41562725D01*
X53404164Y-41607975D01*
X53358700Y-41678387D01*
X53335180Y-41779475D01*
X53326518Y-41916750D01*
X53325630Y-42095724D01*
X53325889Y-42209878D01*
X53325889Y-42684057D01*
X54429886Y-42699351D01*
X55533884Y-42714645D01*
X55542965Y-43397597D01*
X55552046Y-44080549D01*
X54052165Y-44080549D01*
X52552285Y-44080549D01*
X52552285Y-42656249D01*
X52552285Y-41231950D01*
X52850444Y-40710741D01*
X53148604Y-40189533D01*
X53908531Y-40187901D01*
X54148923Y-40187099D01*
X54333230Y-40184940D01*
X54469838Y-40180050D01*
X54567128Y-40171052D01*
X54633485Y-40156572D01*
X54677292Y-40135235D01*
X54706932Y-40105665D01*
X54730788Y-40066487D01*
X54738544Y-40051746D01*
X54783170Y-39933765D01*
X54804310Y-39776574D01*
X54808630Y-39595765D01*
X54808634Y-39457115D01*
X54804379Y-39345928D01*
X54789466Y-39259178D01*
X54757495Y-39193837D01*
X54702065Y-39146878D01*
X54616777Y-39115274D01*
X54495231Y-39095999D01*
X54331026Y-39086025D01*
X54117763Y-39082325D01*
X53849042Y-39081872D01*
X53722240Y-39081922D01*
X53473781Y-39080735D01*
X53242124Y-39077379D01*
X53036272Y-39072160D01*
X52865227Y-39065382D01*
X52737990Y-39057353D01*
X52663564Y-39048377D01*
X52653014Y-39045595D01*
X52583493Y-39002458D01*
X52553908Y-38930899D01*
X52566425Y-38821654D01*
X52623211Y-38665459D01*
X52726430Y-38453051D01*
X52840955Y-38241699D01*
X53129625Y-37723579D01*
X54036801Y-37697643D01*
X54943977Y-37671706D01*
X55246989Y-38215826D01*
G37*
G36*
X56703404Y-43397597D02*
G01*
X56694290Y-44051487D01*
X56347779Y-44067984D01*
X56206759Y-44073256D01*
X56092884Y-44074772D01*
X56019437Y-44072533D01*
X55998703Y-44067984D01*
X55993514Y-43977645D01*
X55989855Y-43805683D01*
X55987851Y-43586693D01*
X55987627Y-43355272D01*
X55989308Y-43146016D01*
X55993019Y-42993521D01*
X55994702Y-42961670D01*
X56009509Y-42743707D01*
X56361013Y-42743707D01*
X56712518Y-42743707D01*
X56703404Y-43397597D01*
G37*
G36*
X58602615Y-37732822D02*
G01*
X59462025Y-37749627D01*
X59762358Y-38281650D01*
X60062691Y-38813673D01*
X60062691Y-40881497D01*
X60062691Y-42949320D01*
X59747837Y-43514935D01*
X59432984Y-44080549D01*
X58594885Y-44080549D01*
X57756786Y-44080549D01*
X57443114Y-43512804D01*
X57129442Y-42945060D01*
X57129442Y-42296272D01*
X57867602Y-42296272D01*
X57972231Y-42490928D01*
X58076860Y-42685583D01*
X58592567Y-42685583D01*
X59108275Y-42685583D01*
X59198681Y-42529400D01*
X59289087Y-42373217D01*
X59289087Y-40883753D01*
X59289087Y-39394289D01*
X59198681Y-39238105D01*
X59108275Y-39081922D01*
X58575746Y-39081922D01*
X58380899Y-39079990D01*
X58226660Y-39082252D01*
X58108223Y-39100792D01*
X58020786Y-39147697D01*
X57959542Y-39235052D01*
X57919689Y-39374942D01*
X57896421Y-39579453D01*
X57884935Y-39860671D01*
X57880426Y-40230681D01*
X57878090Y-40701568D01*
X57877265Y-40838978D01*
X57867602Y-42296272D01*
X57129442Y-42296272D01*
X57129442Y-40881565D01*
X57129442Y-38818070D01*
X57436324Y-38267044D01*
X57743206Y-37716018D01*
X58602615Y-37732822D01*
G37*
G36*
X51753085Y-39899737D02*
G01*
X51904805Y-39904837D01*
X52036424Y-39915523D01*
X52132302Y-39930140D01*
X52173701Y-39944192D01*
X52185862Y-39968393D01*
X52183119Y-40021186D01*
X52162307Y-40112588D01*
X52120262Y-40252617D01*
X52053821Y-40451290D01*
X51959819Y-40718625D01*
X51835093Y-41064640D01*
X51720631Y-41378665D01*
X51582157Y-41758348D01*
X51448869Y-42125464D01*
X51326791Y-42463297D01*
X51221946Y-42755132D01*
X51140357Y-42984252D01*
X51088048Y-43133943D01*
X51086409Y-43138750D01*
X51022402Y-43320670D01*
X50969237Y-43460738D01*
X50937374Y-43531551D01*
X50935515Y-43534052D01*
X50907370Y-43502463D01*
X50855717Y-43392632D01*
X50790265Y-43225948D01*
X50769396Y-43168071D01*
X50692321Y-42948623D01*
X50619344Y-42738269D01*
X50565064Y-42579117D01*
X50560987Y-42566921D01*
X50492388Y-42361074D01*
X50940713Y-41128363D01*
X51389039Y-39895652D01*
X51753085Y-39899737D01*
G37*
G36*
X39096599Y-36118708D02*
G01*
X39265465Y-36121741D01*
X39400427Y-36126369D01*
X39491693Y-36132246D01*
X39529475Y-36139023D01*
X39529949Y-36139892D01*
X39512485Y-36193156D01*
X39462516Y-36332931D01*
X39383678Y-36549464D01*
X39279605Y-36833004D01*
X39153932Y-37173799D01*
X39010296Y-37562096D01*
X38852332Y-37988144D01*
X38683674Y-38442190D01*
X38507958Y-38914483D01*
X38328820Y-39395270D01*
X38149893Y-39874799D01*
X37974815Y-40343319D01*
X37807220Y-40791077D01*
X37650743Y-41208321D01*
X37509019Y-41585299D01*
X37385684Y-41912259D01*
X37284373Y-42179450D01*
X37208722Y-42377118D01*
X37162365Y-42495513D01*
X37149621Y-42525419D01*
X37121832Y-42566935D01*
X37094835Y-42566691D01*
X37059770Y-42510559D01*
X37007779Y-42384410D01*
X36930934Y-42176678D01*
X36786696Y-41777891D01*
X36676059Y-41465062D01*
X36595921Y-41228584D01*
X36543180Y-41058848D01*
X36514733Y-40946248D01*
X36507476Y-40881175D01*
X36508895Y-40869810D01*
X36529934Y-40806474D01*
X36582572Y-40658772D01*
X36662361Y-40438714D01*
X36764853Y-40158310D01*
X36885600Y-39829569D01*
X37020155Y-39464503D01*
X37164070Y-39075121D01*
X37312896Y-38673433D01*
X37462185Y-38271448D01*
X37607490Y-37881178D01*
X37744363Y-37514632D01*
X37868355Y-37183819D01*
X37975020Y-36900751D01*
X38059908Y-36677437D01*
X38102054Y-36568078D01*
X38277283Y-36117620D01*
X38903616Y-36117620D01*
X39096599Y-36118708D01*
G37*
G36*
X20826801Y-40924109D02*
G01*
X21192942Y-40929779D01*
X21311129Y-40932436D01*
X21707157Y-40941876D01*
X21697931Y-41508581D01*
X21688706Y-42075286D01*
X20850635Y-42080984D01*
X20618800Y-42081630D01*
X20403344Y-42080475D01*
X20214198Y-42077712D01*
X20061293Y-42073532D01*
X19954562Y-42068128D01*
X19907805Y-42062771D01*
X19803046Y-42038859D01*
X19803540Y-41563022D01*
X19806946Y-41331643D01*
X19815552Y-41140840D01*
X19827681Y-41024023D01*
X19831263Y-41009728D01*
X19866337Y-40980580D01*
X19950508Y-40957553D01*
X20086206Y-40940519D01*
X20275866Y-40929352D01*
X20521920Y-40923924D01*
X20826801Y-40924109D01*
G37*
G36*
X46295623Y-39025371D02*
G01*
X46863071Y-39026943D01*
X46186168Y-40214158D01*
X46013847Y-40515511D01*
X45856560Y-40788890D01*
X45720192Y-41024202D01*
X45610626Y-41211352D01*
X45533749Y-41340246D01*
X45495443Y-41400790D01*
X45492436Y-41404119D01*
X45464613Y-41366256D01*
X45401186Y-41261079D01*
X45311509Y-41104585D01*
X45204937Y-40912773D01*
X45202334Y-40908024D01*
X44929061Y-40409182D01*
X45328618Y-39716490D01*
X45728175Y-39023798D01*
X46295623Y-39025371D01*
G37*
D11*
X61646359Y-5820000D02*
X61953641Y-5820000D01*
X61646359Y-6580000D02*
X61953641Y-6580000D01*
X32532164Y-25140000D02*
X32747836Y-25140000D01*
X32532164Y-25860000D02*
X32747836Y-25860000D01*
X20000000Y-13440000D02*
X19200000Y-13440000D01*
X20000000Y-13440000D02*
X20800000Y-13440000D01*
X20000000Y-16560000D02*
X19200000Y-16560000D01*
X20000000Y-16560000D02*
X20800000Y-16560000D01*
X18700000Y-13490000D02*
X18460000Y-13160000D01*
X18940000Y-13160000D01*
X18700000Y-13490000D01*
G36*
X18700000Y-13490000D02*
G01*
X18460000Y-13160000D01*
X18940000Y-13160000D01*
X18700000Y-13490000D01*
G37*
X73946359Y-3620000D02*
X74253641Y-3620000D01*
X73946359Y-4380000D02*
X74253641Y-4380000D01*
X155846359Y-43620000D02*
X156153641Y-43620000D01*
X155846359Y-44380000D02*
X156153641Y-44380000D01*
X138390000Y-45785000D02*
X138390000Y-48285000D01*
X138390000Y-48285000D02*
X139440000Y-48285000D01*
X142440000Y-43815000D02*
X139560000Y-43815000D01*
X142560000Y-48285000D02*
X142560000Y-49275000D01*
X143610000Y-45785000D02*
X143610000Y-48285000D01*
X143610000Y-48285000D02*
X142560000Y-48285000D01*
X65846359Y-5820000D02*
X66153641Y-5820000D01*
X65846359Y-6580000D02*
X66153641Y-6580000D01*
X65892164Y-9440000D02*
X66107836Y-9440000D01*
X65892164Y-10160000D02*
X66107836Y-10160000D01*
X157892164Y-6440000D02*
X158107836Y-6440000D01*
X157892164Y-7160000D02*
X158107836Y-7160000D01*
D13*
X154960000Y-48000000D02*
G75*
G02*
X154860000Y-48000000I-50000J0D01*
G01*
X154860000Y-48000000D02*
G75*
G02*
X154960000Y-48000000I50000J0D01*
G01*
D14*
X174155000Y-41155000D02*
X174155000Y-41577500D01*
X174155000Y-41155000D02*
X174577500Y-41155000D01*
X174155000Y-42845000D02*
X174155000Y-42422500D01*
X174155000Y-42845000D02*
X174577500Y-42845000D01*
X175845000Y-41155000D02*
X175422500Y-41155000D01*
X175845000Y-41155000D02*
X175845000Y-41577500D01*
X175845000Y-42845000D02*
X175422500Y-42845000D01*
X175845000Y-42845000D02*
X175845000Y-42422500D01*
D15*
X173869000Y-41600000D02*
G75*
G02*
X173669000Y-41600000I-100000J0D01*
G01*
X173669000Y-41600000D02*
G75*
G02*
X173869000Y-41600000I100000J0D01*
G01*
D13*
X158950000Y-39500000D02*
G75*
G02*
X158850000Y-39500000I-50000J0D01*
G01*
X158850000Y-39500000D02*
G75*
G02*
X158950000Y-39500000I50000J0D01*
G01*
D11*
X195846359Y-36620000D02*
X196153641Y-36620000D01*
X195846359Y-37380000D02*
X196153641Y-37380000D01*
X29859420Y-24490000D02*
X30140580Y-24490000D01*
X29859420Y-25510000D02*
X30140580Y-25510000D01*
X65892164Y-21440000D02*
X66107836Y-21440000D01*
X65892164Y-22160000D02*
X66107836Y-22160000D01*
D13*
X158960000Y-48000000D02*
G75*
G02*
X158860000Y-48000000I-50000J0D01*
G01*
X158860000Y-48000000D02*
G75*
G02*
X158960000Y-48000000I50000J0D01*
G01*
D11*
X73946359Y-27620000D02*
X74253641Y-27620000D01*
X73946359Y-28380000D02*
X74253641Y-28380000D01*
X73946359Y-39620000D02*
X74253641Y-39620000D01*
X73946359Y-40380000D02*
X74253641Y-40380000D01*
X65892164Y-45440000D02*
X66107836Y-45440000D01*
X65892164Y-46160000D02*
X66107836Y-46160000D01*
X34846359Y-29620000D02*
X35153641Y-29620000D01*
X34846359Y-30380000D02*
X35153641Y-30380000D01*
X35650000Y-24100000D02*
X34550000Y-24100000D01*
X35650000Y-25900000D02*
X34350000Y-25900000D01*
X34300000Y-24100000D02*
X34020000Y-24100000D01*
X34300000Y-23820000D01*
X34300000Y-24100000D01*
G36*
X34300000Y-24100000D02*
G01*
X34020000Y-24100000D01*
X34300000Y-23820000D01*
X34300000Y-24100000D01*
G37*
X69746359Y-3620000D02*
X70053641Y-3620000D01*
X69746359Y-4380000D02*
X70053641Y-4380000D01*
X182950000Y-48000000D02*
G75*
G02*
X181050000Y-48000000I-950000J0D01*
G01*
X181050000Y-48000000D02*
G75*
G02*
X182950000Y-48000000I950000J0D01*
G01*
X109890000Y-19890000D02*
X109890000Y-20840000D01*
X109890000Y-30110000D02*
X109890000Y-29160000D01*
X110840000Y-19890000D02*
X109890000Y-19890000D01*
X110840000Y-30110000D02*
X109890000Y-30110000D01*
X119160000Y-19890000D02*
X120110000Y-19890000D01*
X119160000Y-30110000D02*
X120110000Y-30110000D01*
X120110000Y-19890000D02*
X120110000Y-20840000D01*
X120110000Y-30110000D02*
X120110000Y-29160000D01*
X109300000Y-20840000D02*
X108960000Y-20370000D01*
X109640000Y-20370000D01*
X109300000Y-20840000D01*
G36*
X109300000Y-20840000D02*
G01*
X108960000Y-20370000D01*
X109640000Y-20370000D01*
X109300000Y-20840000D01*
G37*
X61692164Y-33440000D02*
X61907836Y-33440000D01*
X61692164Y-34160000D02*
X61907836Y-34160000D01*
X44397936Y-13640000D02*
X45602064Y-13640000D01*
X44397936Y-16360000D02*
X45602064Y-16360000D01*
X95000000Y-36390000D02*
X93500000Y-36390000D01*
X95000000Y-36390000D02*
X96500000Y-36390000D01*
X95000000Y-39610000D02*
X93500000Y-39610000D01*
X95000000Y-39610000D02*
X96500000Y-39610000D01*
X92787500Y-36565000D02*
X92547500Y-36235000D01*
X93027500Y-36235000D01*
X92787500Y-36565000D01*
G36*
X92787500Y-36565000D02*
G01*
X92547500Y-36235000D01*
X93027500Y-36235000D01*
X92787500Y-36565000D01*
G37*
X71846359Y-47620000D02*
X72153641Y-47620000D01*
X71846359Y-48380000D02*
X72153641Y-48380000D01*
X71846359Y-11620000D02*
X72153641Y-11620000D01*
X71846359Y-12380000D02*
X72153641Y-12380000D01*
X39859420Y-24490000D02*
X40140580Y-24490000D01*
X39859420Y-25510000D02*
X40140580Y-25510000D01*
X51859420Y-29490000D02*
X52140580Y-29490000D01*
X51859420Y-30510000D02*
X52140580Y-30510000D01*
X167950000Y-5000000D02*
G75*
G02*
X166050000Y-5000000I-950000J0D01*
G01*
X166050000Y-5000000D02*
G75*
G02*
X167950000Y-5000000I950000J0D01*
G01*
X69746359Y-15620000D02*
X70053641Y-15620000D01*
X69746359Y-16380000D02*
X70053641Y-16380000D01*
X61692164Y-9440000D02*
X61907836Y-9440000D01*
X61692164Y-10160000D02*
X61907836Y-10160000D01*
X23846359Y-11620000D02*
X24153641Y-11620000D01*
X23846359Y-12380000D02*
X24153641Y-12380000D01*
X46392164Y-24640000D02*
X46607836Y-24640000D01*
X46392164Y-25360000D02*
X46607836Y-25360000D01*
X69850000Y-18580000D02*
X69850000Y-18095000D01*
X69850000Y-22150000D02*
X69850000Y-21375000D01*
X69850000Y-22150000D02*
X70625000Y-22150000D01*
X70540000Y-17855000D02*
X70150000Y-17855000D01*
X74150000Y-17850000D02*
X73375000Y-17850000D01*
X74150000Y-17850000D02*
X74150000Y-18625000D01*
X74150000Y-22150000D02*
X73375000Y-22150000D01*
X74150000Y-22150000D02*
X74150000Y-21375000D01*
X69850000Y-17855000D02*
X69610000Y-17525000D01*
X70090000Y-17525000D01*
X69850000Y-17855000D01*
G36*
X69850000Y-17855000D02*
G01*
X69610000Y-17525000D01*
X70090000Y-17525000D01*
X69850000Y-17855000D01*
G37*
X61692164Y-21440000D02*
X61907836Y-21440000D01*
X61692164Y-22160000D02*
X61907836Y-22160000D01*
X166846359Y-34620000D02*
X167153641Y-34620000D01*
X166846359Y-35380000D02*
X167153641Y-35380000D01*
X65846359Y-41820000D02*
X66153641Y-41820000D01*
X65846359Y-42580000D02*
X66153641Y-42580000D01*
X1300000Y-23100000D02*
X1300000Y-25100000D01*
X1300000Y-27000000D02*
X1300000Y-28900000D01*
X1300000Y-28900000D02*
X10700000Y-28900000D01*
X10700000Y-23100000D02*
X10700000Y-25100000D01*
X10700000Y-27000000D02*
X10700000Y-28900000D01*
X164846359Y-14620000D02*
X165153641Y-14620000D01*
X164846359Y-15380000D02*
X165153641Y-15380000D01*
X75492164Y-19640000D02*
X75707836Y-19640000D01*
X75492164Y-20360000D02*
X75707836Y-20360000D01*
X50150000Y-21590000D02*
X53910000Y-21590000D01*
X50150000Y-28410000D02*
X53910000Y-28410000D01*
X53910000Y-21590000D02*
X53910000Y-22850000D01*
X53910000Y-28410000D02*
X53910000Y-27150000D01*
X48870000Y-21690000D02*
X48630000Y-21360000D01*
X49110000Y-21360000D01*
X48870000Y-21690000D01*
G36*
X48870000Y-21690000D02*
G01*
X48630000Y-21360000D01*
X49110000Y-21360000D01*
X48870000Y-21690000D01*
G37*
X164846359Y-17620000D02*
X165153641Y-17620000D01*
X164846359Y-18380000D02*
X165153641Y-18380000D01*
X75492164Y-7640000D02*
X75707836Y-7640000D01*
X75492164Y-8360000D02*
X75707836Y-8360000D01*
X6846359Y-30620000D02*
X7153641Y-30620000D01*
X6846359Y-31380000D02*
X7153641Y-31380000D01*
X177846359Y-37620000D02*
X178153641Y-37620000D01*
X177846359Y-38380000D02*
X178153641Y-38380000D01*
X23192164Y-13640000D02*
X23407836Y-13640000D01*
X23192164Y-14360000D02*
X23407836Y-14360000D01*
X61646359Y-17820000D02*
X61953641Y-17820000D01*
X61646359Y-18580000D02*
X61953641Y-18580000D01*
X122390000Y-45785000D02*
X122390000Y-48285000D01*
X122390000Y-48285000D02*
X123440000Y-48285000D01*
X126440000Y-43815000D02*
X123560000Y-43815000D01*
X126560000Y-48285000D02*
X126560000Y-49275000D01*
X127610000Y-45785000D02*
X127610000Y-48285000D01*
X127610000Y-48285000D02*
X126560000Y-48285000D01*
X94846359Y-34620000D02*
X95153641Y-34620000D01*
X94846359Y-35380000D02*
X95153641Y-35380000D01*
X75492164Y-31640000D02*
X75707836Y-31640000D01*
X75492164Y-32360000D02*
X75707836Y-32360000D01*
X69746359Y-39620000D02*
X70053641Y-39620000D01*
X69746359Y-40380000D02*
X70053641Y-40380000D01*
X150670000Y-3670000D02*
X152000000Y-3670000D01*
X150670000Y-5000000D02*
X150670000Y-3670000D01*
X150670000Y-6270000D02*
X150670000Y-19030000D01*
X150670000Y-6270000D02*
X153330000Y-6270000D01*
X150670000Y-19030000D02*
X153330000Y-19030000D01*
X153330000Y-6270000D02*
X153330000Y-19030000D01*
X163950000Y-5000000D02*
G75*
G02*
X162050000Y-5000000I-950000J0D01*
G01*
X162050000Y-5000000D02*
G75*
G02*
X163950000Y-5000000I950000J0D01*
G01*
D13*
X150960000Y-48000000D02*
G75*
G02*
X150860000Y-48000000I-50000J0D01*
G01*
X150860000Y-48000000D02*
G75*
G02*
X150960000Y-48000000I50000J0D01*
G01*
D11*
X78390000Y-45785000D02*
X78390000Y-48285000D01*
X78390000Y-48285000D02*
X79440000Y-48285000D01*
X82440000Y-43815000D02*
X79560000Y-43815000D01*
X82560000Y-48285000D02*
X82560000Y-49275000D01*
X83610000Y-45785000D02*
X83610000Y-48285000D01*
X83610000Y-48285000D02*
X82560000Y-48285000D01*
X69746359Y-27620000D02*
X70053641Y-27620000D01*
X69746359Y-28380000D02*
X70053641Y-28380000D01*
X112492564Y-32404400D02*
X112708236Y-32404400D01*
X112492564Y-33124400D02*
X112708236Y-33124400D01*
X117954564Y-16933000D02*
X118170236Y-16933000D01*
X117954564Y-17653000D02*
X118170236Y-17653000D01*
X11859420Y-31490000D02*
X12140580Y-31490000D01*
X11859420Y-32510000D02*
X12140580Y-32510000D01*
X69850000Y-42580000D02*
X69850000Y-42095000D01*
X69850000Y-46150000D02*
X69850000Y-45375000D01*
X69850000Y-46150000D02*
X70625000Y-46150000D01*
X70540000Y-41855000D02*
X70150000Y-41855000D01*
X74150000Y-41850000D02*
X73375000Y-41850000D01*
X74150000Y-41850000D02*
X74150000Y-42625000D01*
X74150000Y-46150000D02*
X73375000Y-46150000D01*
X74150000Y-46150000D02*
X74150000Y-45375000D01*
X69850000Y-41855000D02*
X69610000Y-41525000D01*
X70090000Y-41525000D01*
X69850000Y-41855000D01*
G36*
X69850000Y-41855000D02*
G01*
X69610000Y-41525000D01*
X70090000Y-41525000D01*
X69850000Y-41855000D01*
G37*
X147337221Y-24490000D02*
X147662779Y-24490000D01*
X147337221Y-25510000D02*
X147662779Y-25510000D01*
X2846359Y-30620000D02*
X3153641Y-30620000D01*
X2846359Y-31380000D02*
X3153641Y-31380000D01*
D14*
X157400000Y-8100000D02*
X157400000Y-11900000D01*
X157400000Y-11900000D02*
X162600000Y-11900000D01*
X162600000Y-8100000D02*
X157400000Y-8100000D01*
X162600000Y-11900000D02*
X162600000Y-8100000D01*
D16*
X157900000Y-7700000D02*
G75*
G02*
X157700000Y-7700000I-100000J0D01*
G01*
X157700000Y-7700000D02*
G75*
G02*
X157900000Y-7700000I100000J0D01*
G01*
D11*
X65892164Y-33440000D02*
X66107836Y-33440000D01*
X65892164Y-34160000D02*
X66107836Y-34160000D01*
X34846359Y-19620000D02*
X35153641Y-19620000D01*
X34846359Y-20380000D02*
X35153641Y-20380000D01*
X159892164Y-42140000D02*
X160107836Y-42140000D01*
X159892164Y-42860000D02*
X160107836Y-42860000D01*
X61692164Y-45440000D02*
X61907836Y-45440000D01*
X61692164Y-46160000D02*
X61907836Y-46160000D01*
X151846359Y-43620000D02*
X152153641Y-43620000D01*
X151846359Y-44380000D02*
X152153641Y-44380000D01*
X61646359Y-41820000D02*
X61953641Y-41820000D01*
X61646359Y-42580000D02*
X61953641Y-42580000D01*
X106390000Y-45785000D02*
X106390000Y-48285000D01*
X106390000Y-48285000D02*
X107440000Y-48285000D01*
X110440000Y-43815000D02*
X107560000Y-43815000D01*
X110560000Y-48285000D02*
X110560000Y-49275000D01*
X111610000Y-45785000D02*
X111610000Y-48285000D01*
X111610000Y-48285000D02*
X110560000Y-48285000D01*
X159846359Y-43620000D02*
X160153641Y-43620000D01*
X159846359Y-44380000D02*
X160153641Y-44380000D01*
X71846359Y-23620000D02*
X72153641Y-23620000D01*
X71846359Y-24380000D02*
X72153641Y-24380000D01*
X65846359Y-17820000D02*
X66153641Y-17820000D01*
X65846359Y-18580000D02*
X66153641Y-18580000D01*
X208846359Y-12620000D02*
X209153641Y-12620000D01*
X208846359Y-13380000D02*
X209153641Y-13380000D01*
X48742164Y-28800000D02*
X48957836Y-28800000D01*
X48742164Y-29520000D02*
X48957836Y-29520000D01*
X75492164Y-43640000D02*
X75707836Y-43640000D01*
X75492164Y-44360000D02*
X75707836Y-44360000D01*
X178950000Y-48000000D02*
G75*
G02*
X177050000Y-48000000I-950000J0D01*
G01*
X177050000Y-48000000D02*
G75*
G02*
X178950000Y-48000000I950000J0D01*
G01*
X65846359Y-29820000D02*
X66153641Y-29820000D01*
X65846359Y-30580000D02*
X66153641Y-30580000D01*
X210572164Y-14140000D02*
X210787836Y-14140000D01*
X210572164Y-14860000D02*
X210787836Y-14860000D01*
X114198664Y-16786000D02*
X114414336Y-16786000D01*
X114198664Y-17506000D02*
X114414336Y-17506000D01*
X69850000Y-6580000D02*
X69850000Y-6095000D01*
X69850000Y-10150000D02*
X69850000Y-9375000D01*
X69850000Y-10150000D02*
X70625000Y-10150000D01*
X70540000Y-5855000D02*
X70150000Y-5855000D01*
X74150000Y-5850000D02*
X73375000Y-5850000D01*
X74150000Y-5850000D02*
X74150000Y-6625000D01*
X74150000Y-10150000D02*
X73375000Y-10150000D01*
X74150000Y-10150000D02*
X74150000Y-9375000D01*
X69850000Y-5855000D02*
X69610000Y-5525000D01*
X70090000Y-5525000D01*
X69850000Y-5855000D01*
G36*
X69850000Y-5855000D02*
G01*
X69610000Y-5525000D01*
X70090000Y-5525000D01*
X69850000Y-5855000D01*
G37*
X174892164Y-39240000D02*
X175107836Y-39240000D01*
X174892164Y-39960000D02*
X175107836Y-39960000D01*
X122972564Y-19288800D02*
X123188236Y-19288800D01*
X122972564Y-20008800D02*
X123188236Y-20008800D01*
X5940000Y-38540000D02*
X5940000Y-46360000D01*
X5940000Y-40140000D02*
X6860000Y-40140000D01*
X5940000Y-46360000D02*
X12060000Y-46360000D01*
X6700000Y-42500000D02*
X6700000Y-44100000D01*
X6700000Y-44100000D02*
X7700000Y-44100000D01*
X6860000Y-38540000D02*
X5940000Y-38540000D01*
X6860000Y-40140000D02*
X6860000Y-38540000D01*
X7140000Y-40140000D02*
X6860000Y-40140000D01*
X7140000Y-40140000D02*
X7140000Y-38925000D01*
X7200000Y-44100000D02*
X7200000Y-46360000D01*
X7700000Y-42500000D02*
X6700000Y-42500000D01*
X7700000Y-44100000D02*
X7700000Y-42500000D01*
X7700000Y-44100000D02*
X7700000Y-46360000D01*
X8500000Y-42000000D02*
X9500000Y-42000000D01*
X8500000Y-46360000D02*
X8500000Y-42000000D01*
X9500000Y-42000000D02*
X9500000Y-46360000D01*
X10300000Y-42500000D02*
X11300000Y-42500000D01*
X10300000Y-44100000D02*
X10300000Y-42500000D01*
X11140000Y-38540000D02*
X11140000Y-40140000D01*
X11140000Y-40140000D02*
X10860000Y-40140000D01*
X11300000Y-42500000D02*
X11300000Y-44100000D01*
X11300000Y-44100000D02*
X10300000Y-44100000D01*
X12060000Y-38540000D02*
X11140000Y-38540000D01*
X12060000Y-40140000D02*
X11140000Y-40140000D01*
X12060000Y-46360000D02*
X12060000Y-38540000D01*
X61646359Y-29820000D02*
X61953641Y-29820000D01*
X61646359Y-30580000D02*
X61953641Y-30580000D01*
X71846359Y-35620000D02*
X72153641Y-35620000D01*
X71846359Y-36380000D02*
X72153641Y-36380000D01*
X69850000Y-30580000D02*
X69850000Y-30095000D01*
X69850000Y-34150000D02*
X69850000Y-33375000D01*
X69850000Y-34150000D02*
X70625000Y-34150000D01*
X70540000Y-29855000D02*
X70150000Y-29855000D01*
X74150000Y-29850000D02*
X73375000Y-29850000D01*
X74150000Y-29850000D02*
X74150000Y-30625000D01*
X74150000Y-34150000D02*
X73375000Y-34150000D01*
X74150000Y-34150000D02*
X74150000Y-33375000D01*
X69850000Y-29855000D02*
X69610000Y-29525000D01*
X70090000Y-29525000D01*
X69850000Y-29855000D01*
G36*
X69850000Y-29855000D02*
G01*
X69610000Y-29525000D01*
X70090000Y-29525000D01*
X69850000Y-29855000D01*
G37*
X162650000Y-39000000D02*
X162650000Y-43000000D01*
X165000000Y-45350000D02*
X169000000Y-45350000D01*
X169000000Y-36650000D02*
X165000000Y-36650000D01*
X171350000Y-43000000D02*
X171350000Y-39000000D01*
D17*
X186550000Y-16000000D02*
X193360000Y-16000000D01*
X186550000Y-34000000D02*
X186550000Y-16000000D01*
X191730000Y-34000000D02*
X191730000Y-16000000D01*
X192000000Y-34000000D02*
X186550000Y-34000000D01*
X193360000Y-34000000D02*
X191950000Y-34000000D01*
X211240000Y-16000000D02*
X212050000Y-16000000D01*
X212050000Y-16000000D02*
X212050000Y-17330000D01*
X212050000Y-32670000D02*
X212050000Y-34000000D01*
X212050000Y-34000000D02*
X211240000Y-34000000D01*
D18*
X186580000Y-34000000D02*
G75*
G02*
X186520000Y-34000000I-30000J0D01*
G01*
X186520000Y-34000000D02*
G75*
G02*
X186580000Y-34000000I30000J0D01*
G01*
D11*
X73946359Y-15620000D02*
X74253641Y-15620000D01*
X73946359Y-16380000D02*
X74253641Y-16380000D01*
M02*
