M48
; DRILL file {KiCad 8.0.5} date 2026-08-21T04:43:53+0530
; FORMAT={-:-/ absolute / metric / decimal}
; #@! TF.CreationDate,2026-08-21T04:43:53+05:30
; #@! TF.GenerationSoftware,Kicad,Pcbnew,8.0.5
; #@! TF.FileFunction,Plated,1,2,PTH
FMAT,2
METRIC
; #@! TA.AperFunction,Plated,PTH,ViaDrill
T1C0.100
; #@! TA.AperFunction,Plated,PTH,ViaDrill
T2C0.300
; #@! TA.AperFunction,Plated,PTH,ComponentDrill
T3C0.300
; #@! TA.AperFunction,Plated,PTH,ComponentDrill
T4C0.600
; #@! TA.AperFunction,Plated,PTH,ComponentDrill
T5C0.700
; #@! TA.AperFunction,Plated,PTH,ComponentDrill
T6C0.750
; #@! TA.AperFunction,Plated,PTH,ComponentDrill
T7C1.000
%
G90
G05
T1
X176.5Y-37.5
X200.0Y-31.0
X204.0Y-36.0
T2
X2.891Y-29.748
X4.75Y-22.22
X7.339Y-19.722
X9.883Y-31.615
X19.565Y-16.92
X21.137Y-16.764
X32.367Y-27.412
X33.022Y-26.312
X33.618Y-23.788
X34.681Y-20.829
X34.87Y-23.788
X37.068Y-25.046
X37.573Y-23.827
X38.301Y-25.592
X39.822Y-24.072
X42.449Y-16.151
X47.328Y-23.351
X51.975Y-29.16
X60.552Y-6.938
X62.12Y-29.37
X63.648Y-8.432
X64.261Y-19.551
X64.284Y-44.834
X64.869Y-6.821
X64.897Y-32.974
X65.517Y-43.601
X65.552Y-15.673
X66.132Y-19.551
X66.143Y-7.45
X68.324Y-43.151
X69.175Y-31.468
X69.854Y-16.893
X70.323Y-17.566
X70.33Y-30.224
X70.434Y-29.38
X70.864Y-41.179
X71.798Y-10.81
X72.71Y-39.004
X72.718Y-40.377
X73.025Y-17.025
X73.397Y-29.21
X73.584Y-48.981
X73.647Y-5.037
X73.899Y-45.652
X74.003Y-35.688
X74.376Y-10.769
X74.482Y-21.828
X74.648Y-41.38
X74.998Y-8.839
X75.279Y-47.318
X75.44Y-24.631
X75.442Y-45.393
X75.459Y-36.29
X75.887Y-42.2
X76.411Y-10.458
X76.975Y-22.341
X77.092Y-37.369
X81.309Y-47.218
X82.81Y-48.639
X94.226Y-38.139
X105.53Y-45.612
X106.038Y-46.239
X107.597Y-45.8
X108.476Y-45.686
X108.513Y-32.764
X108.591Y-33.57
X109.067Y-46.414
X110.0Y-47.217
X110.593Y-26.853
X110.817Y-47.88
X111.68Y-25.105
X124.394Y-46.545
X125.484Y-27.581
X126.0Y-47.218
X126.369Y-28.966
X144.221Y-29.297
X146.735Y-25.98
X152.323Y-43.167
X156.485Y-47.145
X157.368Y-43.153
X158.266Y-41.905
X160.442Y-38.518
X160.479Y-44.921
X161.043Y-39.067
X161.294Y-9.75
X162.867Y-39.012
X163.0Y-34.5
X163.04Y-9.653
X164.0Y-16.5
X164.255Y-5.453
X168.027Y-20.845
X168.412Y-34.95
X170.5Y-39.672
X172.841Y-29.775
X174.403Y-28.429
X175.0Y-44.5
X175.454Y-40.427
X175.85Y-43.5
X176.037Y-37.817
X194.0Y-33.0
X194.652Y-17.372
X196.315Y-37.824
X196.35Y-28.05
X196.35Y-32.575
X196.837Y-36.177
X197.145Y-37.635
X198.27Y-28.452
X203.908Y-22.768
X205.112Y-29.693
X205.65Y-35.177
X206.28Y-28.884
X208.059Y-21.07
X209.16Y-14.833
X210.004Y-19.108
T3
X200.36Y-25.8
X200.36Y-27.2
X201.06Y-25.1
X201.06Y-26.5
X201.06Y-27.9
X201.76Y-25.8
X201.76Y-27.2
X202.46Y-25.1
X202.46Y-26.5
X202.46Y-27.9
X203.16Y-25.8
X203.16Y-27.2
T5
X163.0Y-5.0
X167.0Y-5.0
X178.0Y-48.0
X182.0Y-48.0
T6
X8.0Y-40.0
X10.0Y-40.0
T7
X152.0Y-5.0
X152.0Y-7.54
X152.0Y-10.08
X152.0Y-12.62
X152.0Y-15.16
X152.0Y-17.7
T4
G00X1.68Y-21.32
M15
G01X1.68Y-22.42
M16
G05
G00X1.68Y-25.75
M15
G01X1.68Y-26.35
M16
G05
G00X10.32Y-21.32
M15
G01X10.32Y-22.42
M16
G05
G00X10.32Y-25.75
M15
G01X10.32Y-26.35
M16
G05
M30
