G04 #@! TF.GenerationSoftware,KiCad,Pcbnew,8.0.5*
G04 #@! TF.CreationDate,2026-08-21T04:40:23+05:30*
G04 #@! TF.ProjectId,NeuroVox v2.0,4e657572-6f56-46f7-9820-76322e302e6b,rev?*
G04 #@! TF.SameCoordinates,Original*
G04 #@! TF.FileFunction,Copper,L1,Top*
G04 #@! TF.FilePolarity,Positive*
%FSLAX46Y46*%
G04 Gerber Fmt 4.6, Leading zero omitted, Abs format (unit mm)*
G04 Created by KiCad (PCBNEW 8.0.5) date 2026-08-21 04:40:23*
%MOMM*%
%LPD*%
G01*
G04 APERTURE LIST*
G04 Aperture macros list*
%AMRoundRect*
0 Rectangle with rounded corners*
0 $1 Rounding radius*
0 $2 $3 $4 $5 $6 $7 $8 $9 X,Y pos of 4 corners*
0 Add a 4 corners polygon primitive as box body*
4,1,4,$2,$3,$4,$5,$6,$7,$8,$9,$2,$3,0*
0 Add four circle primitives for the rounded corners*
1,1,$1+$1,$2,$3*
1,1,$1+$1,$4,$5*
1,1,$1+$1,$6,$7*
1,1,$1+$1,$8,$9*
0 Add four rect primitives between the rounded corners*
20,1,$1+$1,$2,$3,$4,$5,0*
20,1,$1+$1,$4,$5,$6,$7,0*
20,1,$1+$1,$6,$7,$8,$9,0*
20,1,$1+$1,$8,$9,$2,$3,0*%
G04 Aperture macros list end*
G04 #@! TA.AperFunction,SMDPad,CuDef*
%ADD10RoundRect,0.135000X-0.135000X-0.185000X0.135000X-0.185000X0.135000X0.185000X-0.135000X0.185000X0*%
G04 #@! TD*
G04 #@! TA.AperFunction,SMDPad,CuDef*
%ADD11RoundRect,0.140000X-0.140000X-0.170000X0.140000X-0.170000X0.140000X0.170000X-0.140000X0.170000X0*%
G04 #@! TD*
G04 #@! TA.AperFunction,SMDPad,CuDef*
%ADD12RoundRect,0.150000X-0.512500X-0.150000X0.512500X-0.150000X0.512500X0.150000X-0.512500X0.150000X0*%
G04 #@! TD*
G04 #@! TA.AperFunction,SMDPad,CuDef*
%ADD13RoundRect,0.150000X-0.150000X-0.625000X0.150000X-0.625000X0.150000X0.625000X-0.150000X0.625000X0*%
G04 #@! TD*
G04 #@! TA.AperFunction,SMDPad,CuDef*
%ADD14RoundRect,0.250000X-0.350000X-0.650000X0.350000X-0.650000X0.350000X0.650000X-0.350000X0.650000X0*%
G04 #@! TD*
G04 #@! TA.AperFunction,SMDPad,CuDef*
%ADD15RoundRect,0.147500X-0.147500X-0.172500X0.147500X-0.172500X0.147500X0.172500X-0.147500X0.172500X0*%
G04 #@! TD*
G04 #@! TA.AperFunction,SMDPad,CuDef*
%ADD16C,0.250000*%
G04 #@! TD*
G04 #@! TA.AperFunction,SMDPad,CuDef*
%ADD17C,0.280000*%
G04 #@! TD*
G04 #@! TA.AperFunction,SMDPad,CuDef*
%ADD18RoundRect,0.225000X-0.225000X-0.250000X0.225000X-0.250000X0.225000X0.250000X-0.225000X0.250000X0*%
G04 #@! TD*
G04 #@! TA.AperFunction,SMDPad,CuDef*
%ADD19RoundRect,0.085000X-0.265000X-0.085000X0.265000X-0.085000X0.265000X0.085000X-0.265000X0.085000X0*%
G04 #@! TD*
G04 #@! TA.AperFunction,ComponentPad*
%ADD20C,1.500000*%
G04 #@! TD*
G04 #@! TA.AperFunction,SMDPad,CuDef*
%ADD21RoundRect,0.075000X-0.662500X-0.075000X0.662500X-0.075000X0.662500X0.075000X-0.662500X0.075000X0*%
G04 #@! TD*
G04 #@! TA.AperFunction,SMDPad,CuDef*
%ADD22RoundRect,0.075000X-0.075000X-0.662500X0.075000X-0.662500X0.075000X0.662500X-0.075000X0.662500X0*%
G04 #@! TD*
G04 #@! TA.AperFunction,SMDPad,CuDef*
%ADD23RoundRect,0.250000X-0.375000X-1.075000X0.375000X-1.075000X0.375000X1.075000X-0.375000X1.075000X0*%
G04 #@! TD*
G04 #@! TA.AperFunction,SMDPad,CuDef*
%ADD24RoundRect,0.100000X-0.712500X-0.100000X0.712500X-0.100000X0.712500X0.100000X-0.712500X0.100000X0*%
G04 #@! TD*
G04 #@! TA.AperFunction,SMDPad,CuDef*
%ADD25R,0.950000X0.300000*%
G04 #@! TD*
G04 #@! TA.AperFunction,SMDPad,CuDef*
%ADD26R,0.300000X0.950000*%
G04 #@! TD*
G04 #@! TA.AperFunction,SMDPad,CuDef*
%ADD27R,2.100000X2.100000*%
G04 #@! TD*
G04 #@! TA.AperFunction,SMDPad,CuDef*
%ADD28R,0.600000X1.450000*%
G04 #@! TD*
G04 #@! TA.AperFunction,SMDPad,CuDef*
%ADD29R,0.300000X1.450000*%
G04 #@! TD*
G04 #@! TA.AperFunction,ComponentPad*
%ADD30O,1.000000X2.100000*%
G04 #@! TD*
G04 #@! TA.AperFunction,ComponentPad*
%ADD31O,1.000000X1.600000*%
G04 #@! TD*
G04 #@! TA.AperFunction,SMDPad,CuDef*
%ADD32RoundRect,0.375000X-0.625000X-0.375000X0.625000X-0.375000X0.625000X0.375000X-0.625000X0.375000X0*%
G04 #@! TD*
G04 #@! TA.AperFunction,SMDPad,CuDef*
%ADD33RoundRect,0.500000X-0.500000X-1.400000X0.500000X-1.400000X0.500000X1.400000X-0.500000X1.400000X0*%
G04 #@! TD*
G04 #@! TA.AperFunction,ComponentPad*
%ADD34R,1.700000X1.700000*%
G04 #@! TD*
G04 #@! TA.AperFunction,ComponentPad*
%ADD35O,1.700000X1.700000*%
G04 #@! TD*
G04 #@! TA.AperFunction,SMDPad,CuDef*
%ADD36RoundRect,0.218750X-0.218750X-0.256250X0.218750X-0.256250X0.218750X0.256250X-0.218750X0.256250X0*%
G04 #@! TD*
G04 #@! TA.AperFunction,SMDPad,CuDef*
%ADD37R,0.300000X0.525000*%
G04 #@! TD*
G04 #@! TA.AperFunction,SMDPad,CuDef*
%ADD38R,0.425000X0.300000*%
G04 #@! TD*
G04 #@! TA.AperFunction,ComponentPad*
%ADD39RoundRect,0.250000X-0.350000X-0.625000X0.350000X-0.625000X0.350000X0.625000X-0.350000X0.625000X0*%
G04 #@! TD*
G04 #@! TA.AperFunction,ComponentPad*
%ADD40O,1.200000X1.750000*%
G04 #@! TD*
G04 #@! TA.AperFunction,SMDPad,CuDef*
%ADD41R,2.000000X2.000000*%
G04 #@! TD*
G04 #@! TA.AperFunction,ComponentPad*
%ADD42C,0.500000*%
G04 #@! TD*
G04 #@! TA.AperFunction,SMDPad,CuDef*
%ADD43R,0.900000X1.500000*%
G04 #@! TD*
G04 #@! TA.AperFunction,SMDPad,CuDef*
%ADD44R,1.500000X0.900000*%
G04 #@! TD*
G04 #@! TA.AperFunction,SMDPad,CuDef*
%ADD45R,0.900000X0.900000*%
G04 #@! TD*
G04 #@! TA.AperFunction,ViaPad*
%ADD46C,0.600000*%
G04 #@! TD*
G04 #@! TA.AperFunction,ViaPad*
%ADD47C,0.300000*%
G04 #@! TD*
G04 #@! TA.AperFunction,Conductor*
%ADD48C,0.200000*%
G04 #@! TD*
G04 #@! TA.AperFunction,Conductor*
%ADD49C,0.150000*%
G04 #@! TD*
G04 #@! TA.AperFunction,Conductor*
%ADD50C,0.100000*%
G04 #@! TD*
G04 #@! TA.AperFunction,Conductor*
%ADD51C,0.120000*%
G04 #@! TD*
G04 #@! TA.AperFunction,Conductor*
%ADD52C,0.050000*%
G04 #@! TD*
G04 #@! TA.AperFunction,Conductor*
%ADD53C,0.130000*%
G04 #@! TD*
G04 APERTURE END LIST*
D10*
X61290000Y-6200000D03*
X62310000Y-6200000D03*
D11*
X32160000Y-25500000D03*
X33120000Y-25500000D03*
D12*
X18862500Y-14050000D03*
X18862500Y-15000000D03*
X18862500Y-15950000D03*
X21137500Y-15950000D03*
X21137500Y-14050000D03*
D10*
X73590000Y-4000000D03*
X74610000Y-4000000D03*
X155490000Y-44000000D03*
X156510000Y-44000000D03*
D13*
X142000000Y-48500000D03*
X141000000Y-48500000D03*
X140000000Y-48500000D03*
D14*
X143300000Y-44625000D03*
X138700000Y-44625000D03*
D10*
X65490000Y-6200000D03*
X66510000Y-6200000D03*
D11*
X65520000Y-9800000D03*
X66480000Y-9800000D03*
X157520000Y-6800000D03*
X158480000Y-6800000D03*
D15*
X155515000Y-48000000D03*
X156485000Y-48000000D03*
D16*
X174600000Y-41600000D03*
X175000000Y-41600000D03*
X175400000Y-41600000D03*
X174600000Y-42000000D03*
X175000000Y-42000000D03*
X175400000Y-42000000D03*
X174600000Y-42400000D03*
X175000000Y-42400000D03*
X175400000Y-42400000D03*
D17*
X159500000Y-39500000D03*
X160000000Y-39500000D03*
X160500000Y-39500000D03*
X159500000Y-40000000D03*
X160000000Y-40000000D03*
X160500000Y-40000000D03*
X159500000Y-40500000D03*
X160000000Y-40500000D03*
X160500000Y-40500000D03*
D10*
X195490000Y-37000000D03*
X196510000Y-37000000D03*
D18*
X29225000Y-25000000D03*
X30775000Y-25000000D03*
D11*
X65520000Y-21800000D03*
X66480000Y-21800000D03*
D15*
X159515000Y-48000000D03*
X160485000Y-48000000D03*
D10*
X73590000Y-28000000D03*
X74610000Y-28000000D03*
X73590000Y-40000000D03*
X74610000Y-40000000D03*
D11*
X65520000Y-45800000D03*
X66480000Y-45800000D03*
D10*
X34490000Y-30000000D03*
X35510000Y-30000000D03*
D19*
X34250000Y-24500000D03*
X34250000Y-25000000D03*
X34250000Y-25500000D03*
X35750000Y-25500000D03*
X35750000Y-25000000D03*
X35750000Y-24500000D03*
D10*
X69390000Y-4000000D03*
X70410000Y-4000000D03*
D20*
X182000000Y-48000000D03*
D21*
X109337500Y-21250000D03*
X109337500Y-21750000D03*
X109337500Y-22250000D03*
X109337500Y-22750000D03*
X109337500Y-23250000D03*
X109337500Y-23750000D03*
X109337500Y-24250000D03*
X109337500Y-24750000D03*
X109337500Y-25250000D03*
X109337500Y-25750000D03*
X109337500Y-26250000D03*
X109337500Y-26750000D03*
X109337500Y-27250000D03*
X109337500Y-27750000D03*
X109337500Y-28250000D03*
X109337500Y-28750000D03*
D22*
X111250000Y-30662500D03*
X111750000Y-30662500D03*
X112250000Y-30662500D03*
X112750000Y-30662500D03*
X113250000Y-30662500D03*
X113750000Y-30662500D03*
X114250000Y-30662500D03*
X114750000Y-30662500D03*
X115250000Y-30662500D03*
X115750000Y-30662500D03*
X116250000Y-30662500D03*
X116750000Y-30662500D03*
X117250000Y-30662500D03*
X117750000Y-30662500D03*
X118250000Y-30662500D03*
X118750000Y-30662500D03*
D21*
X120662500Y-28750000D03*
X120662500Y-28250000D03*
X120662500Y-27750000D03*
X120662500Y-27250000D03*
X120662500Y-26750000D03*
X120662500Y-26250000D03*
X120662500Y-25750000D03*
X120662500Y-25250000D03*
X120662500Y-24750000D03*
X120662500Y-24250000D03*
X120662500Y-23750000D03*
X120662500Y-23250000D03*
X120662500Y-22750000D03*
X120662500Y-22250000D03*
X120662500Y-21750000D03*
X120662500Y-21250000D03*
D22*
X118750000Y-19337500D03*
X118250000Y-19337500D03*
X117750000Y-19337500D03*
X117250000Y-19337500D03*
X116750000Y-19337500D03*
X116250000Y-19337500D03*
X115750000Y-19337500D03*
X115250000Y-19337500D03*
X114750000Y-19337500D03*
X114250000Y-19337500D03*
X113750000Y-19337500D03*
X113250000Y-19337500D03*
X112750000Y-19337500D03*
X112250000Y-19337500D03*
X111750000Y-19337500D03*
X111250000Y-19337500D03*
D11*
X61320000Y-33800000D03*
X62280000Y-33800000D03*
D23*
X43600000Y-15000000D03*
X46400000Y-15000000D03*
D24*
X92887500Y-37025000D03*
X92887500Y-37675000D03*
X92887500Y-38325000D03*
X92887500Y-38975000D03*
X97112500Y-38975000D03*
X97112500Y-38325000D03*
X97112500Y-37675000D03*
X97112500Y-37025000D03*
D10*
X71490000Y-48000000D03*
X72510000Y-48000000D03*
X71490000Y-12000000D03*
X72510000Y-12000000D03*
D18*
X39225000Y-25000000D03*
X40775000Y-25000000D03*
X51225000Y-30000000D03*
X52775000Y-30000000D03*
D20*
X167000000Y-5000000D03*
D10*
X69390000Y-16000000D03*
X70410000Y-16000000D03*
D11*
X61320000Y-9800000D03*
X62280000Y-9800000D03*
D10*
X23490000Y-12000000D03*
X24510000Y-12000000D03*
D11*
X46020000Y-25000000D03*
X46980000Y-25000000D03*
D25*
X70170000Y-19000000D03*
X70170000Y-19500000D03*
X70170000Y-20000000D03*
X70170000Y-20500000D03*
X70170000Y-21000000D03*
D26*
X71000000Y-21830000D03*
X71500000Y-21830000D03*
X72000000Y-21830000D03*
X72500000Y-21830000D03*
X73000000Y-21830000D03*
D25*
X73830000Y-21000000D03*
X73830000Y-20500000D03*
X73830000Y-20000000D03*
X73830000Y-19500000D03*
X73830000Y-19000000D03*
D26*
X73000000Y-18170000D03*
X72500000Y-18170000D03*
X72000000Y-18170000D03*
X71500000Y-18170000D03*
X71000000Y-18170000D03*
D27*
X72000000Y-20000000D03*
D11*
X61320000Y-21800000D03*
X62280000Y-21800000D03*
D10*
X166490000Y-35000000D03*
X167510000Y-35000000D03*
X65490000Y-42200000D03*
X66510000Y-42200000D03*
D28*
X2750000Y-20955000D03*
X3550000Y-20955000D03*
D29*
X4750000Y-20955000D03*
X5750000Y-20955000D03*
X6250000Y-20955000D03*
X7250000Y-20955000D03*
D28*
X8450000Y-20955000D03*
X9250000Y-20955000D03*
X9250000Y-20955000D03*
X8450000Y-20955000D03*
D29*
X7750000Y-20955000D03*
X6750000Y-20955000D03*
X5250000Y-20955000D03*
X4250000Y-20955000D03*
D28*
X3550000Y-20955000D03*
X2750000Y-20955000D03*
D30*
X1680000Y-21870000D03*
D31*
X1680000Y-26050000D03*
D30*
X10320000Y-21870000D03*
D31*
X10320000Y-26050000D03*
D10*
X164490000Y-15000000D03*
X165510000Y-15000000D03*
D11*
X75120000Y-20000000D03*
X76080000Y-20000000D03*
D32*
X48850000Y-22700000D03*
X48850000Y-25000000D03*
X48850000Y-27300000D03*
D33*
X55150000Y-25000000D03*
D10*
X164490000Y-18000000D03*
X165510000Y-18000000D03*
D11*
X75120000Y-8000000D03*
X76080000Y-8000000D03*
D10*
X6490000Y-31000000D03*
X7510000Y-31000000D03*
X177490000Y-38000000D03*
X178510000Y-38000000D03*
D11*
X22820000Y-14000000D03*
X23780000Y-14000000D03*
D10*
X61290000Y-18200000D03*
X62310000Y-18200000D03*
D13*
X126000000Y-48500000D03*
X125000000Y-48500000D03*
X124000000Y-48500000D03*
D14*
X127300000Y-44625000D03*
X122700000Y-44625000D03*
D10*
X94490000Y-35000000D03*
X95510000Y-35000000D03*
D11*
X75120000Y-32000000D03*
X76080000Y-32000000D03*
D10*
X69390000Y-40000000D03*
X70410000Y-40000000D03*
D34*
X152000000Y-5000000D03*
D35*
X152000000Y-7540000D03*
X152000000Y-10080000D03*
X152000000Y-12620000D03*
X152000000Y-15160000D03*
X152000000Y-17700000D03*
D20*
X163000000Y-5000000D03*
D15*
X151515000Y-48000000D03*
X152485000Y-48000000D03*
D13*
X82000000Y-48500000D03*
X81000000Y-48500000D03*
X80000000Y-48500000D03*
D14*
X83300000Y-44625000D03*
X78700000Y-44625000D03*
D10*
X69390000Y-28000000D03*
X70410000Y-28000000D03*
D11*
X112120400Y-32764400D03*
X113080400Y-32764400D03*
X117582400Y-17293000D03*
X118542400Y-17293000D03*
D18*
X11225000Y-32000000D03*
X12775000Y-32000000D03*
D25*
X70170000Y-43000000D03*
X70170000Y-43500000D03*
X70170000Y-44000000D03*
X70170000Y-44500000D03*
X70170000Y-45000000D03*
D26*
X71000000Y-45830000D03*
X71500000Y-45830000D03*
X72000000Y-45830000D03*
X72500000Y-45830000D03*
X73000000Y-45830000D03*
D25*
X73830000Y-45000000D03*
X73830000Y-44500000D03*
X73830000Y-44000000D03*
X73830000Y-43500000D03*
X73830000Y-43000000D03*
D26*
X73000000Y-42170000D03*
X72500000Y-42170000D03*
X72000000Y-42170000D03*
X71500000Y-42170000D03*
X71000000Y-42170000D03*
D27*
X72000000Y-44000000D03*
D36*
X146712500Y-25000000D03*
X148287500Y-25000000D03*
D10*
X2490000Y-31000000D03*
X3510000Y-31000000D03*
D37*
X157750000Y-8437500D03*
D38*
X157687500Y-9250000D03*
X157687500Y-9750000D03*
X157687500Y-10250000D03*
X157687500Y-10750000D03*
D37*
X157750000Y-11562500D03*
X158250000Y-11562500D03*
X158750000Y-11562500D03*
X159250000Y-11562500D03*
X159750000Y-11562500D03*
X160250000Y-11562500D03*
X160750000Y-11562500D03*
X161250000Y-11562500D03*
X161750000Y-11562500D03*
X162250000Y-11562500D03*
D38*
X162312500Y-10750000D03*
X162312500Y-10250000D03*
X162312500Y-9750000D03*
X162312500Y-9250000D03*
D37*
X162250000Y-8437500D03*
X161750000Y-8437500D03*
X161250000Y-8437500D03*
X160750000Y-8437500D03*
X160250000Y-8437500D03*
X159750000Y-8437500D03*
X159250000Y-8437500D03*
X158750000Y-8437500D03*
X158250000Y-8437500D03*
D11*
X65520000Y-33800000D03*
X66480000Y-33800000D03*
D10*
X34490000Y-20000000D03*
X35510000Y-20000000D03*
D11*
X159520000Y-42500000D03*
X160480000Y-42500000D03*
X61320000Y-45800000D03*
X62280000Y-45800000D03*
D10*
X151490000Y-44000000D03*
X152510000Y-44000000D03*
X61290000Y-42200000D03*
X62310000Y-42200000D03*
D13*
X110000000Y-48500000D03*
X109000000Y-48500000D03*
X108000000Y-48500000D03*
D14*
X111300000Y-44625000D03*
X106700000Y-44625000D03*
D10*
X159490000Y-44000000D03*
X160510000Y-44000000D03*
X71490000Y-24000000D03*
X72510000Y-24000000D03*
X65490000Y-18200000D03*
X66510000Y-18200000D03*
X208490000Y-13000000D03*
X209510000Y-13000000D03*
D11*
X48370000Y-29160000D03*
X49330000Y-29160000D03*
X75120000Y-44000000D03*
X76080000Y-44000000D03*
D20*
X178000000Y-48000000D03*
D10*
X65490000Y-30200000D03*
X66510000Y-30200000D03*
D11*
X210200000Y-14500000D03*
X211160000Y-14500000D03*
X113826500Y-17146000D03*
X114786500Y-17146000D03*
D25*
X70170000Y-7000000D03*
X70170000Y-7500000D03*
X70170000Y-8000000D03*
X70170000Y-8500000D03*
X70170000Y-9000000D03*
D26*
X71000000Y-9830000D03*
X71500000Y-9830000D03*
X72000000Y-9830000D03*
X72500000Y-9830000D03*
X73000000Y-9830000D03*
D25*
X73830000Y-9000000D03*
X73830000Y-8500000D03*
X73830000Y-8000000D03*
X73830000Y-7500000D03*
X73830000Y-7000000D03*
D26*
X73000000Y-6170000D03*
X72500000Y-6170000D03*
X72000000Y-6170000D03*
X71500000Y-6170000D03*
X71000000Y-6170000D03*
D27*
X72000000Y-8000000D03*
D11*
X174520000Y-39600000D03*
X175480000Y-39600000D03*
X122600400Y-19648800D03*
X123560400Y-19648800D03*
D39*
X8000000Y-40000000D03*
D40*
X10000000Y-40000000D03*
D10*
X61290000Y-30200000D03*
X62310000Y-30200000D03*
X71490000Y-36000000D03*
X72510000Y-36000000D03*
D25*
X70170000Y-31000000D03*
X70170000Y-31500000D03*
X70170000Y-32000000D03*
X70170000Y-32500000D03*
X70170000Y-33000000D03*
D26*
X71000000Y-33830000D03*
X71500000Y-33830000D03*
X72000000Y-33830000D03*
X72500000Y-33830000D03*
X73000000Y-33830000D03*
D25*
X73830000Y-33000000D03*
X73830000Y-32500000D03*
X73830000Y-32000000D03*
X73830000Y-31500000D03*
X73830000Y-31000000D03*
D26*
X73000000Y-30170000D03*
X72500000Y-30170000D03*
X72000000Y-30170000D03*
X71500000Y-30170000D03*
X71000000Y-30170000D03*
D27*
X72000000Y-32000000D03*
D41*
X163500000Y-37500000D03*
X163500000Y-44500000D03*
X170500000Y-44500000D03*
X170500000Y-37500000D03*
D42*
X201060000Y-27900000D03*
X202460000Y-27900000D03*
X200360000Y-27200000D03*
X201760000Y-27200000D03*
X203160000Y-27200000D03*
X201060000Y-26500000D03*
X202460000Y-26500000D03*
X200360000Y-25800000D03*
X201760000Y-25800000D03*
X203160000Y-25800000D03*
X201060000Y-25100000D03*
X202460000Y-25100000D03*
D43*
X194050000Y-33900000D03*
X195320000Y-33900000D03*
X196590000Y-33900000D03*
X197860000Y-33900000D03*
X199130000Y-33900000D03*
X200400000Y-33900000D03*
X201670000Y-33900000D03*
X202940000Y-33900000D03*
X204210000Y-33900000D03*
X205480000Y-33900000D03*
X206750000Y-33900000D03*
X208020000Y-33900000D03*
X209290000Y-33900000D03*
X210560000Y-33900000D03*
D44*
X211950000Y-31980000D03*
X211950000Y-30710000D03*
X211950000Y-29440000D03*
X211950000Y-28170000D03*
X211950000Y-26900000D03*
X211950000Y-25630000D03*
X211950000Y-24360000D03*
X211950000Y-23090000D03*
X211950000Y-21820000D03*
X211950000Y-20550000D03*
X211950000Y-19280000D03*
X211950000Y-18010000D03*
D43*
X210560000Y-16100000D03*
X209290000Y-16100000D03*
X208020000Y-16100000D03*
X206750000Y-16100000D03*
X205480000Y-16100000D03*
X204210000Y-16100000D03*
X202940000Y-16100000D03*
X201670000Y-16100000D03*
X200400000Y-16100000D03*
X199130000Y-16100000D03*
X197860000Y-16100000D03*
X196590000Y-16100000D03*
X195320000Y-16100000D03*
X194050000Y-16100000D03*
D45*
X200360000Y-27900000D03*
X201760000Y-27900000D03*
X203160000Y-27900000D03*
X200360000Y-26500000D03*
X201760000Y-26500000D03*
X203160000Y-26500000D03*
X200360000Y-25100000D03*
X201760000Y-25100000D03*
X203160000Y-25100000D03*
D10*
X73590000Y-16000000D03*
X74610000Y-16000000D03*
D46*
X21137500Y-16764200D03*
X7339300Y-19722000D03*
X9883100Y-31615300D03*
X194000000Y-33000000D03*
X161293900Y-9750000D03*
X197144600Y-37634600D03*
X175453736Y-40426935D03*
X33617600Y-23788000D03*
X39821500Y-24072100D03*
X174999972Y-44500000D03*
X156485000Y-47145500D03*
X47328500Y-23351500D03*
X51974800Y-29160000D03*
X34869900Y-23788000D03*
X146734700Y-25980300D03*
X74647700Y-41380000D03*
X70864000Y-41179100D03*
X38301300Y-25592300D03*
X144221500Y-29297300D03*
X170500000Y-39671800D03*
X161043500Y-39067300D03*
X19565300Y-16920300D03*
X33022400Y-26312200D03*
X42448700Y-16151300D03*
X37068000Y-25046100D03*
X37573100Y-23826900D03*
X34680700Y-20829300D03*
X32367000Y-27411800D03*
X108513100Y-32764500D03*
X172841028Y-29775268D03*
X72709800Y-39003900D03*
X75886800Y-42200400D03*
X111679900Y-25104600D03*
X74997700Y-8838700D03*
X69854000Y-16893100D03*
X73646500Y-5036700D03*
X72717800Y-40376500D03*
X168027100Y-20844700D03*
X73025000Y-17025000D03*
X4750000Y-22220200D03*
X2890900Y-29748300D03*
X76410700Y-10457700D03*
X74375900Y-10769400D03*
X81309200Y-47218400D03*
X60551800Y-6938200D03*
X66142900Y-7450200D03*
X63647900Y-8432100D03*
X75279300Y-47317700D03*
X64868900Y-6821100D03*
X73583500Y-48981400D03*
X71798400Y-10810100D03*
X74481600Y-21827500D03*
X76975000Y-22341500D03*
X110000000Y-47217100D03*
X65552000Y-15672700D03*
X66132300Y-19551400D03*
X64261500Y-19551400D03*
X70323400Y-17565700D03*
X107597100Y-45799700D03*
X106037600Y-46238800D03*
X75440300Y-24631100D03*
X75458500Y-36290100D03*
X77091800Y-37368800D03*
X126000000Y-47218400D03*
X62119600Y-29370400D03*
X64896600Y-32973500D03*
X69175500Y-31468500D03*
X109067200Y-46413900D03*
X70330300Y-30224000D03*
X110817300Y-47880200D03*
X74003200Y-35688300D03*
X73396700Y-29210000D03*
X70434400Y-29380500D03*
X94226400Y-38138600D03*
X73898800Y-45652400D03*
X64284300Y-44833900D03*
X65517500Y-43600700D03*
X82810000Y-48639400D03*
X68324200Y-43151300D03*
X105530300Y-45612100D03*
X108476300Y-45685800D03*
X124394500Y-46545500D03*
X75442000Y-45392700D03*
X110593100Y-26852900D03*
X108590700Y-33570300D03*
X125483800Y-27580700D03*
X126368700Y-28965600D03*
X206280100Y-28884200D03*
X205112270Y-29693030D03*
X209160200Y-14832900D03*
X196350000Y-28050100D03*
X196350000Y-32575000D03*
X152322700Y-43167300D03*
X196837000Y-36177000D03*
D47*
X200000000Y-31000000D03*
X204000000Y-36000000D03*
D46*
X205650000Y-35176900D03*
X175850003Y-43500000D03*
X163040300Y-9653000D03*
X158265800Y-41905200D03*
X168412131Y-34950000D03*
X164000000Y-16500000D03*
X163000000Y-34500000D03*
X160478900Y-44921200D03*
X208059400Y-21069800D03*
X174402900Y-28429300D03*
X210004200Y-19107900D03*
X203907608Y-22767532D03*
X198270500Y-28451800D03*
X196315200Y-37823600D03*
X164255400Y-5453300D03*
X194652200Y-17372400D03*
X157367700Y-43153100D03*
X160441700Y-38517600D03*
X162867000Y-39012500D03*
X176036625Y-37816929D03*
D47*
X176500000Y-37500000D03*
D48*
X21137500Y-15950000D02*
X22820000Y-14267500D01*
X7831500Y-19722000D02*
X8450000Y-20340500D01*
X22820000Y-14267500D02*
X22820000Y-14000000D01*
X3550000Y-20955000D02*
X3550000Y-20338400D01*
X3550000Y-20338400D02*
X4166400Y-19722000D01*
X7339300Y-19722000D02*
X7831500Y-19722000D01*
X11225000Y-32000000D02*
X10267800Y-32000000D01*
X10267800Y-32000000D02*
X9883100Y-31615300D01*
X21137500Y-16764200D02*
X21137500Y-15950000D01*
X4166400Y-19722000D02*
X7339300Y-19722000D01*
X8450000Y-20340500D02*
X8450000Y-20955000D01*
X24510000Y-12564000D02*
X24510000Y-12000000D01*
X175480000Y-40400671D02*
X175453736Y-40426935D01*
X155835000Y-48650000D02*
X153135000Y-48650000D01*
X157750000Y-10812500D02*
X157750000Y-11562500D01*
D49*
X9694800Y-21399800D02*
X9250000Y-20955000D01*
D48*
X211160000Y-14899600D02*
X211160000Y-14500000D01*
X157687500Y-10750000D02*
X157750000Y-10812500D01*
X6845400Y-31664600D02*
X7510000Y-31000000D01*
X23780000Y-14000000D02*
X30775000Y-20995000D01*
X161006400Y-39104400D02*
X161043500Y-39067300D01*
X46747200Y-24337200D02*
X46980000Y-24570000D01*
X3510000Y-31000000D02*
X4174600Y-31664600D01*
D49*
X20036400Y-14650800D02*
X20855200Y-14650800D01*
D48*
X211310200Y-15049800D02*
X211160000Y-14899600D01*
D49*
X2305200Y-21399800D02*
X2750000Y-20955000D01*
D48*
X35510000Y-25648000D02*
X35510000Y-30000000D01*
X201060000Y-27900000D02*
X201760000Y-27900000D01*
X3510000Y-27880000D02*
X1680000Y-26050000D01*
X21204400Y-15000000D02*
X21345900Y-15141500D01*
X19435600Y-14050000D02*
X20036400Y-14650800D01*
X157687500Y-10750000D02*
X157174800Y-10750000D01*
X77039100Y-40678300D02*
X75763400Y-40678300D01*
X196510000Y-37000000D02*
X194050000Y-34540000D01*
X160154999Y-48650000D02*
X160485000Y-48319999D01*
X132438800Y-41080000D02*
X130160400Y-41080000D01*
X203160000Y-27200000D02*
X203160000Y-26500000D01*
X210300400Y-17959600D02*
X203160000Y-25100000D01*
X10320000Y-31000000D02*
X10320000Y-26050000D01*
X30775000Y-24838300D02*
X32458300Y-24838300D01*
X34902000Y-25097500D02*
X34902000Y-23820100D01*
X159175600Y-41868500D02*
X159848500Y-41868500D01*
X41437800Y-24337200D02*
X46747200Y-24337200D01*
X46980000Y-25000000D02*
X46980000Y-24570000D01*
D49*
X160559800Y-39940200D02*
X160500000Y-40000000D01*
D48*
X10320000Y-31000000D02*
X7510000Y-31000000D01*
X146712500Y-25000000D02*
X146712500Y-25958100D01*
X159750000Y-8070000D02*
X159750000Y-8437500D01*
X18862500Y-14050000D02*
X19435600Y-14050000D01*
X22170000Y-13673200D02*
X22472500Y-13370700D01*
X156485000Y-48000000D02*
X155835000Y-48650000D01*
X160485000Y-48319999D02*
X160485000Y-48000000D01*
X170500000Y-44500000D02*
X175000000Y-44500000D01*
X210300400Y-17325500D02*
X210300400Y-17959600D01*
X159899900Y-9700200D02*
X160000000Y-9700200D01*
X74947700Y-41080000D02*
X74647700Y-41380000D01*
X40775000Y-25000000D02*
X39847100Y-24072100D01*
X170500000Y-44500000D02*
X170500000Y-39671800D01*
X11775000Y-31000000D02*
X10320000Y-31000000D01*
X130160400Y-41080000D02*
X130158900Y-41078500D01*
X47763500Y-23786500D02*
X47328500Y-23351500D01*
X200360000Y-25100000D02*
X194050000Y-18790000D01*
X46980000Y-24570000D02*
X47763500Y-23786500D01*
X203160000Y-25800000D02*
X203160000Y-25100000D01*
X162312500Y-9750000D02*
X162312500Y-10250000D01*
X161293900Y-9750000D02*
X161293900Y-9700200D01*
X10320000Y-21870000D02*
X10320000Y-21399800D01*
D49*
X159899900Y-10700200D02*
X157862300Y-10700200D01*
D48*
X196510000Y-37000000D02*
X197144600Y-37634600D01*
X22472500Y-13370700D02*
X23703300Y-13370700D01*
X175480000Y-39600000D02*
X175480000Y-40400671D01*
X40775000Y-25000000D02*
X41437800Y-24337200D01*
D49*
X21883600Y-14603900D02*
X21900600Y-14603900D01*
D48*
X1680000Y-21870000D02*
X1680000Y-26050000D01*
X202460000Y-27900000D02*
X203160000Y-27900000D01*
D49*
X161293900Y-9750000D02*
X162312500Y-9750000D01*
D48*
X156485000Y-47145500D02*
X156485000Y-48000000D01*
X12775000Y-37225000D02*
X10000000Y-40000000D01*
X157135000Y-48650000D02*
X160154999Y-48650000D01*
D49*
X157427100Y-9250000D02*
X157687500Y-9250000D01*
D48*
X51974800Y-29160000D02*
X51974800Y-29199800D01*
X161006400Y-39940200D02*
X161006400Y-39104400D01*
X75763400Y-40678300D02*
X75528000Y-40913700D01*
X201760000Y-27200000D02*
X201760000Y-26500000D01*
X159848500Y-41868500D02*
X160480000Y-42500000D01*
D49*
X157862300Y-10700200D02*
X157750000Y-10812500D01*
D48*
X175000000Y-44499972D02*
X174999972Y-44500000D01*
D49*
X160000000Y-9700200D02*
X161293900Y-9700200D01*
D48*
X23703300Y-13370700D02*
X23780000Y-13447400D01*
X34902000Y-23820100D02*
X34869900Y-23788000D01*
X30775000Y-20995000D02*
X30775000Y-24838300D01*
X39847100Y-24072100D02*
X39821500Y-24072100D01*
X146712500Y-25958100D02*
X146734700Y-25980300D01*
X194050000Y-34540000D02*
X194050000Y-33900000D01*
X158000000Y-43044100D02*
X159175600Y-41868500D01*
D49*
X20855200Y-14650800D02*
X21204400Y-15000000D01*
X157174800Y-10750000D02*
X157174800Y-9502300D01*
D48*
X32512800Y-24892800D02*
X33617600Y-23788000D01*
X201060000Y-27900000D02*
X200360000Y-27900000D01*
X200360000Y-25800000D02*
X200360000Y-25100000D01*
X1680000Y-21870000D02*
X1680000Y-21399800D01*
X158480000Y-6800000D02*
X159750000Y-8070000D01*
X194050000Y-18790000D02*
X194050000Y-16100000D01*
X200360000Y-27200000D02*
X200360000Y-26500000D01*
X35510000Y-25648000D02*
X35452500Y-25648000D01*
X10320000Y-21870000D02*
X10320000Y-26050000D01*
X21900600Y-14603900D02*
X22170000Y-14334500D01*
X23780000Y-13447400D02*
X23780000Y-14000000D01*
X32458300Y-24838300D02*
X32512800Y-24892800D01*
X158000000Y-45630500D02*
X158000000Y-43044100D01*
X75391400Y-41080000D02*
X74947700Y-41080000D01*
X35750000Y-25500000D02*
X35602000Y-25648000D01*
X153135000Y-48650000D02*
X152485000Y-48000000D01*
X194050000Y-33900000D02*
X194050000Y-33050000D01*
X51974800Y-29160000D02*
X49330000Y-29160000D01*
X201760000Y-25800000D02*
X201760000Y-25100000D01*
D49*
X1680000Y-21399800D02*
X2305200Y-21399800D01*
X157174800Y-9502300D02*
X157427100Y-9250000D01*
D48*
X22170000Y-14334500D02*
X22170000Y-13673200D01*
D49*
X10320000Y-21399800D02*
X9694800Y-21399800D01*
D48*
X12775000Y-32000000D02*
X11775000Y-31000000D01*
X47763500Y-23786500D02*
X48850000Y-22700000D01*
X159750000Y-9550300D02*
X159899900Y-9700200D01*
X12775000Y-32000000D02*
X12775000Y-37225000D01*
X4174600Y-31664600D02*
X6845400Y-31664600D01*
X63451900Y-40676900D02*
X52775000Y-30000000D01*
X38245800Y-25647800D02*
X38301300Y-25592300D01*
D49*
X211310200Y-17023800D02*
X211310200Y-15049800D01*
D48*
X51974800Y-29199800D02*
X52775000Y-30000000D01*
X35602000Y-25648000D02*
X35510000Y-25648000D01*
X10320000Y-21870000D02*
X16108700Y-16081300D01*
X194050000Y-33050000D02*
X194000000Y-33000000D01*
D49*
X16108700Y-14399200D02*
X18513300Y-14399200D01*
D48*
X35897800Y-25647800D02*
X38245800Y-25647800D01*
X156485000Y-48000000D02*
X157135000Y-48650000D01*
X159750000Y-8437500D02*
X159750000Y-9550300D01*
X35750000Y-25500000D02*
X35897800Y-25647800D01*
X170500000Y-39671800D02*
X170500000Y-37500000D01*
D49*
X21346000Y-15141500D02*
X21883600Y-14603900D01*
X210366100Y-17259800D02*
X211074200Y-17259800D01*
D48*
X3510000Y-31000000D02*
X3510000Y-27880000D01*
X210366100Y-17259800D02*
X210300400Y-17325500D01*
X77439300Y-41078500D02*
X77039100Y-40678300D01*
X70864000Y-41179100D02*
X70361800Y-40676900D01*
D49*
X211074200Y-17259800D02*
X211310200Y-17023800D01*
D48*
X32512800Y-24892800D02*
X33120000Y-25500000D01*
X156485000Y-47145500D02*
X158000000Y-45630500D01*
X21345900Y-15141500D02*
X21346000Y-15141500D01*
X75528000Y-40943400D02*
X75391400Y-41080000D01*
X144221500Y-29297300D02*
X132438800Y-41080000D01*
D49*
X161006400Y-39940200D02*
X160559800Y-39940200D01*
D48*
X16108700Y-16081300D02*
X16108700Y-14399200D01*
X70361800Y-40676900D02*
X63451900Y-40676900D01*
X130158900Y-41078500D02*
X77439300Y-41078500D01*
X159899900Y-9700200D02*
X159899900Y-10700200D01*
X30775000Y-24838300D02*
X30775000Y-25000000D01*
X75528000Y-40913700D02*
X75528000Y-40943400D01*
D49*
X18513300Y-14399200D02*
X18862500Y-14050000D01*
D48*
X23703300Y-13370700D02*
X24510000Y-12564000D01*
X35452500Y-25648000D02*
X34902000Y-25097500D01*
X175000000Y-42400000D02*
X175000000Y-44499972D01*
X30014700Y-25789700D02*
X29225000Y-25000000D01*
X19565300Y-16920300D02*
X19565300Y-16652800D01*
X27645000Y-25000000D02*
X29225000Y-25000000D01*
X19565300Y-16652800D02*
X18862500Y-15950000D01*
X33022400Y-26312200D02*
X32682500Y-26312200D01*
X32682500Y-26312200D02*
X32160000Y-25789700D01*
X33437800Y-26312200D02*
X34250000Y-25500000D01*
X33022400Y-26312200D02*
X33437800Y-26312200D01*
X32160000Y-25789700D02*
X30014700Y-25789700D01*
X34250000Y-25000000D02*
X34250000Y-25500000D01*
X42448700Y-16151300D02*
X43600000Y-15000000D01*
X19565300Y-16920300D02*
X27645000Y-25000000D01*
X32160000Y-25500000D02*
X32160000Y-25789700D01*
X37021900Y-25000000D02*
X35750000Y-25000000D01*
X46400000Y-15000000D02*
X37573100Y-23826900D01*
X37068000Y-25046100D02*
X37021900Y-25000000D01*
X39225000Y-25000000D02*
X38669400Y-24444400D01*
X36132800Y-24500000D02*
X36132800Y-24444400D01*
D50*
X50000000Y-47500000D02*
X1000000Y-47500000D01*
D48*
X174520000Y-39600000D02*
X174520000Y-40476700D01*
D50*
X51225000Y-30000000D02*
X51225000Y-46275000D01*
D49*
X36132800Y-24500000D02*
X35750000Y-24500000D01*
D50*
X174520000Y-38980000D02*
X174520000Y-39600000D01*
D48*
X35781500Y-19323200D02*
X35166800Y-19323200D01*
D51*
X175000000Y-40956700D02*
X175000000Y-41600000D01*
D50*
X1000000Y-47500000D02*
X550000Y-47050000D01*
X550000Y-8000000D02*
X5120000Y-3430000D01*
D48*
X48370000Y-27780000D02*
X42005000Y-27780000D01*
X49210000Y-30000000D02*
X51225000Y-30000000D01*
X38669400Y-24444400D02*
X36132800Y-24444400D01*
D50*
X215000000Y-43000000D02*
X180500000Y-43000000D01*
X62070000Y-3430000D02*
X63000000Y-2500000D01*
X176000000Y-38500000D02*
X175000000Y-38500000D01*
X63000000Y-2500000D02*
X205500000Y-2500000D01*
D48*
X48370000Y-29160000D02*
X48370000Y-27780000D01*
D50*
X180500000Y-43000000D02*
X176000000Y-38500000D01*
D48*
X48370000Y-27780000D02*
X48850000Y-27300000D01*
D50*
X5120000Y-3430000D02*
X62070000Y-3430000D01*
D48*
X36132800Y-24444400D02*
X36132800Y-19674500D01*
X42005000Y-27780000D02*
X39225000Y-25000000D01*
X35166800Y-19323200D02*
X34490000Y-20000000D01*
X48370000Y-29160000D02*
X49210000Y-30000000D01*
D50*
X51225000Y-46275000D02*
X50000000Y-47500000D01*
X550000Y-47050000D02*
X550000Y-8000000D01*
X215000000Y-12000000D02*
X215000000Y-43000000D01*
D48*
X36132800Y-19674500D02*
X35781500Y-19323200D01*
D50*
X205500000Y-2500000D02*
X215000000Y-12000000D01*
X175000000Y-38500000D02*
X174520000Y-38980000D01*
D48*
X174520000Y-40476700D02*
X175000000Y-40956700D01*
X34250000Y-21260000D02*
X34250000Y-24500000D01*
X34490000Y-30000000D02*
X32367000Y-27877000D01*
X32367000Y-27877000D02*
X32367000Y-27411800D01*
X34680700Y-20829300D02*
X35510000Y-20000000D01*
X34680700Y-20829300D02*
X34250000Y-21260000D01*
X69390000Y-40000000D02*
X66543300Y-40000000D01*
X158225000Y-8462500D02*
X158225000Y-9700200D01*
X55150000Y-25000000D02*
X48850000Y-25000000D01*
X74997700Y-8838700D02*
X74997700Y-11052300D01*
D49*
X157737300Y-9700200D02*
X157687500Y-9750000D01*
D48*
X118250000Y-20140300D02*
X118250000Y-19337500D01*
X113750000Y-17222500D02*
X113826500Y-17146000D01*
X113250000Y-23646500D02*
X116499700Y-20396800D01*
X172737900Y-29878396D02*
X172841028Y-29775268D01*
X72500000Y-29386000D02*
X72500000Y-30170000D01*
X150836500Y-11885700D02*
X150836500Y-23712800D01*
X193350000Y-32838200D02*
X193350000Y-32730761D01*
X73613900Y-39003900D02*
X72709800Y-39003900D01*
X172737900Y-36198300D02*
X172737900Y-29878396D01*
X153497000Y-3503000D02*
X152000000Y-5000000D01*
X162379900Y-45842900D02*
X163662125Y-45842900D01*
X176708300Y-36198300D02*
X178510000Y-38000000D01*
X64251600Y-6472800D02*
X64251600Y-13517800D01*
X164887800Y-18622200D02*
X165510000Y-18000000D01*
X200013000Y-3503000D02*
X153497000Y-3503000D01*
X73048700Y-5036700D02*
X73646500Y-5036700D01*
X70920700Y-14469300D02*
X69390000Y-16000000D01*
X194664700Y-32838200D02*
X195320000Y-33493500D01*
X76080000Y-32960000D02*
X76080000Y-36537800D01*
X116779400Y-16490000D02*
X117582400Y-17293000D01*
X70386100Y-39003900D02*
X69390000Y-40000000D01*
X69390000Y-28000000D02*
X70032500Y-28642500D01*
X76080000Y-22865300D02*
X76080000Y-24910600D01*
X116000300Y-18313800D02*
X116250000Y-18563500D01*
X55150000Y-25000000D02*
X64877100Y-25000000D01*
X108513100Y-32764500D02*
X103602600Y-37675000D01*
X75120000Y-44000000D02*
X75766700Y-44646700D01*
X157520000Y-8207500D02*
X157520000Y-6800000D01*
X69390000Y-16429100D02*
X69854000Y-16893100D01*
X66724400Y-4000000D02*
X64251600Y-6472800D01*
X155511700Y-10215800D02*
X163918100Y-18622200D01*
X150789000Y-6211000D02*
X150789000Y-10572400D01*
X154474700Y-11252800D02*
X155511700Y-10215800D01*
X158250000Y-8437500D02*
X157750000Y-8437500D01*
X194650000Y-32838200D02*
X194664700Y-32838200D01*
X209510000Y-13000000D02*
X209510000Y-13810000D01*
X115250000Y-19337500D02*
X115250000Y-18546900D01*
X114482500Y-16490000D02*
X116779400Y-16490000D01*
X69390000Y-4000000D02*
X66724400Y-4000000D01*
X76080000Y-36537800D02*
X73613900Y-39003900D01*
X129570500Y-26618900D02*
X122600400Y-19648800D01*
X74997700Y-11052300D02*
X71580700Y-14469300D01*
X116250000Y-18563500D02*
X116250000Y-19337500D01*
X165510000Y-18000000D02*
X165510000Y-15000000D01*
X117993500Y-20396800D02*
X118250000Y-20140300D01*
X113750000Y-19337500D02*
X113750000Y-17222500D01*
X122263700Y-19648800D02*
X120662500Y-21250000D01*
D49*
X158225000Y-9700200D02*
X157737300Y-9700200D01*
D48*
X209510000Y-13810000D02*
X210200000Y-14500000D01*
X122600400Y-19648800D02*
X122263700Y-19648800D01*
X171039600Y-34500000D02*
X172737900Y-36198300D01*
X161081600Y-43245000D02*
X161081600Y-41825800D01*
D49*
X160299700Y-43110700D02*
X160434000Y-43245000D01*
D48*
X167905025Y-35600000D02*
X168834314Y-35600000D01*
X151469400Y-11252800D02*
X150836500Y-11885700D01*
X209510000Y-13000000D02*
X200013000Y-3503000D01*
X46689500Y-25669500D02*
X48180500Y-25669500D01*
X66543300Y-40000000D02*
X55150000Y-28606700D01*
X76672600Y-42986200D02*
X75886800Y-42200400D01*
X119359700Y-21250000D02*
X120662500Y-21250000D01*
X55150000Y-28606700D02*
X55150000Y-25000000D01*
X75120000Y-20000000D02*
X73830000Y-20000000D01*
X66390000Y-25000000D02*
X69390000Y-28000000D01*
X168027100Y-20844700D02*
X165510000Y-18327600D01*
X64251600Y-13517800D02*
X66733800Y-16000000D01*
X112120400Y-32764500D02*
X108513100Y-32764500D01*
X183671800Y-32838200D02*
X193350000Y-32838200D01*
X161081600Y-43245000D02*
X161487700Y-43651100D01*
D49*
X115738900Y-18058000D02*
X115994700Y-18313800D01*
D48*
X194650000Y-32730761D02*
X194650000Y-32838200D01*
X112250000Y-32634800D02*
X112250000Y-30662500D01*
X72500000Y-40594300D02*
X72717800Y-40376500D01*
X150789000Y-10572400D02*
X151469400Y-11252800D01*
X118250000Y-20140300D02*
X119359700Y-21250000D01*
X169934314Y-34500000D02*
X171039600Y-34500000D01*
X152000000Y-5000000D02*
X150789000Y-6211000D01*
X116250000Y-19337500D02*
X116250000Y-20147100D01*
X167600000Y-42842000D02*
X167600000Y-35905025D01*
X75120000Y-44000000D02*
X73830000Y-44000000D01*
X157750000Y-8437500D02*
X157520000Y-8207500D01*
X75120000Y-8000000D02*
X73830000Y-8000000D01*
X116250000Y-20147100D02*
X116499700Y-20396800D01*
X159520000Y-42500000D02*
X159520000Y-42531200D01*
X71580700Y-14469300D02*
X70920700Y-14469300D01*
X193350000Y-32730761D02*
X193730761Y-32350000D01*
X164642000Y-45800000D02*
X167600000Y-42842000D01*
X64877100Y-25000000D02*
X66390000Y-25000000D01*
X165510000Y-18327600D02*
X165510000Y-18000000D01*
X159520000Y-42531200D02*
X160099500Y-43110700D01*
X76080000Y-24910600D02*
X73631000Y-27359600D01*
X75120000Y-32000000D02*
X76080000Y-32960000D01*
X118250000Y-17960600D02*
X117582400Y-17293000D01*
X70030400Y-27359600D02*
X69390000Y-28000000D01*
X46020000Y-25000000D02*
X46689500Y-25669500D01*
X72500000Y-5585400D02*
X73048700Y-5036700D01*
X178510000Y-38000000D02*
X183671800Y-32838200D01*
X72500000Y-42170000D02*
X72500000Y-40594300D01*
D49*
X115994700Y-18313800D02*
X116000300Y-18313800D01*
D48*
X75766700Y-44646700D02*
X76428400Y-44646700D01*
X163662125Y-45842900D02*
X163705025Y-45800000D01*
X73025000Y-17025000D02*
X72500000Y-17550000D01*
X73631000Y-27359600D02*
X70030400Y-27359600D01*
X195320000Y-33493500D02*
X195320000Y-33900000D01*
X160434000Y-43245000D02*
X161081600Y-43245000D01*
X70032500Y-28642500D02*
X71756500Y-28642500D01*
X76672600Y-44402500D02*
X76672600Y-42986200D01*
X112120400Y-32764400D02*
X112250000Y-32634800D01*
X74997700Y-8838700D02*
X74997700Y-8122300D01*
X160000000Y-40744200D02*
X160000000Y-40500000D01*
X64877100Y-25000000D02*
X64877100Y-17856700D01*
X172737900Y-36198300D02*
X176708300Y-36198300D01*
X163705025Y-45800000D02*
X164642000Y-45800000D01*
X118250000Y-19337500D02*
X118250000Y-17960600D01*
X161487700Y-44950700D02*
X162379900Y-45842900D01*
D49*
X160099500Y-43110700D02*
X160299700Y-43110700D01*
D48*
X64877100Y-17856700D02*
X66733800Y-16000000D01*
X103602600Y-37675000D02*
X97112500Y-37675000D01*
X113250000Y-25104600D02*
X113250000Y-23646500D01*
X116499700Y-20396800D02*
X117993500Y-20396800D01*
X163918100Y-18622200D02*
X164887800Y-18622200D01*
X74997700Y-8122300D02*
X75120000Y-8000000D01*
X75120000Y-32000000D02*
X73830000Y-32000000D01*
X151469400Y-11252800D02*
X154474700Y-11252800D01*
X167600000Y-35905025D02*
X167905025Y-35600000D01*
X113826500Y-17146000D02*
X114482500Y-16490000D01*
X113250000Y-30662500D02*
X113250000Y-25104600D01*
X161081600Y-41825800D02*
X160000000Y-40744200D01*
X75120000Y-21905300D02*
X76080000Y-22865300D01*
X193730761Y-32350000D02*
X194269239Y-32350000D01*
X194269239Y-32350000D02*
X194650000Y-32730761D01*
X113250000Y-25104600D02*
X111679900Y-25104600D01*
X158250000Y-8437500D02*
X158225000Y-8462500D01*
X66733800Y-16000000D02*
X69390000Y-16000000D01*
X161487700Y-43651100D02*
X161487700Y-44950700D01*
X72500000Y-6170000D02*
X72500000Y-5585400D01*
X75120000Y-20000000D02*
X75120000Y-21905300D01*
X150836500Y-23712800D02*
X147930400Y-26618900D01*
X155511700Y-10215800D02*
X157520000Y-8207500D01*
X69390000Y-16000000D02*
X69390000Y-16429100D01*
X72500000Y-17550000D02*
X72500000Y-18170000D01*
X112120400Y-32764400D02*
X112120400Y-32764500D01*
X72709800Y-39003900D02*
X70386100Y-39003900D01*
X71756500Y-28642500D02*
X72500000Y-29386000D01*
X168834314Y-35600000D02*
X169934314Y-34500000D01*
X115250000Y-18546900D02*
X115738900Y-18058000D01*
X76428400Y-44646700D02*
X76672600Y-44402500D01*
X113750000Y-30662500D02*
X113250000Y-30662500D01*
X147930400Y-26618900D02*
X129570500Y-26618900D01*
X48180500Y-25669500D02*
X48850000Y-25000000D01*
X4750000Y-22220200D02*
X4750000Y-20955000D01*
X2490000Y-30149200D02*
X2890900Y-29748300D01*
X2490000Y-31000000D02*
X2490000Y-30149200D01*
X7750000Y-29740000D02*
X6490000Y-31000000D01*
X7750000Y-20955000D02*
X7750000Y-29740000D01*
X23187500Y-12000000D02*
X21137500Y-14050000D01*
X23490000Y-12000000D02*
X23187500Y-12000000D01*
X72250000Y-43500000D02*
X73000000Y-42750000D01*
X73625000Y-41545000D02*
X74610000Y-40560000D01*
X76080000Y-17470000D02*
X74610000Y-16000000D01*
X77487100Y-38975000D02*
X76561100Y-38048900D01*
X115403900Y-17146000D02*
X114786500Y-17146000D01*
X74250000Y-6170000D02*
X75790300Y-7710300D01*
X110767500Y-20223900D02*
X110767500Y-18474500D01*
X76373300Y-22590600D02*
X76481700Y-22699000D01*
X73000000Y-6750000D02*
X72250000Y-7500000D01*
X74610000Y-40560000D02*
X74610000Y-40000000D01*
X76561100Y-38048900D02*
X76481700Y-37969600D01*
X114750000Y-19337500D02*
X114750000Y-17182500D01*
X73000000Y-30170000D02*
X73228500Y-29941500D01*
X73000000Y-18170000D02*
X74610000Y-16560000D01*
X118750000Y-19022100D02*
X118750000Y-19337500D01*
X117473600Y-18265900D02*
X117750000Y-18542300D01*
X72000000Y-43500000D02*
X71750000Y-43500000D01*
X74039700Y-29571300D02*
X74605200Y-30136900D01*
X71000000Y-18170000D02*
X71000000Y-18750000D01*
X114250000Y-29624500D02*
X114250000Y-30662500D01*
X72000000Y-31500000D02*
X71750000Y-31500000D01*
X72000000Y-20000000D02*
X72000000Y-19500000D01*
D49*
X74605200Y-30136900D02*
X74605200Y-30818000D01*
D48*
X109337500Y-27250000D02*
X108243800Y-27250000D01*
X112468900Y-23462600D02*
X110721100Y-25210400D01*
X109337500Y-25250000D02*
X108500600Y-25250000D01*
X72000000Y-7500000D02*
X71750000Y-7500000D01*
X73625000Y-41545000D02*
X76080000Y-44000000D01*
X76080000Y-20000000D02*
X76080000Y-17470000D01*
X119706200Y-29706200D02*
X119706200Y-29706300D01*
X71000000Y-30750000D02*
X71000000Y-30170000D01*
X114250000Y-31594800D02*
X114250000Y-30662500D01*
X76080000Y-20000000D02*
X76373300Y-20293300D01*
X72000000Y-43500000D02*
X72250000Y-43500000D01*
X114750000Y-17182500D02*
X114786500Y-17146000D01*
X72000000Y-32000000D02*
X72000000Y-31500000D01*
X122933700Y-19022100D02*
X123560400Y-19648800D01*
X76481700Y-32401700D02*
X76080000Y-32000000D01*
X113080400Y-32764400D02*
X112750000Y-32434000D01*
X116750000Y-18492100D02*
X116976200Y-18265900D01*
X73000000Y-30750000D02*
X72250000Y-31500000D01*
X73000000Y-6170000D02*
X73000000Y-6750000D01*
X73669500Y-29941500D02*
X74039700Y-29571300D01*
X116750000Y-19337500D02*
X116750000Y-18492100D01*
D49*
X109288000Y-28200500D02*
X109337500Y-28250000D01*
D48*
X76373300Y-20293300D02*
X76373300Y-22590600D01*
X75790300Y-7710300D02*
X75790300Y-8000000D01*
X72000000Y-44000000D02*
X72000000Y-43500000D01*
X72250000Y-31500000D02*
X72000000Y-31500000D01*
X106869800Y-38975000D02*
X113080400Y-32764400D01*
X73000000Y-42170000D02*
X73625000Y-41545000D01*
X74610000Y-29001000D02*
X74610000Y-28000000D01*
X74039700Y-29571300D02*
X74610000Y-29001000D01*
X118750000Y-17500600D02*
X118750000Y-19022100D01*
X112468900Y-21925300D02*
X110767500Y-20223900D01*
X76481700Y-22699000D02*
X76481700Y-26128300D01*
X97112500Y-38975000D02*
X92887500Y-38975000D01*
X71000000Y-18750000D02*
X71750000Y-19500000D01*
X108298000Y-26055900D02*
X108492100Y-26250000D01*
X113080400Y-32764400D02*
X114250000Y-31594800D01*
X114250000Y-19337500D02*
X114250000Y-20144200D01*
X118750000Y-19022100D02*
X122933700Y-19022100D01*
X73000000Y-30170000D02*
X73000000Y-30750000D01*
X108492100Y-26250000D02*
X108243800Y-26498300D01*
D49*
X119624500Y-29624500D02*
X114250000Y-29624500D01*
D48*
X75790300Y-8000000D02*
X76080000Y-8000000D01*
X75790300Y-8000000D02*
X75790300Y-14819700D01*
X72000000Y-8000000D02*
X72000000Y-7500000D01*
X112750000Y-30662500D02*
X112750000Y-27239300D01*
X142936300Y-19648800D02*
X148287500Y-25000000D01*
X71750000Y-43500000D02*
X71000000Y-42750000D01*
X110721100Y-25210400D02*
X109377100Y-25210400D01*
X120662500Y-28750000D02*
X119706300Y-29706200D01*
X117319200Y-16069800D02*
X118542400Y-17293000D01*
X119706200Y-29706300D02*
X118750000Y-30662500D01*
X114250000Y-20144200D02*
X112468900Y-21925300D01*
X119706300Y-29706200D02*
X119706200Y-29706200D01*
X119706200Y-29706200D02*
X119624500Y-29624500D01*
X123560400Y-19648800D02*
X142936300Y-19648800D01*
X114750000Y-19337500D02*
X114250000Y-19337500D01*
X72000000Y-19500000D02*
X72250000Y-19500000D01*
X112750000Y-32434000D02*
X112750000Y-30662500D01*
D49*
X74605200Y-30818000D02*
X74688200Y-30901000D01*
D48*
X73000000Y-18750000D02*
X73000000Y-18170000D01*
X74250000Y-6170000D02*
X74250000Y-4360000D01*
X74610000Y-16560000D02*
X74610000Y-16000000D01*
X73000000Y-6170000D02*
X74250000Y-6170000D01*
X108243800Y-28017400D02*
X108426900Y-28200500D01*
X71000000Y-6750000D02*
X71000000Y-6170000D01*
X108298000Y-25452600D02*
X108298000Y-26055900D01*
X74250000Y-4360000D02*
X74610000Y-4000000D01*
X118542400Y-17293000D02*
X118750000Y-17500600D01*
X72250000Y-7500000D02*
X72000000Y-7500000D01*
X71750000Y-19500000D02*
X72000000Y-19500000D01*
X117750000Y-18542300D02*
X117750000Y-19337500D01*
X72250000Y-19500000D02*
X73000000Y-18750000D01*
X76561100Y-38048900D02*
X74610000Y-40000000D01*
D49*
X108426900Y-28200500D02*
X109288000Y-28200500D01*
D48*
X108243800Y-26498300D02*
X108243800Y-27250000D01*
X74688200Y-30901000D02*
X74981000Y-30901000D01*
X76481700Y-26128300D02*
X74610000Y-28000000D01*
X110767500Y-18474500D02*
X113172200Y-16069800D01*
X75790300Y-14819700D02*
X74610000Y-16000000D01*
X74981000Y-30901000D02*
X76080000Y-32000000D01*
X116976200Y-18265900D02*
X117473600Y-18265900D01*
X97112500Y-38975000D02*
X106869800Y-38975000D01*
X73228500Y-29941500D02*
X73669500Y-29941500D01*
X108500600Y-25250000D02*
X108298000Y-25452600D01*
X71750000Y-31500000D02*
X71000000Y-30750000D01*
X109377100Y-25210400D02*
X109337500Y-25250000D01*
X71750000Y-7500000D02*
X71000000Y-6750000D01*
X112468900Y-21925300D02*
X112468900Y-23462600D01*
X92887500Y-38975000D02*
X77487100Y-38975000D01*
X112750000Y-27239300D02*
X110721100Y-25210400D01*
X73000000Y-42750000D02*
X73000000Y-42170000D01*
X113172200Y-16069800D02*
X117319200Y-16069800D01*
X108243800Y-27250000D02*
X108243800Y-28017400D01*
X109337500Y-26250000D02*
X108492100Y-26250000D01*
X116750000Y-18492100D02*
X115403900Y-17146000D01*
X71000000Y-42750000D02*
X71000000Y-42170000D01*
X76481700Y-37969600D02*
X76481700Y-32401700D01*
X109337500Y-28750000D02*
X94703000Y-28750000D01*
X73000000Y-9830000D02*
X73436500Y-9830000D01*
X94703000Y-28750000D02*
X76410700Y-10457700D01*
X73436500Y-9830000D02*
X74375900Y-10769400D01*
X82000000Y-48500000D02*
X82000000Y-47909200D01*
X61290000Y-6200000D02*
X60551800Y-6938200D01*
X82000000Y-47909200D02*
X81309200Y-47218400D01*
X61320000Y-9800000D02*
X61320000Y-7190000D01*
X61320000Y-7190000D02*
X62310000Y-6200000D01*
D49*
X70170000Y-7500000D02*
X70120200Y-7450200D01*
X70120200Y-7450200D02*
X66142900Y-7450200D01*
D48*
X62280000Y-9800000D02*
X63647900Y-8432100D01*
X81000000Y-48500000D02*
X81000000Y-48015900D01*
X64868900Y-6821100D02*
X65490000Y-6200000D01*
X81000000Y-48015900D02*
X80301800Y-47317700D01*
X80301800Y-47317700D02*
X75279300Y-47317700D01*
X65520000Y-7190000D02*
X66510000Y-6200000D01*
X65520000Y-9800000D02*
X65520000Y-7190000D01*
X67694700Y-8585300D02*
X67694700Y-8049800D01*
X66480000Y-9800000D02*
X67694700Y-8585300D01*
D49*
X70120200Y-8049800D02*
X70170000Y-8000000D01*
X67694700Y-8049800D02*
X70120200Y-8049800D01*
D48*
X74064900Y-48500000D02*
X73583500Y-48981400D01*
X72510000Y-11521700D02*
X71798400Y-10810100D01*
X72510000Y-12000000D02*
X72510000Y-11521700D01*
X80000000Y-48500000D02*
X74064900Y-48500000D01*
X70170000Y-10680000D02*
X70170000Y-9000000D01*
X71490000Y-12000000D02*
X70170000Y-10680000D01*
D49*
X71950200Y-5738400D02*
X72000000Y-5788200D01*
D48*
X71948200Y-5538200D02*
X71950200Y-5538200D01*
X71950200Y-5538200D02*
X73488400Y-4000000D01*
D49*
X71950200Y-5538200D02*
X71950200Y-5738400D01*
D48*
X73488400Y-4000000D02*
X73590000Y-4000000D01*
X72000000Y-5788200D02*
X72000000Y-6170000D01*
X70410000Y-4000000D02*
X71948200Y-5538200D01*
X73000000Y-21830000D02*
X74479100Y-21830000D01*
X83857800Y-29224300D02*
X110221500Y-29224300D01*
X110392500Y-28034400D02*
X110108100Y-27750000D01*
X110392500Y-29053300D02*
X110392500Y-28034400D01*
X110221500Y-29224300D02*
X110392500Y-29053300D01*
X74479100Y-21830000D02*
X74481600Y-21827500D01*
X110108100Y-27750000D02*
X109337500Y-27750000D01*
X76975000Y-22341500D02*
X83857800Y-29224300D01*
X110000000Y-48500000D02*
X110000000Y-47217100D01*
X63817300Y-15672700D02*
X65552000Y-15672700D01*
X61290000Y-18200000D02*
X63817300Y-15672700D01*
X61320000Y-21800000D02*
X61320000Y-19190000D01*
X61320000Y-19190000D02*
X62310000Y-18200000D01*
X62280000Y-21532900D02*
X64261500Y-19551400D01*
X62280000Y-21800000D02*
X62280000Y-21532900D01*
D49*
X70170000Y-19500000D02*
X70118600Y-19551400D01*
X70118600Y-19551400D02*
X66132300Y-19551400D01*
D48*
X66124300Y-17565700D02*
X70323400Y-17565700D01*
X109000000Y-47202600D02*
X107597100Y-45799700D01*
X65490000Y-18200000D02*
X66124300Y-17565700D01*
X109000000Y-48500000D02*
X109000000Y-47202600D01*
X65520000Y-21800000D02*
X65520000Y-19190000D01*
X65520000Y-19190000D02*
X66510000Y-18200000D01*
X67694700Y-20585300D02*
X67694700Y-20049800D01*
X66480000Y-21800000D02*
X67694700Y-20585300D01*
D49*
X70120200Y-20049800D02*
X70170000Y-20000000D01*
X67694700Y-20049800D02*
X70120200Y-20049800D01*
D48*
X72510000Y-24000000D02*
X73141100Y-24631100D01*
X106037700Y-46238800D02*
X106037600Y-46238800D01*
X108000000Y-48500000D02*
X106037700Y-46537700D01*
X106037700Y-46537700D02*
X106037700Y-46238800D01*
X73141100Y-24631100D02*
X75440300Y-24631100D01*
X70170000Y-22680000D02*
X70170000Y-21000000D01*
X71490000Y-24000000D02*
X70170000Y-22680000D01*
X72000000Y-17195300D02*
X72000000Y-18170000D01*
X71605300Y-17195300D02*
X72000000Y-17195300D01*
X73590000Y-16000000D02*
X73195300Y-16000000D01*
X70410000Y-16000000D02*
X71605300Y-17195300D01*
X73195300Y-16000000D02*
X72000000Y-17195300D01*
D49*
X92887500Y-38325000D02*
X78048000Y-38325000D01*
D48*
X73000000Y-33830000D02*
X75458500Y-36288500D01*
D49*
X78048000Y-38325000D02*
X77091800Y-37368800D01*
D48*
X75458500Y-36288500D02*
X75458500Y-36290100D01*
X126000000Y-48500000D02*
X126000000Y-47218400D01*
X62119600Y-29370400D02*
X61290000Y-30200000D01*
X61320000Y-31190000D02*
X62310000Y-30200000D01*
X61320000Y-33800000D02*
X61320000Y-31190000D01*
D49*
X70170000Y-31500000D02*
X70138500Y-31468500D01*
D48*
X62280000Y-33800000D02*
X63106500Y-32973500D01*
X63106500Y-32973500D02*
X64896600Y-32973500D01*
D49*
X70138500Y-31468500D02*
X69175500Y-31468500D01*
D48*
X66122600Y-29567400D02*
X69673700Y-29567400D01*
X69673700Y-29567400D02*
X70330300Y-30224000D01*
X125000000Y-48033700D02*
X125000000Y-48500000D01*
X109067200Y-46413900D02*
X123380200Y-46413900D01*
X65490000Y-30200000D02*
X66122600Y-29567400D01*
X123380200Y-46413900D02*
X125000000Y-48033700D01*
X65520000Y-33800000D02*
X65520000Y-31190000D01*
X65520000Y-31190000D02*
X66510000Y-30200000D01*
X66480000Y-33800000D02*
X67694700Y-32585300D01*
D49*
X67694700Y-32049800D02*
X70120200Y-32049800D01*
X70120200Y-32049800D02*
X70170000Y-32000000D01*
D48*
X67694700Y-32585300D02*
X67694700Y-32049800D01*
X72510000Y-36000000D02*
X72821700Y-35688300D01*
X123380200Y-47880200D02*
X110817300Y-47880200D01*
X72821700Y-35688300D02*
X74003200Y-35688300D01*
X124000000Y-48500000D02*
X123380200Y-47880200D01*
X70170000Y-34680000D02*
X70170000Y-33000000D01*
X71490000Y-36000000D02*
X70170000Y-34680000D01*
D49*
X71950200Y-29613800D02*
X72000000Y-29663600D01*
X71950200Y-29430300D02*
X71950200Y-29613800D01*
D48*
X70434400Y-29380500D02*
X71900400Y-29380500D01*
X73590000Y-29016700D02*
X73396700Y-29210000D01*
X72000000Y-29663600D02*
X72000000Y-30170000D01*
X71900400Y-29380500D02*
X71950200Y-29430300D01*
X70410000Y-28000000D02*
X73590000Y-28000000D01*
X73590000Y-28000000D02*
X73590000Y-29016700D01*
X92887500Y-37675000D02*
X93762800Y-37675000D01*
X110387800Y-29626000D02*
X111194800Y-28819000D01*
X93762800Y-37675000D02*
X94226400Y-38138600D01*
X98897900Y-29626000D02*
X110387800Y-29626000D01*
X110408900Y-25750000D02*
X109337500Y-25750000D01*
X73177600Y-45652400D02*
X73898800Y-45652400D01*
X111194800Y-28819000D02*
X111194800Y-26535900D01*
X91738100Y-36785800D02*
X98897900Y-29626000D01*
X111194800Y-26535900D02*
X110408900Y-25750000D01*
X73000000Y-45830000D02*
X73177600Y-45652400D01*
X92887500Y-37675000D02*
X92112600Y-37675000D01*
X92112600Y-37675000D02*
X91738100Y-37300500D01*
X91738100Y-37300500D02*
X91738100Y-36785800D01*
X60695200Y-46117000D02*
X63274000Y-48695800D01*
X78142600Y-43393900D02*
X139299600Y-43393900D01*
X63274000Y-48695800D02*
X73015400Y-48695800D01*
X141824700Y-45917000D02*
X142000000Y-46092300D01*
X141822700Y-45917000D02*
X141824700Y-45917000D01*
X142000000Y-46092300D02*
X142000000Y-48500000D01*
X77334300Y-44202200D02*
X78142600Y-43393900D01*
X73015400Y-48695800D02*
X77334300Y-44376900D01*
X61290000Y-42200000D02*
X60695200Y-42794800D01*
X139299600Y-43393900D02*
X141822700Y-45917000D01*
X77334300Y-44376900D02*
X77334300Y-44202200D01*
X60695200Y-42794800D02*
X60695200Y-46117000D01*
X61320000Y-43190000D02*
X62310000Y-42200000D01*
X61320000Y-45800000D02*
X61320000Y-43190000D01*
D49*
X70146500Y-43523500D02*
X70170000Y-43500000D01*
X65594700Y-43523500D02*
X67663900Y-43523500D01*
X67663900Y-43523500D02*
X67976900Y-43836500D01*
X68767600Y-43523500D02*
X70146500Y-43523500D01*
D48*
X63246100Y-44833900D02*
X64284300Y-44833900D01*
X62280000Y-45800000D02*
X63246100Y-44833900D01*
D49*
X65517500Y-43600700D02*
X65594700Y-43523500D01*
X67976900Y-43836500D02*
X68454600Y-43836500D01*
X68454600Y-43836500D02*
X68767600Y-43523500D01*
D48*
X102503000Y-48639400D02*
X105530300Y-45612100D01*
X141000000Y-48500000D02*
X141000000Y-48017700D01*
X66365800Y-43075800D02*
X68248700Y-43075800D01*
X110692700Y-45919900D02*
X110458600Y-45685800D01*
X82810000Y-48639400D02*
X102503000Y-48639400D01*
X141000000Y-48017700D02*
X138902200Y-45919900D01*
X138902200Y-45919900D02*
X110692700Y-45919900D01*
X68248700Y-43075800D02*
X68324200Y-43151300D01*
X110458600Y-45685800D02*
X108476300Y-45685800D01*
X65490000Y-42200000D02*
X66365800Y-43075800D01*
X65863300Y-41553300D02*
X66510000Y-42200000D01*
X65133500Y-41553300D02*
X65863300Y-41553300D01*
X65520000Y-45800000D02*
X64902900Y-45182900D01*
X64902900Y-41783900D02*
X65133500Y-41553300D01*
X64902900Y-45182900D02*
X64902900Y-41783900D01*
D49*
X68788500Y-44000000D02*
X70170000Y-44000000D01*
X67730400Y-44087300D02*
X67831200Y-44188200D01*
D48*
X66480000Y-45800000D02*
X67694700Y-44585300D01*
X67694700Y-44585300D02*
X67694700Y-44123000D01*
D49*
X67831200Y-44188200D02*
X68600300Y-44188200D01*
X68600300Y-44188200D02*
X68788500Y-44000000D01*
X67694700Y-44123000D02*
X67730400Y-44087300D01*
D48*
X138045500Y-46545500D02*
X124394500Y-46545500D01*
X140000000Y-48500000D02*
X138045500Y-46545500D01*
X72510000Y-48000000D02*
X72834700Y-48000000D01*
X72834700Y-48000000D02*
X75442000Y-45392700D01*
X70170000Y-46680000D02*
X70170000Y-45000000D01*
X71490000Y-48000000D02*
X70170000Y-46680000D01*
X72225200Y-39774800D02*
X72000000Y-40000000D01*
X72000000Y-42170000D02*
X72000000Y-40000000D01*
X73364800Y-39774800D02*
X72225200Y-39774800D01*
X73590000Y-40000000D02*
X73364800Y-39774800D01*
X70410000Y-40000000D02*
X72000000Y-40000000D01*
X97112500Y-36602500D02*
X97112500Y-37025000D01*
X94490000Y-35000000D02*
X92887500Y-36602500D01*
X95510000Y-35000000D02*
X94490000Y-35000000D01*
X95510000Y-35000000D02*
X97112500Y-36602500D01*
X92887500Y-36602500D02*
X92887500Y-37025000D01*
X110490200Y-26750000D02*
X110593100Y-26852900D01*
X97112500Y-38325000D02*
X103836000Y-38325000D01*
X103836000Y-38325000D02*
X108590700Y-33570300D01*
X109337500Y-26750000D02*
X110490200Y-26750000D01*
X143972400Y-28695600D02*
X143702400Y-28965600D01*
X144470700Y-28695600D02*
X143972400Y-28695600D01*
D50*
X170500000Y-27500000D02*
X171500000Y-26500000D01*
X211650000Y-28170000D02*
X211950000Y-28170000D01*
X185300000Y-30200000D02*
X193124264Y-30200000D01*
D48*
X123153100Y-25250000D02*
X120662500Y-25250000D01*
D50*
X156863603Y-27500000D02*
X170500000Y-27500000D01*
D48*
X143702400Y-28965600D02*
X126368700Y-28965600D01*
D50*
X200012164Y-30587900D02*
X209232100Y-30587900D01*
X209232100Y-30587900D02*
X211650000Y-28170000D01*
D48*
X144740700Y-28965600D02*
X144470700Y-28695600D01*
D50*
X181600000Y-26500000D02*
X185300000Y-30200000D01*
X171500000Y-26500000D02*
X181600000Y-26500000D01*
X193124264Y-30200000D02*
X193449264Y-30525000D01*
D48*
X125483800Y-27580700D02*
X123153100Y-25250000D01*
D50*
X156008577Y-28355026D02*
X156863603Y-27500000D01*
X199949264Y-30525000D02*
X200012164Y-30587900D01*
X193449264Y-30525000D02*
X199949264Y-30525000D01*
D48*
X155144974Y-28150000D02*
X154855026Y-28150000D01*
D50*
X155350000Y-28355026D02*
X156008577Y-28355026D01*
D48*
X155350000Y-28355026D02*
X155144974Y-28150000D01*
X154039426Y-28965600D02*
X144740700Y-28965600D01*
X154855026Y-28150000D02*
X154039426Y-28965600D01*
X143850000Y-28250000D02*
X143800500Y-28299500D01*
X126183900Y-28299500D02*
X125899300Y-28584100D01*
D50*
X208262100Y-30287900D02*
X208275000Y-30275000D01*
D48*
X122204400Y-28584100D02*
X121919800Y-28299500D01*
X156118628Y-27750000D02*
X154689340Y-27750000D01*
D49*
X120712000Y-28299500D02*
X120662500Y-28250000D01*
D48*
X154189340Y-28250000D02*
X143850000Y-28250000D01*
X143800500Y-28299500D02*
X126183900Y-28299500D01*
D50*
X204176809Y-30287900D02*
X208262100Y-30287900D01*
X189348528Y-26000000D02*
X157868628Y-26000000D01*
X204113909Y-30225000D02*
X204176809Y-30287900D01*
D49*
X121919800Y-28299500D02*
X120712000Y-28299500D01*
D50*
X204113909Y-30225000D02*
X193573528Y-30225000D01*
X193573528Y-30225000D02*
X189348528Y-26000000D01*
X157868628Y-26000000D02*
X156846528Y-27022100D01*
X211950000Y-26900000D02*
X211650000Y-26900000D01*
D48*
X156846528Y-27022100D02*
X156118628Y-27750000D01*
X125899300Y-28584100D02*
X122204400Y-28584100D01*
X154689340Y-27750000D02*
X154189340Y-28250000D01*
D50*
X211650000Y-26900000D02*
X208275000Y-30275000D01*
D48*
X205381509Y-29043030D02*
X204905740Y-29043030D01*
X210689600Y-25630000D02*
X206833100Y-29486500D01*
X205824979Y-29486500D02*
X205381509Y-29043030D01*
X121916500Y-23700500D02*
X122454600Y-23700500D01*
X206833100Y-29486500D02*
X205824979Y-29486500D01*
D50*
X204462270Y-29486500D02*
X193683556Y-29486500D01*
D48*
X204905740Y-29043030D02*
X204462270Y-29486500D01*
D50*
X189197056Y-25000000D02*
X176016100Y-25000000D01*
D49*
X121916500Y-23700500D02*
X120712000Y-23700500D01*
D48*
X211950000Y-25630000D02*
X210689600Y-25630000D01*
D50*
X193683556Y-29486500D02*
X189197056Y-25000000D01*
D48*
X126177800Y-27423700D02*
X148363800Y-27423700D01*
D49*
X120712000Y-23700500D02*
X120662500Y-23750000D01*
D48*
X150787500Y-25000000D02*
X176016100Y-25000000D01*
X122454600Y-23700500D02*
X126177800Y-27423700D01*
X148363800Y-27423700D02*
X150787500Y-25000000D01*
D49*
X210804300Y-24360000D02*
X206280100Y-28884200D01*
D48*
X126089900Y-27825500D02*
X154048154Y-27825500D01*
D50*
X189272792Y-25500000D02*
X193697792Y-29925000D01*
X204854500Y-29925000D02*
X204867400Y-29937900D01*
X176235100Y-25500000D02*
X189272792Y-25500000D01*
D48*
X125733000Y-28182400D02*
X126089900Y-27825500D01*
X204867400Y-29937900D02*
X205112270Y-29693030D01*
D50*
X193697792Y-29925000D02*
X204854500Y-29925000D01*
D49*
X211950000Y-24360000D02*
X210804300Y-24360000D01*
D48*
X125234700Y-28182400D02*
X125733000Y-28182400D01*
X156373654Y-25500000D02*
X176235100Y-25500000D01*
X154048154Y-27825500D02*
X156373654Y-25500000D01*
X122802300Y-25750000D02*
X125234700Y-28182400D01*
X120662500Y-25750000D02*
X122802300Y-25750000D01*
X204266775Y-29053600D02*
X210230375Y-23090000D01*
D49*
X120712000Y-21799500D02*
X120662500Y-21750000D01*
D48*
X194238900Y-29053600D02*
X204266775Y-29053600D01*
X210230375Y-23090000D02*
X211950000Y-23090000D01*
X127143700Y-27020600D02*
X148198800Y-27020600D01*
X148198800Y-27020600D02*
X150719400Y-24500000D01*
X150719400Y-24500000D02*
X189685300Y-24500000D01*
X121922600Y-21799500D02*
X127143700Y-27020600D01*
D49*
X121922600Y-21799500D02*
X120712000Y-21799500D01*
D48*
X189685300Y-24500000D02*
X194238900Y-29053600D01*
X196590000Y-32815000D02*
X196350000Y-32575000D01*
X196590000Y-33900000D02*
X196590000Y-32815000D01*
X189746300Y-21446400D02*
X196350000Y-28050100D01*
X208490000Y-14162700D02*
X209160200Y-14832900D01*
X152000000Y-15160000D02*
X158286400Y-21446400D01*
X208490000Y-13000000D02*
X208490000Y-14162700D01*
X158286400Y-21446400D02*
X189746300Y-21446400D01*
X152322700Y-43167300D02*
X151490000Y-44000000D01*
X197860000Y-33900000D02*
X197860000Y-35154000D01*
X197860000Y-35154000D02*
X196837000Y-36177000D01*
D50*
X163850000Y-46150000D02*
X161000000Y-49000000D01*
X175144536Y-27475500D02*
X172348300Y-27475500D01*
X173000000Y-37000000D02*
X171000000Y-35000000D01*
D48*
X173000000Y-40914264D02*
X173000000Y-40500000D01*
X149574500Y-49074500D02*
X149500000Y-49000000D01*
X155000000Y-29500000D02*
X156000000Y-30500000D01*
X149500000Y-35000000D02*
X155000000Y-29500000D01*
D50*
X168000000Y-43500000D02*
X165350000Y-46150000D01*
X199663603Y-31300000D02*
X178969036Y-31300000D01*
X202940000Y-37940000D02*
X203000000Y-38000000D01*
X168000000Y-36500000D02*
X168500000Y-37000000D01*
X213000000Y-38000000D02*
X213000000Y-33500000D01*
X213000000Y-33500000D02*
X212180000Y-32680000D01*
X170000000Y-35000000D02*
X169000000Y-36000000D01*
X178969036Y-31300000D02*
X175144536Y-27475500D01*
D48*
X174085736Y-42000000D02*
X173000000Y-40914264D01*
D50*
X161000000Y-49000000D02*
X149649000Y-49000000D01*
D48*
X174600000Y-42000000D02*
X174085736Y-42000000D01*
D50*
X202940000Y-33900000D02*
X202940000Y-37940000D01*
D48*
X149500000Y-49000000D02*
X149500000Y-35000000D01*
D50*
X171000000Y-35000000D02*
X170000000Y-35000000D01*
X168000000Y-36000000D02*
X168000000Y-36500000D01*
X173000000Y-37500000D02*
X173000000Y-37000000D01*
X199813603Y-31450000D02*
X199663603Y-31300000D01*
X165350000Y-46150000D02*
X163850000Y-46150000D01*
X169000000Y-36000000D02*
X168000000Y-36000000D01*
X206601472Y-31450000D02*
X199813603Y-31450000D01*
X149649000Y-49000000D02*
X149574500Y-49074500D01*
X207831472Y-32680000D02*
X206601472Y-31450000D01*
D48*
X173000000Y-40500000D02*
X173000000Y-37500000D01*
D50*
X212180000Y-32680000D02*
X207831472Y-32680000D01*
D48*
X168000000Y-37500000D02*
X168000000Y-43500000D01*
D50*
X203000000Y-38000000D02*
X213000000Y-38000000D01*
D48*
X169323800Y-30500000D02*
X172000000Y-27823800D01*
X168500000Y-37000000D02*
X168000000Y-37500000D01*
D50*
X172348300Y-27475500D02*
X172000000Y-27823800D01*
D48*
X156000000Y-30500000D02*
X169323800Y-30500000D01*
D50*
X169924264Y-35500000D02*
X169212132Y-36212132D01*
X165250000Y-46750000D02*
X165000000Y-46750000D01*
X172500000Y-41500000D02*
X172500000Y-37000000D01*
X175500000Y-27000000D02*
X179000000Y-30500000D01*
X172500000Y-37000000D02*
X171000000Y-35500000D01*
X162000000Y-48500000D02*
X161050000Y-49450000D01*
X163750000Y-46750000D02*
X162000000Y-48500000D01*
X169000000Y-43000000D02*
X165250000Y-46750000D01*
X169212132Y-36212132D02*
X169212132Y-36287868D01*
X169000000Y-36500000D02*
X169000000Y-43000000D01*
X155000000Y-28500000D02*
X156500000Y-30000000D01*
X179000000Y-30500000D02*
X179500000Y-30500000D01*
X172328826Y-27000000D02*
X172500000Y-27000000D01*
X169328826Y-30000000D02*
X172328826Y-27000000D01*
D52*
X204210000Y-35790000D02*
X204000000Y-36000000D01*
D50*
X173232182Y-41500000D02*
X172500000Y-41500000D01*
X161000000Y-49450000D02*
X148950000Y-49450000D01*
X174132182Y-42400000D02*
X173232182Y-41500000D01*
X193325000Y-30825000D02*
X199825000Y-30825000D01*
D52*
X179500000Y-30500000D02*
X179825000Y-30825000D01*
D50*
X171000000Y-35500000D02*
X169924264Y-35500000D01*
X165000000Y-46750000D02*
X163750000Y-46750000D01*
X174600000Y-42400000D02*
X174132182Y-42400000D01*
X156500000Y-30000000D02*
X169328826Y-30000000D01*
D52*
X204210000Y-33900000D02*
X204210000Y-35790000D01*
D50*
X169212132Y-36287868D02*
X169000000Y-36500000D01*
X148950000Y-49450000D02*
X148500000Y-49000000D01*
X148500000Y-49000000D02*
X148500000Y-35000000D01*
X161050000Y-49450000D02*
X161000000Y-49450000D01*
X148500000Y-35000000D02*
X155000000Y-28500000D01*
D52*
X179825000Y-30825000D02*
X193325000Y-30825000D01*
D50*
X172500000Y-27000000D02*
X175500000Y-27000000D01*
X199825000Y-30825000D02*
X200000000Y-31000000D01*
D48*
X205480000Y-35006900D02*
X205650000Y-35176900D01*
X175850003Y-42850003D02*
X175850003Y-43500000D01*
X175400000Y-42400000D02*
X175850003Y-42850003D01*
X205480000Y-33900000D02*
X205480000Y-35006900D01*
X199544364Y-32100000D02*
X199394365Y-31950000D01*
X168412131Y-33284925D02*
X168412131Y-34950000D01*
X159500000Y-40671000D02*
X159500000Y-40500000D01*
X162637300Y-9250000D02*
X162312500Y-9250000D01*
X206750000Y-33900000D02*
X206750000Y-33488374D01*
X163040300Y-9653000D02*
X162637300Y-9250000D01*
X199394365Y-31950000D02*
X175935000Y-31950000D01*
X175935000Y-31950000D02*
X172841028Y-28856028D01*
X163040300Y-9653000D02*
X163040300Y-16550300D01*
X205361626Y-32100000D02*
X199544364Y-32100000D01*
X206750000Y-33488374D02*
X205361626Y-32100000D01*
X172841028Y-28856028D02*
X168412131Y-33284925D01*
X163040300Y-16550300D02*
X164490000Y-18000000D01*
X158265800Y-41905200D02*
X159500000Y-40671000D01*
D50*
X199539339Y-31600000D02*
X178675736Y-31600000D01*
D48*
X172400000Y-27954000D02*
X172400000Y-28165686D01*
X169552800Y-30900000D02*
X165095200Y-35357600D01*
X169665686Y-30900000D02*
X169552800Y-30900000D01*
X165095200Y-35357600D02*
X162708086Y-35357600D01*
D50*
X208020000Y-33900000D02*
X208020000Y-33600000D01*
X175200000Y-28124264D02*
X175200000Y-27955228D01*
D48*
X172528500Y-27825500D02*
X172400000Y-27954000D01*
D50*
X175070272Y-27825500D02*
X172528500Y-27825500D01*
X208020000Y-33600000D02*
X206170000Y-31750000D01*
X178675736Y-31600000D02*
X175200000Y-28124264D01*
X199689339Y-31750000D02*
X199539339Y-31600000D01*
D48*
X172400000Y-28165686D02*
X169665686Y-30900000D01*
X162708086Y-35357600D02*
X159500000Y-38565686D01*
D50*
X206170000Y-31750000D02*
X199689339Y-31750000D01*
D48*
X159500000Y-38565686D02*
X159500000Y-39500000D01*
D50*
X175200000Y-27955228D02*
X175070272Y-27825500D01*
D48*
X199375800Y-28651900D02*
X185058900Y-14335000D01*
X164490000Y-10234600D02*
X162692900Y-8437500D01*
X185058900Y-14335000D02*
X164490000Y-14335000D01*
X164490000Y-16010000D02*
X164000000Y-16500000D01*
D49*
X210256300Y-22339800D02*
X211430200Y-22339800D01*
D48*
X203944200Y-28651900D02*
X199375800Y-28651900D01*
D53*
X160000000Y-40000000D02*
X158000000Y-40000000D01*
D48*
X164490000Y-14335000D02*
X164490000Y-10234600D01*
X164490000Y-15000000D02*
X164490000Y-16010000D01*
X162692900Y-8437500D02*
X162250000Y-8437500D01*
X163000000Y-34500000D02*
X158000000Y-39500000D01*
D53*
X158000000Y-40000000D02*
X158000000Y-39500000D01*
D48*
X164490000Y-15000000D02*
X164490000Y-14335000D01*
D49*
X211430200Y-22339800D02*
X211950000Y-21820000D01*
D48*
X210256300Y-22339800D02*
X203944200Y-28651900D01*
X160411200Y-44921200D02*
X160478900Y-44921200D01*
D49*
X211430200Y-21069800D02*
X208059400Y-21069800D01*
D48*
X159490000Y-44000000D02*
X160411200Y-44921200D01*
D49*
X211950000Y-20550000D02*
X211430200Y-21069800D01*
D48*
X174324400Y-28350800D02*
X172780571Y-28350800D01*
D49*
X210176300Y-19280000D02*
X210004200Y-19107900D01*
D48*
X172780571Y-28350800D02*
X166490000Y-34641371D01*
X166490000Y-34641371D02*
X166490000Y-35000000D01*
X174402900Y-28429300D02*
X174324400Y-28350800D01*
D49*
X211950000Y-19280000D02*
X210176300Y-19280000D01*
D48*
X210560000Y-16497900D02*
X204290368Y-22767532D01*
X195071200Y-28651900D02*
X188340300Y-21921000D01*
X195490000Y-37000000D02*
X196313600Y-37823600D01*
X188340300Y-21921000D02*
X156221000Y-21921000D01*
X156221000Y-21921000D02*
X152000000Y-17700000D01*
X198070400Y-28651900D02*
X195071200Y-28651900D01*
X198270500Y-28451800D02*
X198070400Y-28651900D01*
X204290368Y-22767532D02*
X203907608Y-22767532D01*
X196313600Y-37823600D02*
X196315200Y-37823600D01*
X210560000Y-16100000D02*
X210560000Y-16497900D01*
X165772300Y-3936400D02*
X187323600Y-3936400D01*
X199130000Y-15742800D02*
X199130000Y-16100000D01*
X187323600Y-3936400D02*
X199130000Y-15742800D01*
X164255400Y-5453300D02*
X165772300Y-3936400D01*
X188322600Y-6166200D02*
X155913800Y-6166200D01*
X197860000Y-16100000D02*
X197860000Y-15703600D01*
X155913800Y-6166200D02*
X152000000Y-10080000D01*
X197860000Y-15703600D02*
X188322600Y-6166200D01*
X155490000Y-44000000D02*
X156336900Y-43153100D01*
X156336900Y-43153100D02*
X157367700Y-43153100D01*
X196590000Y-16100000D02*
X196590000Y-16497700D01*
X196590000Y-16497700D02*
X195715300Y-17372400D01*
X195715300Y-17372400D02*
X194652200Y-17372400D01*
X160441700Y-39441700D02*
X160500000Y-39500000D01*
X160441700Y-38517600D02*
X160441700Y-39441700D01*
D49*
X160500000Y-40500000D02*
X161379500Y-40500000D01*
X161379500Y-40500000D02*
X162867000Y-39012500D01*
D48*
X173500000Y-40990000D02*
X173500000Y-39264576D01*
D50*
X176219696Y-38000000D02*
X176036625Y-37816929D01*
X177000000Y-38000000D02*
X177490000Y-38000000D01*
D48*
X173500000Y-39264576D02*
X174947647Y-37816929D01*
X174600000Y-41600000D02*
X173990000Y-40990000D01*
X174947647Y-37816929D02*
X176036625Y-37816929D01*
D50*
X176500000Y-37500000D02*
X177000000Y-38000000D01*
D48*
X173990000Y-40990000D02*
X173500000Y-40990000D01*
X179400000Y-49400000D02*
X178000000Y-48000000D01*
X183100000Y-49400000D02*
X179400000Y-49400000D01*
X175400000Y-41600000D02*
X178100000Y-41600000D01*
X183500000Y-49000000D02*
X183100000Y-49400000D01*
X183500000Y-47000000D02*
X183500000Y-49000000D01*
X178100000Y-41600000D02*
X183500000Y-47000000D01*
X175400000Y-42000000D02*
X177500000Y-42000000D01*
X182000000Y-46500000D02*
X182000000Y-48000000D01*
X177500000Y-42000000D02*
X182000000Y-46500000D01*
X151515000Y-48000000D02*
X151515000Y-44995000D01*
X151515000Y-44995000D02*
X152510000Y-44000000D01*
X155515000Y-44995000D02*
X156510000Y-44000000D01*
X155515000Y-48000000D02*
X155515000Y-44995000D01*
X161086000Y-44576000D02*
X161086000Y-45878800D01*
D49*
X159585600Y-47379200D02*
X161086000Y-45878800D01*
X159515000Y-47379200D02*
X159585600Y-47379200D01*
D48*
X159515000Y-48000000D02*
X159515000Y-47379200D01*
X160510000Y-44000000D02*
X161086000Y-44576000D01*
X165010000Y-37500000D02*
X163500000Y-37500000D01*
X167510000Y-35000000D02*
X165010000Y-37500000D01*
X163500000Y-37500000D02*
X163500000Y-44500000D01*
M02*
